<svg xmlns="http://www.w3.org/2000/svg" xml:space="preserve" style="fill-rule:evenodd;clip-rule:evenodd;stroke-linejoin:round;stroke-miterlimit:2" viewBox="0 0 474 608"><path id="Mesa-de-trabajo1" d="M0 0h473.865v607.337H0z" style="fill:none"/><g id="Mesa-de-trabajo11"><g id="_-44cbd8ff"><path d="M190.725 11.993c19.74-3.63 40-3.29 59.95-1.95 14.83 2.13 29.93 3.44 44.14 8.58 17.96 5.15 35.28 13.06 50.12 24.52 11.5 8.71 20.61 20.71 25.37 34.37 3.42 9.59 2.58 19.9 2.71 29.9.04 3.66-.26 7.32-.44 10.99.89 36.65.37 73.34.35 110 0 6.46-2.25 12.72-5.65 18.15 7.55 5.12 15.89 8.91 23.86 13.31 11.88 6.99 24.41 12.78 36.37 19.63 9.39 5.49 19.51 9.67 28.7 15.52 2.04 1.12 2.88 3.38 3.63 5.46 1.97 5.06 1.53 10.61 1.93 15.94.51 27.34-.94 54.66-.66 82-.2 5.03.67 10.34-1.39 15.1-1.63 4.05-5.26 6.74-8.62 9.3-5.21 3.75-10.31 7.65-15.43 11.51-7.81 6.17-16.25 11.57-23.48 18.45-.16 14.62-.12 29.24-1.03 43.84-4.51 4.99-10.51 8.32-16.44 11.32-4.4-3.63-10.4-5-14.19-9.34-1.23-6.9-.64-14.07-1.45-21.05-14.82 12.04-30.29 23.24-45.36 34.96-12 9.64-24.87 18.25-36.53 28.29-.77 6.14.04 12.38-.14 18.57.25 8.4-.75 16.75-1.04 25.14-4.68 3.97-9.4 8.24-15.26 10.37-1.48.75-2.91-.42-4.22-.93-3.84-2-7.72-3.93-11.35-6.29-1.15-7.39-.81-14.88-1.06-22.33-6.21 3.29-12.03 8.07-19.36 8.41-7.05-.37-13.35-3.92-19.43-7.19-.07 6.94-.88 13.83-1.23 20.75-.13 3.38-3.88 4.72-6.17 6.53-2.64 1.42-4.94 3.94-8.02 4.26-3.59-1.04-6.88-2.93-10.17-4.65-2.33-1.43-5.12-2.93-5.98-5.7-1.12-12.82-1.48-25.7-1.45-38.57-16.91-10.06-34.42-19.1-51.48-28.9-7.01-4.03-14.39-7.39-21.2-11.77-6.29-3.92-13.09-6.94-19.36-10.91-1.61 7.17-1.82 14.62-2.29 21.94-4.23 2.96-8.65 5.66-13.18 8.14-3.27-.08-6.18-1.97-9.05-3.35-3.5-2.02-8.48-4.03-8.12-8.92-.25-12.43-.91-24.86-1.54-37.28-13.62-7.37-27.2-14.83-40.58-22.64-4.24-2.56-9.05-4.58-12.22-8.52-2.03-3.5-3.21-7.55-3.2-11.6.16-25.02-.9-50.03-1.61-75.03.07-9.65-.84-19.29-.37-28.94.21-3.35.85-6.92 3.12-9.54 3.45-3.93 7.92-6.74 12.08-9.85 13.52-9.51 26.71-19.48 40.45-28.67 11.48-8.48 23.63-16.02 34.89-24.82-5.24-8.14-11.97-16.1-12.94-26.11-.82-7.3-.48-14.66-.58-21.98-.15-20.69-.12-41.38-.03-62.07-.06-14.32-.31-28.64.13-42.96.39-8.3-.99-16.77 1.27-24.91 4.02-17.15 16.8-30.55 30.48-40.85 22.01-14.81 47.67-23.53 73.75-27.63m16.06 1.17c-13.85 1.68-27.92 3.12-41.14 7.79-.92.19-1.78.56-2.58 1.12-4.57 1.02-9.11 2.42-13.38 4.36-.9.05-1.68.41-2.34 1.07-7.64 2.36-14.92 6-21.49 10.57l-.23-.04-1.14 1.14c-15.47 8.84-27.94 23.05-34.42 39.7l.95.71-1.11-.01c-.05.46-.16 1.38-.22 1.84-.27 1.23-.48 2.47-.67 3.72-.19 1.62-.39 3.24-.59 4.86l-.02 1.58c.01 2.61-.11 5.23.18 7.84.52 1.65 1.52 3.14 1.7 4.9 1.1 6.68 4.22 12.94 8.54 18.13 4.58 5.33 8.95 10.96 14.51 15.33 4.91 3.81 9.65 7.9 15.07 11 7.1 5.15 15.64 7.57 23.38 11.52 8.57 2.76 17.32 4.98 26 7.38 11.86 2.18 23.78 4.53 35.89 4.59 12.7-.01 25.42.53 38.11-.45 11.13-.92 22-3.58 32.88-5.96 9.53-1.99 18.66-5.48 27.75-8.9 11.69-5.18 22.7-11.83 33.16-19.17l.2.03c.22-.22.67-.66.89-.88 2.04-1.76 4-3.6 5.83-5.59l.26.01c.22-.43.66-1.27.87-1.69 4.73-5.58 9.13-11.52 12.22-18.18 2.92-6.28 3.39-13.36 3.36-20.19l.02-.7-.27-5.44c-.33-.93-.65-1.86-.97-2.78-.22-1.2-.43-2.39-.62-3.57l-.52-.05c-1.52-6.11-5.1-11.36-8.19-16.74-.5-.5-1.03-.93-1.6-1.31l.43-.32c-7.41-8.21-15.03-16.57-24.92-21.82l.57-.1h-.54c-6.11-4.39-13.24-7.04-19.86-10.53l-.29.07c-2.18-1.1-4.48-1.95-6.89-2.34-1.93-.96-3.9-1.82-5.9-2.6-2.39-.78-4.84-1.64-7.39-1.54-6.19-1.6-12.11-4.21-18.45-5.19-7.99-1.33-15.98-2.87-24.08-3.4-14.31-.21-28.66-.98-42.95.23m-119.42 97.98c-.48 6.78.89 13.49.8 20.26.56 32.33-.61 64.65.22 96.98.22 7.32 3.85 13.86 7.24 20.15 5.34 9.59 13.89 16.79 22.71 23.07-.18-24.24.35-48.48-.01-72.72 4.55.27 9.11.12 13.66-.15-.33 26.56.4 53.15-.34 79.71 0 1.69 1.54 2.41 2.86 3 5.35 2.31 10.27 5.64 15.98 7.09 7.1 1.7 13.63 5.17 20.85 6.44 19.85 4.16 40.07 7.31 60.41 6.95 17.02-.14 34-2.37 50.59-6.09 6.66-1.99 13.6-2.98 20.06-5.59 16.98-5.39 32.69-14.43 46.5-25.6 5.5-5.17 11.2-10.5 14.45-17.44 2.47-5.08 5.64-10.08 6.12-15.84 1.49-8.26.2-16.65.6-24.98-1.01-22.97-.91-45.98-.65-68.98-.5-8.44-.01-16.88-.08-25.32-3.31 8.84-9.91 15.92-16.45 22.53-11.14 11.66-25.78 19.08-40.29 25.63-11.04 5.13-22.92 8-34.75 10.6-21.33 4.59-43.27 6.71-65.06 4.97-13.76-1.25-27.75-2.12-40.95-6.51-12.32-3.94-24.91-7.52-36.3-13.79-16.22-6.67-30.2-18.21-40.64-32.23-2.94-3.89-4.37-8.62-6.03-13.14-.37.25-1.12.75-1.5 1m277.55 139.5c2.37 2.91 4.51 6.01 6.12 9.42 1.87 3.88 4.4 7.81 4.14 12.3-.09 4.75.12 9.51.21 14.27 3.12 3.44 4.59 7.96 7.37 11.65 3.2 4.26 5.85 8.9 8.75 13.37 1.67 2.79 3.59 5.99 2.79 9.37-1.05 2.49-3.7 3.69-5.75 5.23-16.65 12.5-33.8 24.33-50.7 36.51-15.37 11.24-31.06 22.01-46.58 33.04-1.05.71-2.18 1.54-3.52 1.3-4.2-.36-8.06-2.22-12.1-3.27-8.26-2.22-16.14-5.61-24.15-8.55-1.83-.61-3.64-1.43-5.59-1.43-4.91 1.53-9.07 4.72-13.62 7.02-10.38 5.25-20.36 11.28-30.85 16.29-3.83 2.25-7.69-.72-11.08-2.36-26.16-14.03-52.11-28.42-78.06-42.83-10.67-6.03-21.83-11.22-32.03-18.03-2.83-1.64-2.66-5.35-1.95-8.09 3.01-6.62 7.1-12.67 10.76-18.93.93-1.73 2.07-3.51 1.92-5.56.09-5.67-.09-11.35.02-17.02-.12-3.75 2.46-6.73 3.76-10.07 2.81-6.65 6.75-12.85 11.92-17.93-1.57-1.39-2.88-3.33-4.98-3.93-2.01.23-3.47 1.77-5.04 2.88-3.76 3.01-8 5.32-12 7.97-14.77 10.72-29.93 20.89-44.84 31.42-8.03 5.12-15.08 11.58-22.91 16.97-2.21 1.55-4.43 3.81-4.09 6.75-.05 1.8 1.73 2.84 2.93 3.9 7.71 5.44 16.45 9.15 24.75 13.6 7.95 4.66 15.91 9.32 24.16 13.44 48.41 26.01 96.17 53.22 144.54 79.3 9.15 4.55 17.74 10.19 27.16 14.19 4.59 2.21 10.25 1.55 14.52-1.09 6.25-3.69 12.01-8.14 17.79-12.52 7.58-5.33 14.95-10.95 22.56-16.24 14.6-11.18 30.04-21.2 44.54-32.52 17.54-12.81 35.07-25.64 52.71-38.31 16.13-12.3 32.65-24.05 49.04-35.99 5.36-3.96 11.06-7.49 15.99-11.99 1.24-.98 1.61-2.55 2.14-3.94-8.14-6.65-18.01-10.65-27.16-15.67-12.09-5.97-23.53-13.13-35.62-19.07-9.52-4.58-18.18-10.87-27.97-14.85m-6.72 9.55c2.45 4.37 4.69 8.92 7.87 12.84 2.06 2.59 4.04 5.26 5.65 8.18.41-4.42 1.25-9.15-.61-13.35-2.12-4.97-4.34-9.94-7.45-14.38-2.17 1.93-3.99 4.2-5.46 6.71m-5.47 5.3c-9.68 8.43-20.62 15.41-32.32 20.68-6.83 3.42-14.6 5.33-20.28 10.69-6.07 3.8-13.1 5.77-19.93 7.73-10.27 2.02-20.34 4.9-30.47 7.5-12.84 2.47-26.08 2.69-39.04 1.11-11.74-.79-23.86-.26-35.07-4.38-8.14-2.7-16.19-6.91-21.46-13.88-1.99-2.77-5.46-3.61-8.44-4.83-4.85-1.7-9.03-4.77-13.7-6.85-.29 2.8-.57 5.71.35 8.44 3.71.76 7.54.73 11.3 1.25q-.765 1.38-1.53 2.79c18.86 10.29 37.77 20.48 56.78 30.48 8.03 4.61 16.2 9 24.43 13.25 1.78.92 3.82 1.59 5.82.98 6.67-1.68 12.31-6.96 19.49-6.63 3.7-.21 7.3.73 10.92 1.33 2.01-.85 3.77-2.18 5.57-3.41 9.8-6.94 19.58-13.91 29.54-20.63 6.71-4.52 13-9.63 19.85-13.96 8.42-5.46 15.94-12.18 24.45-17.5 6.05-4.14 12.32-8.08 17.55-13.27-.11-.73-.34-2.2-.45-2.94-1.19.58-2.37 1.19-3.36 2.05m-245.64 5.26c-4.24 5.58-7.62 11.8-10.78 18.06-3.26 5.67-1.31 12.42-1.72 18.61 4.5-8.38 9.98-16.18 14.65-24.46 2.15-3.66 2.04-8.06 2.98-12.1-1.47-1.26-3.86-2.11-5.13-.11m245.65 3.7c-16.5 11.8-33.34 23.13-49.66 35.19-13.59 9.95-28.15 18.59-41.09 29.4 3.49 5.39 5.91 11.35 8.63 17.14 3.41 6.14 6.14 12.62 9.46 18.81 3.15 5.78 5.12 12.14 8.59 17.75 4.46-2.13 8.15-5.48 12.26-8.18 9.04-6.65 18.25-13.06 27.45-19.48 14.82-10.92 29.83-21.57 44.79-32.29 5.94-4.33 12.41-8.13 17.53-13.46-.62-3.18-2.96-5.66-4.55-8.39-9.07-13.41-16.19-28.15-26.49-40.69-2.42 1.2-4.74 2.6-6.92 4.2m-237.38-1.21c-.61 1.98-1.35 4-1.25 6.11.86 1.72 2.63 2.78 4.01 4.07.09-2.34.33-4.68.17-7.01-.39-1.47-1.92-2.19-2.93-3.17m-7.41 18.96c3.49.03 6.99-.01 10.5-.01-.06-1.71-.1-3.41-.14-5.11-1.65-.85-3.31-1.69-4.95-2.53-2.07 2.35-3.85 4.93-5.41 7.65m-9.8 16.26c-4.93 9.14-10.76 17.75-15.43 27.03-.52 1.26-1.51 2.46-1.32 3.91 3.92 4.18 9.48 6.14 14.35 8.95 16.58 9.06 33.12 18.17 49.59 27.4 17.58 9.37 34.81 19.39 52.58 28.39 8.53-20.09 17.94-39.8 26.58-59.86-28.79-14.28-56.65-30.31-84.93-45.56-5.22 6.14-9.1 13.27-14.02 19.64-1.93-.04-2.52-2.14-3.56-3.38-5.04-7.03-9.06-14.77-14.6-21.44-2.98 5.03-6.47 9.76-9.24 14.92m59.58-13.92c9.89 8.81 22.83 13.88 36.01 14.58 6.64-.03 13.28.51 19.82 1.66-.03-2-.06-4-.07-5.98-15.44-1.99-31.07-3.39-46.24-7.11-3.18-1.04-6.25-2.41-9.52-3.15m115.17 6.68c-4.94.59-9.83 1.55-14.79 1.89.21 1.23.41 2.45.63 3.7 7.11-2.72 14.67-3.83 22.01-5.75 3.66-1.29 7.37-2.44 11.21-3.09-6.55-.29-12.64 2.53-19.06 3.25m-37.17 3.63c-6.45.23-12.9-.06-19.35.1.2 2.16-.96 5.19 1.35 6.53 12.52-.03 25.09-1.05 37.31-3.98.03-1.29.05-2.58.09-3.86-6.49.16-12.92 1.16-19.4 1.21m194.75 21.41c-21.76 15.52-43.21 31.45-64.71 47.34-15.84 10.66-30.76 22.6-46.36 33.61-6.78 5.22-13.66 10.32-20.7 15.19-13.74 9.05-26.33 19.73-40.11 28.73-3.93 2.66-7.73 5.7-12.33 7.15-.31 5.1-.25 10.21-.18 15.31 6.16-3.16 11.43-7.76 17.19-11.57 14.77-11.02 30.08-21.32 44.79-32.42 49.28-36.49 99.47-71.73 148.65-108.35.87-.7 1.76-1.6 1.54-2.84.04-4.02-.39-8.04-1.33-11.95-8.61 6.88-17.65 13.18-26.45 19.8m13.84 8.86c-14.76 10.55-29.23 21.49-43.89 32.18-12.63 9.02-25.24 18.06-37.88 27.08-15.79 11.88-32.12 23.04-47.77 35.12-13.81 9.83-27.32 20.09-41.25 29.75-9.02 6.42-17.68 13.37-27.16 19.12.01 30.56.08 61.13.89 91.67 7.01-2.91 13.03-7.63 19.4-11.67 8.64-5.55 16.03-12.76 24.65-18.34 31.99-24.08 63.4-48.92 95.62-72.71 7.9-6.75 16.49-12.62 24.51-19.23a2249 2249 0 0 1 35.75-27.31c3.76-3.04 8.53-5.84 9.78-10.86.66-13.18-.12-26.43.91-39.61.35-15.03.33-30.07.45-45.1-5.08 2.7-9.23 6.76-14.01 9.91m-432.31.14c-.19 3.92-.6 7.93.22 11.81 2.03 2.5 5.12 3.73 7.86 5.26 12.53 6.21 24.59 13.28 36.96 19.79 18.44 10.62 37.41 20.29 55.73 31.11 12.23 6.35 24.01 13.55 36.17 20.05 21.9 11.91 43.6 24.19 65.43 36.23 9.25 4.88 18.06 10.78 27.85 14.56-.07-4.92-.11-9.84-.2-14.75-14.85-5.99-28.93-13.71-42.85-21.58-10.12-5.54-20.43-10.71-30.3-16.68-17.06-9.09-34.01-18.4-50.74-28.06a9619 9619 0 0 0-82.96-45.06c-7.5-4.62-15.42-8.48-23.17-12.68m216.99 9.42c-5.39 10.74-9.87 21.93-15.13 32.75-3.25 8.54-7.72 16.55-11.09 25.04 10.18-4.8 19.67-10.96 29.72-16.04 3.98-2.33 8.47-4.09 11.78-7.39.15-13.84.06-27.7.25-41.55-5.18 2.39-10.58 4.38-15.53 7.19m19.02-6.99c.17 13.97-.06 27.94.22 41.9 6.45 3.42 13.51 5.53 20.42 7.82 5.14 1.43 10.03 3.64 15.23 4.88-1.24-3.5-3.2-6.67-4.71-10.04-5.71-13.85-14.1-26.41-19.57-40.38-1.69-4.63-7.55-4.36-11.59-4.18m-235.77 14.92c.34 28.63.93 57.28 2.06 85.9.71 5.43 5.52 8.97 9.96 11.5 31.67 18.5 64.05 35.73 95.83 54.02 29.75 16.21 58.91 33.54 89.07 48.94 4.15 2.59 8.4 5 12.81 7.12 6.76 3.77 13.5 7.89 21.09 9.73-.06-29.86-.22-59.72-.23-89.57.29-1.6-1.68-1.86-2.67-2.42-7.21-2.73-13.49-7.27-20.28-10.82-18.37-9.79-36.45-20.13-54.64-30.24-8.7-4.57-17.27-9.37-25.76-14.29-34.44-18.79-68.38-38.48-102.94-57.04-8.29-3.92-15.81-9.32-24.3-12.83m384.2 111.88c-.04 12.66-.05 25.34.17 38.01 3.61-1.99 7.29-3.94 10.49-6.55 1.05-2.72.78-5.71.92-8.56.12-10.69.64-21.39.25-32.07-3.97 3.02-7.92 6.07-11.83 9.17m-13.14 10.19c-.64 7.04-.18 14.17.1 21.22 2.85 2.56 6.29 4.38 9.46 6.52.09-11.64.77-23.36-.52-34.95-2.9 2.55-6.48 4.31-9.04 7.21m-313 5.85c.51 12.25.5 24.53 1.33 36.78 3.4 2.06 6.84 4.08 10.51 5.67.6-11.89.73-23.9-.23-35.76-3.84-2.27-7.67-4.61-11.61-6.69m15.77 8.7c.2 11.21.32 22.41.25 33.62 2.66-1.66 5.4-3.21 7.8-5.24.92-3.31.6-6.84.98-10.23.19-4.09 1.31-8.17.71-12.26-3.08-2.19-6.15-4.58-9.74-5.89m195.44 63.15c-.37 12.65.28 25.3.45 37.94 3.3-2.24 6.68-4.39 9.72-6.98 1.52-1.17 1.13-3.29 1.28-4.96.1-11.53.26-23.08-.13-34.6-3.96 2.62-7.59 5.68-11.32 8.6m-85.11-1.24c.14 12.17.41 24.33.99 36.49 3.41 2.34 7.13 4.17 10.96 5.75.25-12.02.23-24.07-.18-36.08-3.98-1.96-7.55-4.69-11.77-6.16m72.49 10.42c-1.33.81-.9 2.53-.99 3.82.37 6.35.28 12.7.55 19.06 3.11 1.99 6.32 3.79 9.56 5.57-.33-11.66.64-23.37-.57-34.98-2.77 2.29-5.78 4.25-8.55 6.53m-56.58-2.13c.03 11.09-.23 22.21.53 33.28 2.75-1.78 5.83-3.55 7.59-6.38-.11-7.35 1.2-14.65.84-22.01-2.84-1.89-5.76-3.69-8.96-4.89" style="fill:#44cbd8;fill-rule:nonzero"/><path d="M247.075 50.753c2.86-3.22 5.35-7 9.35-8.9 4.13 1.41 8.41 2.32 12.52 3.8.39.15 1.17.45 1.56.59.1 2.12-1.34 3.74-2.53 5.32-2.68 3.38-5.25 6.85-8.02 10.16l-.76.09.43.16q-3.75 4.56-7.74 8.91c5.01 1.67 9.42 4.64 13.41 8.04.53.51 1.07 1.04 1.58 1.59 1.08 1.35 2.13 2.74 3.14 4.16.09.12.27.37.36.49.69 1.83 1.33 3.68 1.86 5.57l.1.53c1.43 7.02-2.85 13.06-7.29 17.94 5.87 3.08 10.4 8.41 16.64 10.72 5.58-.71 10.27-5.13 16.08-4.8 3.28.75 5.95 2.93 8.63 4.85-.16 1.48-.05 3.03-.55 4.45-2.48 2.16-5.49 3.59-8.14 5.52l-.06.05c-.33.2-.97.61-1.3.82-5.6 3.52-11.64 6.32-17.12 10.05-3.69 2.14-7.2 5.15-11.5 5.83-4.3-.82-9.03-3.62-10.16-8.14-.07-.46-.22-1.36-.3-1.81 3.32-2.61 7.11-4.56 10.24-7.4-.91-2.24-3.28-3.32-5.08-4.74-3.72-2.43-7.21-5.64-11.66-6.57-13.36 4.33-27.83 3.89-41.45 1.02-3.78 3.37-7.23 7.09-10.52 10.93-.3.33-.59.67-.87 1.01-1.4 1.63-2.79 3.27-4.16 4.94-.31.34-.6.7-.89 1.05-5.76-.73-11.66-2.12-16.58-5.32 4.51-6.64 10.21-12.35 15.15-18.65.01-.28.02-.86.03-1.15-4.6-3.51-9.13-7.22-14.37-9.76.37-5.69 7.05-6.56 10.56-9.8-3.89-2.31-8.19-4.07-11.37-7.4-.27-.23-.81-.7-1.08-.93-4.77-2.8-9.21-6.1-13.51-9.56-3.6-2.84-5.71-7.53-5.2-12.12 1.25-5.65 5.89-9.8 10.82-12.4 7.21-3.6 15.5-3.59 23.34-2.93 6.85.57 12.46 4.87 18.1 8.37 7.31 4.51 13.71 10.3 21.05 14.78 5.99-6.25 11.53-12.89 17.26-19.36m9.49-4.68c-8 7.76-14.55 16.85-22.08 25.04-5.2 6.76-11.05 12.96-17.21 18.85-8.56 10.08-17.77 19.58-26.19 29.78-3.01 3.65-6.76 6.86-8.63 11.3 2.81.76 5.78 2.47 8.73 1.78 5.08-4.91 9.12-10.77 14.05-15.81 5.7-5.71 10.99-11.8 16.37-17.8 4.6-5.69 10.11-10.56 14.85-16.13 10.25-11.2 19.58-23.19 29.09-35-2.72-1.26-6.03-3.08-8.98-2.01m-85.15 6.15c-4.76 2.26-10.14 5.95-10.45 11.73-.23 3.98 2.67 7.06 5.7 9.19 3.5-1.4 6.4-4.13 10.06-5.1 2.3-.53 3.61 1.82 3.73 3.77-2.3 1.56-4.98 2.39-7.38 3.76-1.22 2.35 1.97 3.4 3.58 4.25 3.81-.32 6.68-3.45 10.08-4.99 2.01.09 4.87 1.07 4.98 3.45-2.87 2.31-6.39 3.54-9.59 5.29 1.99 2.5 5.59 5.61 8.81 3.4 2.72-1.25 5.07-3.24 7.87-4.31 2.09-.65 4.25 1.39 3.68 3.51-2.39 2.81-6.2 3.91-8.74 6.48 3.04 2.13 5.91 4.5 8.95 6.65 5.22-4.1 9.44-9.25 13.63-14.35 2.94-3.62 6.66-6.46 10.08-9.6-.12-.52-.34-1.57-.46-2.1l-1.21-.36c-3.2 1.37-5.88 3.79-9.13 5.12-1.68-1.19-3.85-2.32-3.4-4.72 3.08-1.18 6.07-2.58 9.03-4.04-1.73-1.44-3.34-3.2-5.55-3.84-3.97.49-7.05 3.62-10.96 4.34-1.81.37-2.84-1.43-4.01-2.4 2.25-3.06 7.03-2.68 8.94-5.93-.51-2.04-3.22-2.49-4.77-3.59-3.86 2.34-7.86 5.52-12.63 5.11-.18-1.19-.32-2.37-.41-3.56 2.04-2.16 5.15-2.77 7.78-3.95-.97-1.02-1.59-2.49-2.96-3.02-8.04-3.22-17.13-2.84-25.25-.19m78.52 22.31c-1.83 1.53-3.39 3.34-5.07 5.03 5.03 1.94 10.45 4.73 12.46 10.1 1.61 6.56-2.35 13.11-7.78 16.56-9.96 6.68-22.73 6.85-34.13 4.6-1.18 1.28-2.1 2.75-2.86 4.31 10.95 3.69 23.01 3.79 33.89-.17 1.87-.54 3.87-1.84 5.84-.92 3.94 1.79 7.3 4.6 10.88 7.01 2.86 2.08 6.1 3.78 8.37 6.56.65.73 1.25 2.03.43 2.88-2.92 3.36-7 5.39-10.41 8.19 1.67 1.6 3.61 3.37 6.12 3.23 3.59-.02 6.36-2.59 9.24-4.39 6.63-4.56 14.46-7.21 20.7-12.36 1.36-.61 2.89-1 4.07-1.97-.55-2.33-3-3.41-4.94-4.35-5.08.69-9.56 3.77-14.05 6.01-4.19-2.11-8.22-4.56-11.83-7.56-3.49-2.9-7.55-5.01-11.05-7.9 2.93-3.92 5.91-7.93 7.56-12.59 1.85-4.67-.85-9.69-3.67-13.35-3.74-3.98-8.43-7.56-13.77-8.92m-13.16 13.97c-5.5 6.37-11.47 12.34-16.9 18.76 7.76 2.58 16.56 1.3 23.75-2.37l-.05.47c2.11-1.08 4.23-2.3 5.47-4.41 3.19-2.15 5.59-6.86 3.35-10.47-1.7-4.06-6.12-5.67-9.1-8.59-2.31 2.06-4.52 4.24-6.52 6.61m-54.25 11.84c4.42 2.54 8.17 6.01 12.38 8.84 1.29-1.76 3.31-3.29 3.66-5.57-2.01-2.12-4.58-3.61-7.05-5.1-2.95-1.97-6.43.25-8.99 1.83m-125.73-5.74c4.42.07 8.85-.04 13.27.33-.01 32.43-.11 64.87.05 97.3 3.89.01 7.79.14 11.66.54-1.97 4.06-5.06 7.41-7.54 11.15-3.78 5.1-7.08 10.54-11.21 15.37-4.09-5.36-7.76-11.01-11.63-16.52-2.33-3.37-5.02-6.49-6.97-10.11 4.03-.14 8.06-.02 12.09-.12.31-32.65-.12-65.3.28-97.94m329.66.34c4.43-.09 8.86-.16 13.3-.09.12 32.61.03 65.21.09 97.81 3.88.09 7.76.07 11.65.35-6.27 8.57-11.96 17.53-18.12 26.16-1.25.01-1.66-1.4-2.31-2.18-5.21-8.23-10.9-16.14-16.43-24.13 3.86-.18 7.72-.12 11.59-.08.45-32.61.14-65.23.23-97.84m21.67 192.04c6.52-1.93 13.62-1.33 19.91 1.18 4.33 2.09 8.12 6.22 8.43 11.2.33 4.72-3.4 8.53-7.25 10.64-4.4 2.52-9.65 2.24-14.54 2.25-6.63.01-13.43-2.83-17.31-8.35-.66-3.66-.91-8.06 1.72-11.06 2.31-2.83 5.59-4.75 9.04-5.86m.86 3.63c-4.26 1.23-9.47 4.94-8.48 9.97 1.26 4.41 5.86 6.77 10.01 7.83 6.14 1.09 13.08.92 18.36-2.8 2.81-1.95 4.9-5.99 2.81-9.18-4.96-7.08-15.04-7.37-22.7-5.82m-358.13 17.91c5.92-.14 12.33.82 17.05 4.67 4.92 4.06 4.87 12.35.27 16.64-6.14 5.85-15.33 7.05-23.4 5.61-4.36-1-8.77-3.14-11.29-6.99-3.05-4.38-2.57-11.16 1.71-14.58 4.38-3.54 10.09-5.2 15.66-5.35m-8.74 5.47c-3.62 1.65-7.54 5.04-6.72 9.47 1.38 4.48 5.79 7.38 10.31 7.94 6.3.82 13.48.86 18.7-3.29 2.36-1.69 4.37-4.69 3.36-7.67-1.48-4.66-6.57-6.93-11.05-7.6-4.85-.36-10.02-.82-14.6 1.15m196.73 97.29c6.8-.95 14.34-.1 19.95 4.15 5.33 4.07 6.49 13.65.58 17.71-6.54 5.35-15.74 5.81-23.68 4.1-4.34-1.25-9.33-3.1-11.24-7.56-.81-2.86-1.45-6.08-.07-8.87 2.58-5.57 8.72-8.43 14.46-9.53m-1.77 4.44c-4.71.89-10.1 4.38-9.77 9.75.86 2.79 2.45 5.7 5.26 6.94 4.39 2.08 9.41 1.88 14.15 1.8 4.96-.12 10-2.83 12.32-7.31 1.63-3.99-1.21-8.38-4.95-9.9-5.3-2.3-11.42-2.48-17.01-1.28" style="fill:#44cbd8;fill-rule:nonzero"/></g><g id="_-e67633ff"><path d="M206.785 13.163c14.29-1.21 28.64-.44 42.95-.23 8.1.53 16.09 2.07 24.08 3.4 6.34.98 12.26 3.59 18.45 5.19-37.18.45-74.38-.15-111.57.2-5.03.05-10.08.11-15.05-.77 13.22-4.67 27.29-6.11 41.14-7.79m-57.1 13.27c4.27-1.94 8.81-3.34 13.38-4.36 10.5 1.71 21.14-.07 31.7.06 34.96.18 69.96-.54 104.89.93 2 .78 3.97 1.64 5.9 2.6.67.44 2.01 1.33 2.68 1.78-44.18.41-88.36.06-132.54.23-8.67-.31-17.32-1.28-26.01-1.24" style="fill:#e67633;fill-rule:nonzero"/><path d="M125.855 38.073c6.57-4.57 13.85-8.21 21.49-10.57 12.78.15 25.54.83 38.32.64 33.37-.05 66.75.06 100.12-.01 7.31.1 14.64-.31 21.93.45 1.6.18 3.19-.14 4.73-.58l.29-.07c6.62 3.49 13.75 6.14 19.86 10.53-66.62.41-133.24-.01-199.86.21-2.31.01-4.61-.26-6.88-.6" style="fill:#e67633;fill-rule:nonzero"/><path d="M90.065 78.873c6.48-16.65 18.95-30.86 34.42-39.7 5.05.95 10.15-.04 15.23-.04 62.34.02 124.67-.06 187 .05 1.96-.03 3.91-.28 5.85-.62 9.89 5.25 17.51 13.61 24.92 21.82l-.43.32c-.23.16-.68.5-.91.66-4.77.7-9.59.14-14.37.24-27.27.17-54.55-.07-81.82.12 2.77-3.31 5.34-6.78 8.02-10.16 1.19-1.58 2.63-3.2 2.53-5.32l.09-.94c23.18-.57 46.39.26 69.56-.39-4.47-.54-8.99-.27-13.48-.29-14.65-.02-29.3.04-43.95 0-4.6.06-9.36-.63-13.78 1.03-4.11-1.48-8.39-2.39-12.52-3.8-4 1.9-6.49 5.68-9.35 8.9-5.73 6.47-11.27 13.11-17.26 19.36-7.34-4.48-13.74-10.27-21.05-14.78-5.64-3.5-11.25-7.8-18.1-8.37-7.84-.66-16.13-.67-23.34 2.93-4.93 2.6-9.57 6.75-10.82 12.4-.51 4.59 1.6 9.28 5.2 12.12 4.3 3.46 8.74 6.76 13.51 9.56-2.49.33-4.98.67-7.48.7-15.01-.1-30.03.03-45.04-.07-10.97-.07-21.96.26-32.92-.5-.02-.68-.07-2.02-.09-2.69.06-.46.17-1.38.22-1.84l1.11.01c24.73-.98 49.5.05 74.23-.7-14.83-.64-29.71-.09-44.56-.27-10.21.17-20.43-.28-30.62.26" style="fill:#e67633;fill-rule:nonzero"/><path d="M256.565 46.073c2.95-1.07 6.26.75 8.98 2.01-9.51 11.81-18.84 23.8-29.09 35-4.74 5.57-10.25 10.44-14.85 16.13-5.38 6-10.67 12.09-16.37 17.8-4.93 5.04-8.97 10.9-14.05 15.81-2.95.69-5.92-1.02-8.73-1.78 1.87-4.44 5.62-7.65 8.63-11.3 8.42-10.2 17.63-19.7 26.19-29.78 6.16-5.89 12.01-12.09 17.21-18.85 7.53-8.19 14.08-17.28 22.08-25.04m-32.14 38.91c2.84.27 5.71.28 8.53-.2-2.84-.29-5.72-.38-8.53.2m-53.01-32.76c8.12-2.65 17.21-3.03 25.25.19 1.37.53 1.99 2 2.96 3.02-2.63 1.18-5.74 1.79-7.78 3.95.09 1.19.23 2.37.41 3.56 4.77.41 8.77-2.77 12.63-5.11 1.55 1.1 4.26 1.55 4.77 3.59-1.91 3.25-6.69 2.87-8.94 5.93 1.17.97 2.2 2.77 4.01 2.4 3.91-.72 6.99-3.85 10.96-4.34 2.21.64 3.82 2.4 5.55 3.84-2.96 1.46-5.95 2.86-9.03 4.04-.45 2.4 1.72 3.53 3.4 4.72 3.25-1.33 5.93-3.75 9.13-5.12l1.21.36c.12.53.34 1.58.46 2.1-3.42 3.14-7.14 5.98-10.08 9.6-4.19 5.1-8.41 10.25-13.63 14.35-3.04-2.15-5.91-4.52-8.95-6.65 2.54-2.57 6.35-3.67 8.74-6.48.57-2.12-1.59-4.16-3.68-3.51-2.8 1.07-5.15 3.06-7.87 4.31-3.22 2.21-6.82-.9-8.81-3.4 3.2-1.75 6.72-2.98 9.59-5.29-.11-2.38-2.97-3.36-4.98-3.45-3.4 1.54-6.27 4.67-10.08 4.99-1.61-.85-4.8-1.9-3.58-4.25 2.4-1.37 5.08-2.2 7.38-3.76-.12-1.95-1.43-4.3-3.73-3.77-3.66.97-6.56 3.7-10.06 5.1-3.03-2.13-5.93-5.21-5.7-9.19.31-5.78 5.69-9.47 10.45-11.73m80.47 18.66q3.99-4.35 7.74-8.91c3.9 1.59 8.1-.09 12.15.1 18.63.07 37.27.03 55.91.07 7.67.07 15.36-.24 23.03.34 2.65.2 5.31-.08 7.94-.47 3.09 5.38 6.67 10.63 8.19 16.74-21.69-.37-43.4-.01-65.1-.13-12.15.08-24.31-.23-36.45.3-3.99-3.4-8.4-6.37-13.41-8.04m-1.95 3.65c5.34 1.36 10.03 4.94 13.77 8.92 2.82 3.66 5.52 8.68 3.67 13.35-1.65 4.66-4.63 8.67-7.56 12.59 3.5 2.89 7.56 5 11.05 7.9 3.61 3 7.64 5.45 11.83 7.56 4.49-2.24 8.97-5.32 14.05-6.01 1.94.94 4.39 2.02 4.94 4.35-1.18.97-2.71 1.36-4.07 1.97-6.24 5.15-14.07 7.8-20.7 12.36-2.88 1.8-5.65 4.37-9.24 4.39-2.51.14-4.45-1.63-6.12-3.23 3.41-2.8 7.49-4.83 10.41-8.19.82-.85.22-2.15-.43-2.88-2.27-2.78-5.51-4.48-8.37-6.56-3.58-2.41-6.94-5.22-10.88-7.01-1.97-.92-3.97.38-5.84.92-10.88 3.96-22.94 3.86-33.89.17.76-1.56 1.68-3.03 2.86-4.31 11.4 2.25 24.17 2.08 34.13-4.6 5.43-3.45 9.39-10 7.78-16.56-2.01-5.37-7.43-8.16-12.46-10.1 1.68-1.69 3.24-3.5 5.07-5.03m16.94 5.98c2.87-.95 5.87-1.44 8.89-1.37 17.34.04 34.67-.02 52.01-.01 13.19-.17 26.42.45 39.59-.33.19 1.18.4 2.37.62 3.57l.36 2.11c-32.77.33-65.55.04-98.33.19a92 92 0 0 0-3.14-4.16" style="fill:#e67633;fill-rule:nonzero"/><path d="M236.775 88.503c2-2.37 4.21-4.55 6.52-6.61 2.98 2.92 7.4 4.53 9.1 8.59 2.24 3.61-.16 8.32-3.35 10.47-6.6 1.29-13.34.78-20 1.39 4.91.46 9.8 1.13 14.73 1.38l-.15 1.17c-7.19 3.67-15.99 4.95-23.75 2.37 5.43-6.42 11.4-12.39 16.9-18.76" style="fill:#e67633;fill-rule:nonzero"/><path d="M89.015 85.133c29.09-.09 58.19.27 87.28-.23 3.18 3.33 7.48 5.09 11.37 7.4-3.51 3.24-10.19 4.11-10.56 9.8 5.24 2.54 9.77 6.25 14.37 9.76-.01.29-.02.87-.03 1.15-4.94 6.3-10.64 12.01-15.15 18.65 4.92 3.2 10.82 4.59 16.58 5.32 21.41.61 42.87-.35 64.27.48l.42 1.09c1.13 4.52 5.86 7.32 10.16 8.14 4.3-.68 7.81-3.69 11.5-5.83 5.48-3.73 11.52-6.53 17.12-10.05 18.7.84 37.44-.1 56.15.53-1.83 1.99-3.79 3.83-5.83 5.59-12.31-.72-24.64-.12-36.96-.32-7.16.2-14.34-.34-21.48.32 17.14.47 34.31 0 51.46.27 1.96.09 3.93.32 5.89.58-10.46 7.34-21.47 13.99-33.16 19.17-9.09 3.42-18.22 6.91-27.75 8.9-10.88 2.38-21.75 5.04-32.88 5.96-12.69.98-25.41.44-38.11.45-12.11-.06-24.03-2.41-35.89-4.59-8.68-2.4-17.43-4.62-26-7.38-7.74-3.95-16.28-6.37-23.38-11.52-5.42-3.1-10.16-7.19-15.07-11-5.56-4.37-9.93-10-14.51-15.33-4.32-5.19-7.44-11.45-8.54-18.13-.18-1.76-1.18-3.25-1.7-4.9-.29-2.61-.17-5.23-.18-7.84 23.79-.21 47.57-.37 71.36-.36 7.5-.26 15.02.37 22.5-.31-18.16-.72-36.36-.03-54.54-.26-13.1-.23-26.23.52-39.3-.65.2-1.62.4-3.24.59-4.86m18.43 45.88c11.75.45 23.51.08 35.27.18 11.06-.19 22.15.29 33.21-.28-19.37-.64-38.78-.04-58.17-.36-3.44.03-6.94-.39-10.31.46m7.02 5.81c3.71.55 7.47.23 11.21.31 15.04-.02 30.07 0 45.11 0 4.7-.04 9.41.31 14.08-.29-8.02-.46-16.06-.1-24.09-.22-15.44.16-30.89-.35-46.31.2m40.87 22.95c6.64 2.37 13.58-.26 20.38.4 41.06-.19 82.14.29 123.2-.25-2.71-.24-5.43-.28-8.14-.27-45.14 0-90.3-.19-135.44.12m115.04-74.61c32.86-.08 65.72.03 98.58-.01l.27 5.44c-32.33.11-64.67-.23-96.99.14-.53-1.89-1.17-3.74-1.86-5.57" style="fill:#e67633;fill-rule:nonzero"/><path d="M272.335 91.263c32.29-.14 64.58-.02 96.87.03.03 6.83-.44 13.91-3.36 20.19-3.09 6.66-7.49 12.6-12.22 18.18-1.19.65-2.49 1.1-3.85 1.02-12.02-.11-24.04-.09-36.06-.05-5.34-.01-10.75.51-16.01-.69 2.65-1.93 5.66-3.36 8.14-5.52.5-1.42.39-2.97.55-4.45-2.68-1.92-5.35-4.1-8.63-4.85-5.81-.33-10.5 4.09-16.08 4.8-6.24-2.31-10.77-7.64-16.64-10.72 4.44-4.88 8.72-10.92 7.29-17.94m-89.81 9.08c2.56-1.58 6.04-3.8 8.99-1.83 2.47 1.49 5.04 2.98 7.05 5.1-.35 2.28-2.37 3.81-3.66 5.57-4.21-2.83-7.96-6.3-12.38-8.84" style="fill:#e67633;fill-rule:nonzero"/><path d="M87.365 111.143c.38-.25 1.13-.75 1.5-1 1.66 4.52 3.09 9.25 6.03 13.14 10.44 14.02 24.42 25.56 40.64 32.23 11.39 6.27 23.98 9.85 36.3 13.79 13.2 4.39 27.19 5.26 40.95 6.51 21.79 1.74 43.73-.38 65.06-4.97 11.83-2.6 23.71-5.47 34.75-10.6 14.51-6.55 29.15-13.97 40.29-25.63 6.54-6.61 13.14-13.69 16.45-22.53.07 8.44-.42 16.88.08 25.32-.26 23-.36 46.01.65 68.98-.4 8.33.89 16.72-.6 24.98-.48 5.76-3.65 10.76-6.12 15.84-3.25 6.94-8.95 12.27-14.45 17.44-13.81 11.17-29.52 20.21-46.5 25.6-6.46 2.61-13.4 3.6-20.06 5.59-16.59 3.72-33.57 5.95-50.59 6.09-20.34.36-40.56-2.79-60.41-6.95-7.22-1.27-13.75-4.74-20.85-6.44-5.71-1.45-10.63-4.78-15.98-7.09-1.32-.59-2.86-1.31-2.86-3 .74-26.56.01-53.15.34-79.71-4.55.27-9.11.42-13.66.15.36 24.24-.17 48.48.01 72.72-8.82-6.28-17.37-13.48-22.71-23.07-3.39-6.29-7.02-12.83-7.24-20.15-.83-32.33.34-64.65-.22-96.98.09-6.77-1.28-13.48-.8-20.26" style="fill:#e67633;fill-rule:nonzero"/><path d="M209.315 119.053c13.62 2.87 28.09 3.31 41.45-1.02 4.45.93 7.94 4.14 11.66 6.57 1.8 1.42 4.17 2.5 5.08 4.74-3.13 2.84-6.92 4.79-10.24 7.4-15.18-.27-30.37-.09-45.56-.14-5.98-.1-12.02.4-17.94-.67 1.37-1.67 2.76-3.31 4.16-4.94 22.07.33 44.15.3 66.21-.07-16.12-.68-32.27-.07-48.39-.32-5.66-.08-11.35.39-16.95-.62 3.29-3.84 6.74-7.56 10.52-10.93" style="fill:#e67633;fill-rule:nonzero"/></g><path id="_-bebfbeff" d="M163.065 22.073c.8-.56 1.66-.93 2.58-1.12 4.97.88 10.02.82 15.05.77 37.19-.35 74.39.25 111.57-.2 2.55-.1 5 .76 7.39 1.54-34.93-1.47-69.93-.75-104.89-.93-10.56-.13-21.2 1.65-31.7-.06m142.49 3.59c2.41.39 4.71 1.24 6.89 2.34-1.54.44-3.13.76-4.73.58-7.29-.76-14.62-.35-21.93-.45-33.37.07-66.75-.04-100.12.01-12.78.19-25.54-.49-38.32-.64.66-.66 1.44-1.02 2.34-1.07 8.69-.04 17.34.93 26.01 1.24 44.18-.17 88.36.18 132.54-.23-.67-.45-2.01-1.34-2.68-1.78m-179.93 12.37.23.04c2.27.34 4.57.61 6.88.6 66.62-.22 133.24.2 199.86-.21h.54l-.57.1c-1.94.34-3.89.59-5.85.62-62.33-.11-124.66-.03-187-.05-5.08 0-10.18.99-15.23.04zm143.32 7.62c4.42-1.66 9.18-.97 13.78-1.03 14.65.04 29.3-.02 43.95 0 4.49.02 9.01-.25 13.48.29-23.17.65-46.38-.18-69.56.39l-.09.94c-.39-.14-1.17-.44-1.56-.59m88.11 15.05c.57.38 1.1.81 1.6 1.31-2.63.39-5.29.67-7.94.47-7.67-.58-15.36-.27-23.03-.34-18.64-.04-37.28 0-55.91-.07-4.05-.19-8.25 1.49-12.15-.1l-.43-.16.76-.09c27.27-.19 54.55.05 81.82-.12 4.78-.1 9.6.46 14.37-.24.23-.16.68-.5.91-.66m-266.99 18.17c10.19-.54 20.41-.09 30.62-.26 14.85.18 29.73-.37 44.56.27-24.73.75-49.5-.28-74.23.7zm175.23.05c12.14-.53 24.3-.22 36.45-.3 21.7.12 43.41-.24 65.1.13l.52.05c-13.17.78-26.4.16-39.59.33-17.34-.01-34.67.05-52.01.01-3.02-.07-6.02.42-8.89 1.37-.51-.55-1.05-1.08-1.58-1.59m-176.28 6.21c.19-1.25.4-2.49.67-3.72.02.67.07 2.01.09 2.69 10.96.76 21.95.43 32.92.5 15.01.1 30.03-.03 45.04.07 2.5-.03 4.99-.37 7.48-.7.27.23.81.7 1.08.93-29.09.5-58.19.14-87.28.23m278.97-2.76c.32.92.64 1.85.97 2.78-32.86.04-65.72-.07-98.58.01-.09-.12-.27-.37-.36-.49 32.78-.15 65.56.14 98.33-.19zm-143.56 2.61c2.81-.58 5.69-.49 8.53-.2-2.82.48-5.69.47-8.53.2m-136 5.01c13.07 1.17 26.2.42 39.3.65 18.18.23 36.38-.46 54.54.26-7.48.68-15 .05-22.5.31-23.79-.01-47.57.15-71.36.36zm183.81.74c32.32-.37 64.66-.03 96.99-.14l-.02.7c-32.29-.05-64.58-.17-96.87-.03zm-43.19 11.61c6.66-.61 13.4-.1 20-1.39-1.24 2.11-3.36 3.33-5.47 4.41l.05-.47.15-1.17c-4.93-.25-9.82-.92-14.73-1.38m-31.12 28.65c.28-.34.57-.68.87-1.01 5.6 1.01 11.29.54 16.95.62 16.12.25 32.27-.36 48.39.32-22.06.37-44.14.4-66.21.07m99.72-1 .06-.05c5.26 1.2 10.67.68 16.01.69 12.02-.04 24.04-.06 36.06.05 1.36.08 2.66-.37 3.85-1.02-.21.42-.65 1.26-.87 1.69l-.26-.01c-18.71-.63-37.45.31-56.15-.53.33-.21.97-.62 1.3-.82m-190.2 1.02c3.37-.85 6.87-.43 10.31-.46 19.39.32 38.8-.28 58.17.36-11.06.57-22.15.09-33.21.28-11.76-.1-23.52.27-35.27-.18m85.43 5.97c.29-.35.58-.71.89-1.05 5.92 1.07 11.96.57 17.94.67 15.19.05 30.38-.13 45.56.14.08.45.23 1.35.3 1.81l-.42-1.09c-21.4-.83-42.86.13-64.27-.48m-78.41-.16c15.42-.55 30.87-.04 46.31-.2 8.03.12 16.07-.24 24.09.22-4.67.6-9.38.25-14.08.29-15.04 0-30.07-.02-45.11 0-3.74-.08-7.5.24-11.21-.31m173.76.11c7.14-.66 14.32-.12 21.48-.32 12.32.2 24.65-.4 36.96.32-.22.22-.67.66-.89.88l-.2-.03c-1.96-.26-3.93-.49-5.89-.58-17.15-.27-34.32.2-51.46-.27m-132.89 22.84c45.14-.31 90.3-.12 135.44-.12 2.71-.01 5.43.03 8.14.27-41.06.54-82.14.06-123.2.25-6.8-.66-13.74 1.97-20.38-.4" style="fill:#bebfbe;fill-rule:nonzero"/></g></svg>