<svg xmlns="http://www.w3.org/2000/svg" xml:space="preserve" style="fill-rule:evenodd;clip-rule:evenodd;stroke-linejoin:round;stroke-miterlimit:2" viewBox="0 0 498 608"><path id="Mesa-de-trabajo1" d="M0 0h497.409v607.834H0z" style="fill:none"/><g id="_-399facff"><path d="M186.228 16.282c38.3-10.69 79.24-10.74 117.91-1.9 17.72 4.42 35.27 10.43 50.76 20.29 15.74 9.94 30.33 23.78 35.92 42.03 15.89 7.19 31.26 16.06 43.92 28.21 12.07 11.42 22.62 24.88 28.46 40.59 5.08 13.59 6.52 28.65 3.21 42.83-1.46 6.63-4.24 12.85-6.99 19.02 6.02-1.87 11.96-3.99 17.93-6.02 3.48-1.08 6.88-3.4 10.68-2.65 2.44 1.25 2.06 5.63-.88 6.08-10.95 3.53-21.73 7.71-32.92 10.4-3.28.61-4.5-3.11-5.27-5.54-2.4-7.79-5.71-15.32-7.52-23.26-.66-3.5 5.4-3.83 5.94-.71 2.41 5.83 3.82 12.04 6.57 17.75 6.99-12.75 9.83-27.97 7.18-42.32-2.84-15.03-10.54-28.77-20.15-40.51-12.02-13.9-26.76-25.53-43.33-33.51-1.7-1.01-3.85-1.63-4.87-3.44.86 4.13.74 8.38.84 12.59-.09 43.37.16 86.74.05 130.12.24 7.01-2.73 13.49-5.45 19.77 26.99 15.01 54.32 29.39 81.61 43.84 3.71 2.26 8.52 3.87 10.18 8.28 2.47 5.34 2.12 11.39 2.34 17.13.33 28.33-.81 56.65-.78 84.97.05 5.65.23 12.07-3.88 16.51-4.86 4.92-10.91 8.42-16.24 12.78-9.46 7.47-19.46 14.25-28.6 22.12-.44 13.21-.07 26.43-.98 39.62-.28 2.02.43 4.65-1.6 5.96-4.56 3.75-9.36 7.57-15.04 9.43-3.73-1.43-7.03-3.73-10.48-5.7-1.72-1.24-4.16-2.35-4.41-4.71-.68-6.3-.36-12.65-.65-18.97-12.42 8.68-24.08 18.45-36.36 27.36-15.1 11.88-30.58 23.27-45.81 34.98-.28 12.55.53 25.13-.56 37.66-.38 2.56.39 5.84-2.01 7.62-4.17 3.6-8.57 7.27-13.78 9.22-3.66.19-6.71-2.62-9.94-4.02-2.38-1.55-5.99-2.67-6.24-5.98-.47-6.57-.38-13.18-.56-19.76-5.6 2.95-10.76 7.21-17.16 8.28-7.88 1.1-14.93-3.44-21.45-7.18-.27 7.64-.57 15.28-1.36 22.89-3.46 3.1-7.38 5.65-11.38 8.01-3.05 2.17-6.31-.58-9.12-1.82-3.45-2.15-8.03-3.5-9.84-7.45-1.32-12.94-1.29-25.98-1.53-38.98-10.24-6.2-20.87-11.74-31.29-17.63-20.48-11.11-40.67-22.75-61.12-33.92-.64 7.14-1.08 14.31-1.94 21.43-1.77 2.62-4.98 3.86-7.49 5.71-2.56 1.46-5.33 4.3-8.47 2.68-4.52-2.08-9.1-4.28-12.99-7.41-2.18-3.07-1.12-7.13-1.48-10.65-.49-10.22-.97-20.43-1.24-30.65-15.6-9.41-31.85-17.83-47.54-27.13-5.17-2.79-8.35-8.36-8.41-14.19-.79-33.67-1.21-67.36-2.54-101 .19-5.89.48-12.75 5.52-16.73 6-4.87 12.32-9.35 18.6-13.85-11.23-13.1-20.58-28.89-21.66-46.49-1.69-13.04 2.01-26.01 7.55-37.7-5.68 1.87-11.39 3.61-17.01 5.65-3.31 1.08-6.56 2.52-10.07 2.81-2.76-.79-3.04-5.38.1-5.95 10.59-3.61 21.27-7 31.75-10.93 2.99-1.05 4.69 2.36 5.52 4.65 2.81 7.64 6.24 15.02 9.33 22.54-.95 1.05-1.76 2.68-3.43 2.55-2.24.4-3.26-2.09-3.96-3.73-1.9-4.95-4.36-9.65-6.36-14.55-5.2 10.39-8.65 22.03-7.26 33.74 1.93 16.23 9.39 31.93 21.21 43.28 14.58-10.84 29.71-20.91 44.54-31.39 5.6-3.81 10.94-8.02 16.73-11.55-7.51-9.16-13.98-20.26-13.71-32.48-.17-44.66-.01-89.32.02-133.98-.29-13.47 5.54-26.45 14.33-36.45 5.83-6.48 12.08-12.73 19.42-17.51 14.6-9.11 30.23-16.86 46.99-21.08m24.79-1.64-2.01.12-.72 1.08c-1.66-.49-3.38-.1-5.02.17-10.32 2.12-20.76 4.39-30.37 8.83a26.5 26.5 0 0 0-7.09 2.72c-2.59.38-4.81 1.98-7.13 3.1-1.58.23-2.87 1.3-4.21 2.06-2.72.79-5.06 2.68-7.48 4.14-1.55.56-2.74 1.8-4.04 2.76-1.26.27-2.11 1.47-3.15 2.14-1.54.57-2.63 1.88-3.85 2.9-1.52.76-2.72 2-4.01 3.07l-.32-.02c-.49.52-1.45 1.56-1.93 2.08a80 80 0 0 0-3.79 3.8c-.97 1.03-1.94 2.06-2.88 3.1-2.47 2.77-4.25 6.18-6.57 9.12l-.43-.04-.16 1.04c-.7 1.29-1.39 2.59-2.06 3.89l-1.08 2.97-.37-.01c-.16.47-.46 1.41-.62 1.89-.38 1.37-.76 2.74-1.12 4.12h-.21c-.3 1.38-.6 2.75-.91 4.12l.93.32-1.01-.01c.01 1.75.05 3.51.15 5.26l-.86.5c.22 1.43.41 2.87.59 4.31.06 3.01.4 6.02 1.27 8.91.25.99.49 1.99.74 2.98.23.67.67 1.99.9 2.65.64 1.49 1.31 2.96 2.02 4.43-.19.18-.59.53-.78.7l.99-.13c.77 1.37 1.56 2.76 2.39 4.11a99 99 0 0 1 1.84 3.2c.58.82 1.25 1.52 2 2.1q.87 1.425 1.77 2.85l.32-.02c4.89 5.73 10.49 10.93 16.82 15.05.72.69 1.48 1.33 2.29 1.92 15.38 10.17 32.54 17.63 50.51 21.82 1.76.54 3.51 1.34 5.4 1.31 19.38 4.98 39.57 6.08 59.5 5.19 15.66-.14 31.28-2.17 46.42-6.2.65-.2 1.95-.62 2.61-.82 3.02-.09 5.89-1.27 8.78-2.09 10.8-3.6 21.6-7.44 31.47-13.19a12.7 12.7 0 0 0 2.87-1.9l.19.06c2.32-1.4 4.66-2.78 6.97-4.21q1.32-.72 2.46-1.8c4.12-2.72 7.95-5.86 11.58-9.2l.26.01c.79-.93 1.59-1.86 2.39-2.78.86-1.01 1.7-2.03 2.56-3.04l.32.03c.75-1.05 1.51-2.09 2.29-3.12h.39c.53-.99 1.06-1.97 1.6-2.95l.51.02c.49-.97.99-1.94 1.51-2.9.92-1.47 1.79-2.96 2.67-4.45l.77-.07-.82-.38c.54-1.05 1.07-2.1 1.61-3.14.61-1.59 1.16-3.19 1.57-4.83.15-.36.44-1.08.58-1.44.08-.7.23-2.11.31-2.82.17-1.08.34-2.16.52-3.23v-2.76c.09-1.35.21-2.69.38-4.03l-.61-.43c.1-1.52.11-3.04.01-4.55l.04-1.35-.62-.01c-.39-1.66-.76-3.31-1.12-4.97l-.49.11-.44-2.17c-.46-1.32-.86-2.63-1.25-3.95l-.88-1.44c-.75-1.6-1.58-3.15-2.42-4.68l.98-.17c-.3-.09-.9-.29-1.2-.38-2.17-3.61-4.69-6.99-7.48-10.13l-2.05-2.26c-1.04-1.06-2.07-2.11-3.1-3.15q-1.395-1.305-2.76-2.61c-3.59-3.01-7.34-5.8-11.2-8.43-1.33-.89-2.65-1.77-3.96-2.66-1.98-1.1-3.83-2.54-6.02-3.16-1.58-1.08-3.12-2.41-5.04-2.77-1.6-.84-3.17-1.78-4.89-2.34-2.27-1.15-4.61-2.31-7.15-2.68-10.23-4.48-21.22-6.92-32.05-9.35-3.26-.71-6.52-1.53-9.85-1.73-4.01-.92-8.1-1.41-12.19-1.79-21.04-2.02-42.43-2.1-63.28 1.68m-101.98 118.7c-.08 26.32.13 52.64-.03 78.96.21 8.48-.68 17.27 2.35 25.39 3.65 9.37 9.8 17.6 16.98 24.57 11.71 10.91 26.2 18.17 40.83 24.33 40.02 15.04 84.28 17.55 126.14 9.62 17.28-3.46 34.54-8.21 50.03-16.83 15.72-8.34 31.38-19.12 39.58-35.46l.34.01c2.31-4.92 4.85-10.04 4.79-15.61.22-22.98-.28-45.96-.19-68.94-.02-16.38.36-32.77-.08-49.14-.38.92-1.01 1.8-1.01 2.83-4.34 8.47-9.93 16.39-17.05 22.75-16.31 14.76-36.78 24-57.64 30.36-19.46 5.62-39.62 8.78-59.86 9.27-23.85.3-47.94-2.07-70.74-9.37-17.05-5.64-34.03-12.61-48.31-23.72-8.35-5.95-15.3-13.65-21.41-21.83-1.66-4.09-4.03-7.95-5.14-12.28-.62 8.35.39 16.73.42 25.09m277.01 116.35c3.39 5.69 7.09 11.31 9.24 17.63 1.41 5.86-.08 12.01.96 17.9 5.21 9.94 11.85 19.02 17.42 28.74 1.21 2.16 2.29 5.19.53 7.36-2.11 2.34-4.89 3.93-7.4 5.78-31.55 22.91-63.14 45.8-95.24 67.93-2.57 2.32-6.04.77-8.94.11-10.24-3.08-20.28-6.78-30.3-10.5-3.1-1.25-6.76-1.9-9.73.05-13.54 7.41-27.06 14.88-40.76 21.99-3.11 1.92-6.44-.32-9.29-1.63-34.74-18.83-69.15-38.28-103.94-57-4.39-2.74-10.54-5.08-10.92-11.07-3.89-1.78-7.56-4.04-11.55-5.54-8.76 4.54-20.15 5.37-28.62-.3-3.64-2.22-6.24-6.34-5.82-10.69-.17-4.4 3.47-7.38 6.35-10.12-.93-.71-1.86-1.43-2.78-2.13-3.74 2.25-7.29 4.81-10.69 7.54-3.12 2.53-6.72 4.47-9.57 7.32-2.05 1.85-2.2 5.68.32 7.21 5.15 4.06 11.19 6.77 16.87 10 7.79 4.12 15.58 8.23 23.16 12.71 54.73 29.03 108.27 60.22 162.99 89.26 6.68 3.72 13.36 7.56 20.56 10.18 6.27 2.18 12.43-1.41 17.37-4.95 41.48-29.81 82.56-60.17 123.89-90.18 12.79-8.82 24.84-18.65 37.64-27.47 8.87-6.41 17.48-13.16 26.48-19.4 3.79-2.87 8.08-5.33 11.01-9.16.11-.51.32-1.53.43-2.04-3.59-4.13-8.97-6.01-13.66-8.57-25.39-13.55-50.91-26.88-76.01-40.96m-7.36 9.62c3.3 7.59 9.82 13.23 13.15 20.77.15-1.92.38-3.84.5-5.75.78-7.98-4.56-14.62-8.26-21.18-2.33 1.54-3.75 3.98-5.39 6.16m-317.71 44.21c1.16 2.3 3.3 4.98 6.23 4.19 6.97-.62 14.7-.51 20.55 3.86 4.37 3.33 5.21 9.61 3.12 14.46 3.04 1.61 6.19 4.31 9.52 4.62 3.76-5.35 6.84-11.17 10.22-16.77 1.92-8.87-1.72-18.85 2.95-27.2 3.47-7.63 7.44-15.16 13.2-21.33a96 96 0 0 0-4.59-4.19c-20.69 13.69-40.81 28.22-61.2 42.36m290.88-23.5c-7.05 3.9-14.46 7.1-21.9 10.18-4.38 1.68-7.65 5.23-11.85 7.23-11.07 5.99-23.78 7.22-35.67 10.79a128 128 0 0 1-38.16 5.35c-8.35-.31-16.64-1.76-25.01-1.73-14.82-.26-30.01-4.39-41.59-13.93-3.18-2.47-5.18-6.42-9.21-7.71-11.63-4.9-23.1-10.34-33.47-17.61.27 2.52-1.74 6.29 1.14 7.78 15.46 9.06 31.48 17.1 47.18 25.74 19.39 10.34 38.73 20.78 58.16 31.05 2.17.95 4.27 2.67 6.77 2.41 7.25-1.51 13.28-7.37 21-6.82 3.66-.13 7.17 1.13 10.78 1.38 3.92-2.03 7.37-4.84 11.04-7.29 17.88-12.25 35.43-24.98 53.13-37.49 10.82-8.26 22.72-15.1 33.03-24.02-.44-.94-.87-1.88-1.3-2.81-7.55 6.45-15.41 12.6-24.07 17.5m-230.33-.59c-2.05 4.18-5.02 7.98-6.16 12.54-.51 4.68-.2 9.4-.23 14.1.91-2.2 2.09-4.27 3.46-6.22 3.83-5.36 6.86-11.24 10.38-16.8 2.81-3.96 2.13-9.03 3.03-13.55-.86-.5-1.77-.85-2.72-1.06-3.68 2.73-5.53 7.12-7.76 10.99m243.16.34c-13.4 9.65-27.11 18.86-40.4 28.66-13.74 9.91-27.95 19.18-41.53 29.32 8.57 18.1 17.6 35.98 26.47 53.92 8.32-5.06 15.89-11.27 23.92-16.78 15.92-10.89 31.36-22.46 47.09-33.61 9.62-7.13 19.6-13.76 28.98-21.2.97-.8 2.45-1.87 1.3-3.2-7.94-13.28-16.22-26.37-24.4-39.5-1.86-2.81-3.93-5.45-5.92-8.15-5.45 3.07-10.33 7.04-15.51 10.54m-260.53 52.76c5.28 3.09 11.25 4.74 17.07 6.51 20.97 6.84 43.29 9.33 65.28 8.02-5.16-4.28-11.16-7.4-16.31-11.66-1.46-1.02-2.33-3.53-.68-4.76 1.86-2.09 4.58-.16 6.36 1.04 5.42 3.94 10.8 7.94 16.38 11.65 2.15 1.6 5.15 3.05 5.46 6.05.63 3.5-2.94 5.42-5.27 7.24-6.86 4.55-13 10.17-20.16 14.25-3.08 1.42-5.46-3.42-2.82-5.22 5.07-4.34 11.02-7.56 16.05-11.99-9.1-.37-18.23.49-27.3-.57-19.27-1.66-38.19-6.57-56-14.06 3.29 3.47 8.13 4.76 12.14 7.2 34.51 18.93 68.9 38.09 103.57 56.71 9.41-19.57 18.07-39.52 26.89-59.37-37.43-19.41-74.26-39.94-111.41-59.87-10.56 15.78-19.24 32.71-29.25 48.83m74.36-38.66c10.59 8.71 23.99 14.03 37.75 14.22 5.98-.04 11.89.91 17.84 1.33-.21-1.84-.4-3.66-.57-5.49-18.55-1.91-37.34-3.82-55.02-10.06m128.78 2.51 1.43.97c-9.97 1.89-19.85 4.54-30.04 4.86.04 1.15.08 2.29.14 3.46 7.07-2.18 14.3-3.8 21.46-5.66 2.69-.7 5.28-1.91 8.11-1.95 1.2-.43 2.41-.84 3.59-1.34-1.57-.21-3.14-.25-4.69-.34m-70.49 7.62c.23 1.96.47 3.93.71 5.9 12.62.66 25.24-.88 37.56-3.5l.04-3.46c-12.72 1.34-25.54 1.44-38.31 1.06m235.04 6.11c-21.32 15.66-42.72 31.2-64.09 46.78-15.76 12.05-32.27 23.06-48.02 35.12-9.14 6.89-18.64 13.29-27.71 20.26-7.33 5.72-15.16 10.74-22.6 16.31-7.36 5.34-14.59 10.88-22.11 15.99-6.78 4.58-13.12 9.88-20.53 13.45-.05 4.71-.11 9.42.08 14.13 1.15-.55 2.31-1.08 3.4-1.74 15.3-10.63 30.19-21.84 45.44-32.54 52.87-39.23 106.66-77.2 159.55-116.39 1.09-.96 2.44-1.79 3.05-3.16.09-3.91-.16-7.83-.7-11.69-2.32.06-3.88 2.36-5.76 3.48m-402.81 1.45c5.39 5.09 11.88 8.73 18.27 12.37.92-2.79.73-6.09-1.52-8.21-4.51-4.06-10.99-4.34-16.75-4.16m-13.36 8.66c-.63 3.84 2.49 6.99 5.63 8.61 6.54 2.96 14.18 2.43 20.79-.07-7.4-4.47-14.36-9.63-20.82-15.36-2.48 1.6-5.19 3.68-5.6 6.82m329.76 71.68c-16.72 12.53-33.91 24.41-50.51 37.09-14.45 10.3-28.61 20.98-43.13 31.17-8.19 5.7-15.83 12.25-24.64 17.03-.1 30.38.16 60.78.45 91.17 4.95-1.43 9.26-4.36 13.6-7.06 7.28-4.99 14.51-10.06 21.34-15.66 29.78-22.11 59.04-44.9 88.54-67.39 25.52-18.73 49.85-39.02 75.44-57.64 3.3-2.65 7.01-5.02 9.36-8.64 1.62-2.21 1.35-5.09 1.52-7.67.34-26.64.7-53.29 1.13-79.93-30.98 22.57-61.85 45.32-93.1 67.53m-352.93-58.01c-.08 3.9-.37 7.83.21 11.7.93 1.82 2.94 2.66 4.57 3.73 36.68 19.38 72.76 39.89 109.04 60 33.62 18.73 67.37 37.21 100.96 56 5.04 2.48 9.71 5.88 15.24 7.22-.03-4.75.07-9.51-.53-14.22-10.36-3.86-20.01-9.3-29.81-14.36-14.18-8.04-28.75-15.38-42.9-23.49-34.4-18.99-68.61-38.31-103.21-56.92-17.81-9.98-36.1-19.09-53.57-29.66m218.89 9.03c-.89.52-2.11.78-2.56 1.81-8.3 19-16.88 37.89-25.63 56.69 7.16-3.34 13.89-7.54 20.86-11.25 6.78-3.85 13.96-7.08 20.32-11.59.71-5.04.28-10.16.44-15.23-.18-8.83.28-17.66.06-26.48-4.59 1.8-8.99 4.03-13.49 6.05m17.15-6.12c.08 13.93.05 27.87.28 41.81 11.35 5.42 23.55 8.76 35.48 12.64-7.85-16.95-16.72-33.39-24.71-50.27-1.64-4.5-7.22-3.81-11.05-4.18m-235.7 14.93c.53 19.87.35 39.76 1.16 59.63.04 1.91-.57 3.8-.42 5.73.34-.77.63-1.54.89-2.32-.27 7.49-.01 15.01.31 22.5.54 7.09 7.67 10.36 13.09 13.43 29.1 16.64 58.5 32.75 87.63 49.35 31.21 17.57 62.45 35.07 94.03 51.96 9.35 5.1 18.5 10.62 28.27 14.89 1.67.78 3.48 1.19 5.3 1.54-.07-30.19.15-60.38-.17-90.56-5.8-1.85-10.97-5.09-16.26-8-37.41-20.82-74.9-41.5-112.28-62.37-33.78-18.72-67.27-38-101.55-55.78m385.12 111.35c-1.37 1.01-.93 2.84-1.05 4.31.3 11.33-.2 22.68.54 34 2.97-2.04 6.24-3.65 8.98-6.01 2.43-1.9 1.29-5.36 1.59-8 .65-10.9.66-21.83.58-32.74-3.44 2.95-7.17 5.54-10.64 8.44m-14.11 10.67c-.76 5.81.06 11.71-.03 17.55.23 1.61-.46 3.95 1.38 4.84 2.56 1.81 5.29 3.35 7.85 5.16-.19-11.37.23-22.74-.11-34.1-3.11 2.06-6.21 4.18-9.09 6.55m-312.95 6.32c-.37 4.43.3 8.86.42 13.29.12 7.58.17 15.2.98 22.74 3.01 2.65 6.8 4.2 10.32 6.08.5-10.61.09-21.25.13-31.87-.16-1.3.17-2.75-.47-3.93-3.65-2.34-7.52-4.34-11.38-6.31m15.68 8.38c.1 11.13.34 22.26.2 33.39 2.69-1.74 5.31-3.57 7.89-5.47.46-7.4 1.26-14.77 1.59-22.17-3.12-2.1-6.42-3.9-9.68-5.75m195.66 62.9c-.5 12.65.4 25.33.13 38 3.48-2.39 7.26-4.48 10.18-7.55.84-2.01.58-4.3.76-6.42.14-10.74.14-21.47-.03-32.2-3.77 2.59-7.61 5.14-11.04 8.17m-85.48-.78c.23 6.94.78 13.87.64 20.82.25 4.95-.25 10.01.74 14.9 3.16 2.62 6.95 4.34 10.63 6.1-.05-11.88.31-23.79-.12-35.65-3.73-2.4-7.57-5-11.89-6.17m71.68 11.05c.18 7.23-.1 14.54.72 21.72 2.65 2.44 6.05 3.87 9.07 5.8-.51-11.63.91-23.28-.28-34.88-3.23 2.38-6.42 4.8-9.51 7.36m-55.6-2.9c-.18 11.08.17 22.16.14 33.25 2.63-1.89 5.21-3.85 7.88-5.69-.05-7.54 1.12-15.01 1.03-22.55-2.91-1.86-5.88-3.64-9.05-5.01" style="fill:#399fac;fill-rule:nonzero"/><path d="M428.598 285.872c5.71-1.8 11.91-1.27 17.55.51 4.15 1.37 8.24 3.94 10.02 8.11 2 4.04.61 9.16-2.7 12.09-4.85 4.44-11.8 5.61-18.16 5.2-5.55-.41-11.4-2-15.4-6.08-2.49-2.45-3.59-6.2-2.66-9.59.89-5.6 6.54-8.48 11.35-10.24m.19 4.27c-3.48 1.23-7.02 3.63-7.97 7.4-.32 5.23 4.91 8.58 9.42 9.65 6.78 1.44 14.71 1.03 20.28-3.53 2.8-2.2 3.39-6.83.66-9.31-5.63-5.92-14.96-6.26-22.39-4.21m-169.63 120.15c7.04-.91 14.97-.15 20.62 4.54 5.21 4.16 5.68 13.45.05 17.47-7.45 5.93-18.14 6.61-26.82 3.18-2.95-1.34-6.2-2.79-7.86-5.74-1.87-3.48-2.17-8.07.1-11.44 2.97-4.79 8.63-6.95 13.91-8.01m.8 4.27c-4.63.53-9.84 2.47-11.84 7.02-1.19 3.01.52 6.22 2.83 8.14 4.27 3.43 10.05 3.63 15.29 3.52 5.06-.05 10.6-2.24 12.98-6.98 1.7-3.21-.26-7.09-3.05-8.95-4.72-3.18-10.74-3.42-16.21-2.75" style="fill:#399fac;fill-rule:nonzero"/></g><g id="_-e8732eff"><path d="M211.018 14.642c20.85-3.78 42.24-3.7 63.28-1.68 4.09.38 8.18.87 12.19 1.79-10.75.44-21.5-.16-32.25.01-14.41-.15-28.82.35-43.22-.12m-7.75 1.37c1.64-.27 3.36-.66 5.02-.17 5.45 1.89 11.27 1.06 16.92 1.14 23.71-.43 47.44.5 71.13-.5 10.83 2.43 21.82 4.87 32.05 9.35-43.71-.25-87.42.2-131.13-.1-8.16.59-16.23-.94-24.36-.89 9.61-4.44 20.05-6.71 30.37-8.83m-44.59 14.65c2.32-1.12 4.54-2.72 7.13-3.1 20.13.56 40.27.18 60.4.34 30.35-.04 60.7.06 91.05-.1 6.1.28 12.16 1.46 18.28.71 1.72.56 3.29 1.5 4.89 2.34-50.08.4-100.16.07-150.24.14-10.5-.18-21.02.3-31.51-.33m-11.69 6.2c2.42-1.46 4.76-3.35 7.48-4.14 2.23.51 4.46 1.11 6.78 1.09 61.4-.2 122.81.16 184.22-.19 2.19.62 4.04 2.06 6.02 3.16-22.08.42-44.17-.03-66.25.12-46.08.15-92.17-.02-138.25-.04m-7.19 4.9c1.04-.67 1.89-1.87 3.15-2.14 42.41.09 84.82.06 127.23.13 28.42-.3 56.85.38 85.27-.31 3.86 2.63 7.61 5.42 11.2 8.43-45.79.32-91.59.02-137.38.16-32.44-.16-64.9.22-97.33-.3 1.29-1.07 2.49-2.31 4.01-3.07 52.76.36 105.52.17 158.28.17 21.97-.02 43.93.19 65.89-.09-1.2-2.99-5.38-1.37-7.93-1.86-55.99-.17-111.99.02-167.98-.11-6.66.28-13.25-.97-19.9-.78-8.17.05-16.35.17-24.51-.23m-13.9 11.83a80 80 0 0 1 3.79-3.8c1.49.4 2.99.87 4.55 1.01 52.32-.12 104.65.11 156.98.03 26.06-.09 52.14.19 78.19-.35 1.03 1.04 2.06 2.09 3.1 3.15-15.42.69-30.88.15-46.32.27-57.63.03-115.27-.03-172.91-.03-9.12-.04-18.27.27-27.38-.28m233.35 3.09c5.11-.1 10.32.67 15.31-.79 2.79 3.14 5.31 6.52 7.48 10.13-8.24.81-16.52.49-24.78.55-75.01.09-150.03.04-225.04.02-5.27.17-10.54-.21-15.77-.78 2.32-2.94 4.1-6.35 6.57-9.12 78.74.05 157.49.12 236.23-.01m-238.48 4.32c85.12.22 170.27-.09 255.39.16.49-.11 1.48-.34 1.97-.45-84.94-.26-169.88.09-254.82-.13-.64.11-1.91.31-2.54.42" style="fill:#e8732e;fill-rule:nonzero"/><path d="M113.798 70.702c.67-1.3 1.36-2.6 2.06-3.89 28.46.59 56.94.09 85.41.28 54.66-.04 109.33.04 164-.03 5.66-.06 11.36.35 16.99-.49.84 1.53 1.67 3.08 2.42 4.68-16.8-.55-33.63-.12-50.44-.3-57.68-.03-115.36.04-173.04-.01-15.8-.11-31.61.35-47.4-.24m264.47 3.03c2.47.1 4.93-.32 7.29-1.04.39 1.32.79 2.63 1.25 3.95-4.85.55-9.74.34-14.6.29-85.98-.22-171.96-.02-257.93-.03-1.03-.08-1.87-.53-2.55-1.35.16-.48.46-1.42.62-1.89l.37.01c88.52.2 177.04-.06 265.55.06m2.99 5.95c2.01-.07 4.01-.45 5.99-.87l.49-.11c.36 1.66.73 3.31 1.12 4.97-82.53-.13-165.06.04-247.58-.04-10.6.12-21.2-.33-31.79.16.31-1.37.61-2.74.91-4.12h.21c90.22.05 180.44-.03 270.65.01m-271.85 4.42 1.01.01c90.93-.09 181.85-.03 272.77-.04 2.11 0 4.32-.06 6.25.96.1 1.51.09 3.03-.01 4.55-88.38-.06-176.78.14-265.16-.07-4.9-.1-9.83-.99-14.71-.15-.1-1.75-.14-3.51-.15-5.26m-.71 5.76c42.51.58 85.03.05 127.55.24 51.26-.09 102.53.1 153.79-.09-.17 1.34-.29 2.68-.38 4.03-55.49-.18-110.99.02-166.49-.18-37.96.25-75.92-.22-113.88.31-.18-1.44-.37-2.88-.59-4.31m1.69 6.82c93.09.33 186.18.05 279.27.12-.18 1.07-.35 2.15-.52 3.23-92.89-.01-185.78-.07-278.67.03-.03-1.13-.05-2.25-.08-3.38m.17 6.4c1.56-.17 3.11-.34 4.69-.4 91.19.29 182.39-.05 273.58.17-.14.36-.43 1.08-.58 1.44-1.51.97-3.21 1.72-5.03 1.64-54.02-.01-108.03-.01-162.05.04-36.62 0-73.25-.16-109.87.09-.25-.99-.49-1.99-.74-2.98m1.64 5.63c87.36-.03 174.72-.01 262.08-.02 4.13-.06 8.28-.08 12.4.43-.54 1.04-1.07 2.09-1.61 3.14-15.57.6-31.21.27-46.81.36-69.33.04-138.66.01-207.99.02-5.35.03-10.75-.47-16.05.5-.71-1.47-1.38-2.94-2.02-4.43" style="fill:#e8732e;fill-rule:nonzero"/><path d="M114.428 113.712c5.56-1.05 11.23-.6 16.85-.62 74-.07 148 .02 222.01-.06 10.61-.09 21.24.47 31.83-.32-.88 1.49-1.75 2.98-2.67 4.45-17.4-.44-34.8-.01-52.2-.19-66.34.09-132.68-.11-199.02.11-4.81-.02-9.7-.54-14.41.74-.83-1.35-1.62-2.74-2.39-4.11" style="fill:#e8732e;fill-rule:nonzero"/><path d="M388.768 113.072c.13 2.53-.25 5.08-1.75 7.19-4.95 7.79-10.02 15.71-17.01 21.87-9.35 8.99-20.92 15.21-32.78 20.23-4.29 1.98-8.96 3.3-12.72 6.27 4.91-.06 9.23-2.57 13.68-4.29 15.58-6.48 30.09-16.05 41.01-29.03 3.35-3.73 5.66-8.25 9.03-11.97-1.48 6.57-5.76 12.03-9.7 17.32-12.19 15.4-30.03 24.84-47.95 31.97-2.99 1.32-6.53 2.02-8.58 4.8 4.91-.21 9.17-2.93 13.73-4.44 8.57-2.82 16.16-7.81 23.88-12.35 11.91-8.1 22.47-18.62 29.33-31.39-.29 2.6-1.03 5.14-2.39 7.39-7.96 14.18-20.04 26-34.44 33.58-9.54 5.65-20.11 9.13-30.29 13.4.41.23 1.21.68 1.62.9 4.22-.3 8.06-2.42 11.95-3.94 15.11-6.04 29.79-14.13 40.89-26.26 5.1-4.64 8.26-10.85 12.81-15.95-4.66 13.22-14.91 23.59-25.59 32.24-11.56 8.3-24.55 14.42-37.99 19-1.63.42-2.77 1.65-3.72 2.96 5.27-.36 9.97-2.98 14.84-4.79 16.19-6.4 31.53-15.81 42.84-29.21 3.41-3.92 6.01-8.49 9.65-12.23-3.98 10.88-11.91 19.82-20.27 27.61-13.54 11.42-29.9 18.96-46.6 24.55.25.42.76 1.27 1.01 1.7 19.13-6.14 38.02-15.04 52.29-29.53 5.17-5.3 8.95-11.72 13.64-17.41-2.07 6.08-5.95 11.31-9.43 16.65-11.18 15.09-28.21 24.46-45.21 31.59-3.88 1.85-8.31 2.4-11.97 4.67.05.46.13 1.38.18 1.84 6.52-1.75 12.63-4.66 18.83-7.26 7.89-3.41 15.47-7.54 22.36-12.69 10.33-7.27 18.45-17.16 25.17-27.76-4.06 11.42-11.74 21.3-20.82 29.21-11.96 9.95-26.15 16.84-40.75 21.97-1.93.87-5.44.89-4.68 3.89 18.42-5.82 36.52-14.29 50.71-27.66 5.6-5.47 10.25-11.8 14.66-18.25-2.85 10.12-9.83 18.5-17.5 25.42-12.07 10.46-26.35 18.22-41.43 23.39-2.6.84-5.12 1.88-7.52 3.18.41.28 1.23.86 1.64 1.15 12.63-3.51 24.62-9.36 35.73-16.3 11.85-7.07 21.44-17.46 29-28.91-1.65 7.77-6.9 14.08-12.14 19.79-12.48 13.54-29.14 22.42-46.29 28.61-2.65 1.08-5.81 1.43-7.88 3.55.36.27 1.09.83 1.45 1.11 12.05-3.65 23.61-9.12 34.41-15.62 12.3-7.19 22.68-17.47 30.5-29.34-1.21 5.34-4.37 9.92-7.66 14.19-6.12 7.53-13.23 14.35-21.56 19.41-11.41 7.71-24.28 12.74-37.15 17.39.65 2.18 2.75 1.42 4.32.86 11.9-4.56 23.87-9.36 34.43-16.62 11.29-7.01 20.66-16.89 27.56-28.2-.31 4.11-2.48 7.68-4.85 10.93-12.3 17.99-31.71 29.57-51.76 37.09-3.43 1.15-6.91 2.19-10.16 3.8 1.23 1.22 2.83 1.29 4.36.62 18.87-6.72 37.62-15.74 51.45-30.64 4.35-4.09 7.34-9.3 11.01-13.96-1.7 7.5-6.89 13.54-11.83 19.18-13.87 15.47-33.13 24.81-52.53 31.34q-1.77.69-2.01 2.73c1.74-.41 3.5-.82 5.21-1.39 16.35-6 32.29-13.92 45.36-25.6 6.06-4.79 10-11.51 14.9-17.35-1.53 7.63-7.34 13.21-12.06 19.03-12.22 13.11-28.48 21.63-45.06 27.91-2.9 1.24-6.52 1.61-8.43 4.42 5.63-.21 10.72-2.89 15.87-4.9 9.34-4.32 18.62-8.98 26.9-15.15 9.14-7.03 17.48-15.29 23.48-25.21-1.44 7.29-6.72 12.87-11.19 18.49-13.17 15.36-31.77 24.72-50.54 31.41-1.77.53-3.17 1.75-4.36 3.12 5.43-.54 10.41-2.92 15.42-4.93 14.88-6.85 29.74-14.91 40.64-27.45 3.48-3.66 6.05-8.05 9.44-11.79-1.47 5.6-5.55 9.94-8.56 14.74-11.24 14.77-28.08 23.79-44.78 31.06-4.07 1.9-8.73 2.59-12.34 5.4 2 .11 4.06.09 5.96-.68 6.42-2.41 12.96-4.66 18.97-8.04 10.07-5.48 20.12-11.48 28.05-19.9 2.77-2.94 5.45-5.99 8.66-8.47-.78 3.71-2.87 6.94-5.44 9.67-6.44 6.95-13.63 13.33-21.85 18.12-10.28 5.67-20.57 11.62-31.89 15-1.29.27-2.1 1.06-2.43 2.36 12.41-3.14 24.25-8.55 34.93-15.61 5.77-3.86 12.09-7.06 16.97-12.1 3.7-3.58 6.29-8.09 9.73-11.9.38.01 1.15.04 1.53.05-8.2 16.34-23.86 27.12-39.58 35.46-15.49 8.62-32.75 13.37-50.03 16.83-41.86 7.93-86.12 5.42-126.14-9.62-14.63-6.16-29.12-13.42-40.83-24.33-7.18-6.97-13.33-15.2-16.98-24.57 1.89.06 2.28 2.09 3.09 3.41 3.07 6.55 7.31 12.7 13.26 16.93 8.76 6.36 17.12 13.69 27.43 17.43 7.41 2.81 14.57 6.51 22.41 7.99-3.36-3.79-8.84-4.18-13.21-6.28-14.66-6.19-29.28-13.85-40.01-25.88-5.09-5.84-10.39-12.05-12.08-19.82 4.78 6.15 8.68 13.07 14.55 18.3 8.52 7.6 18.6 13.21 28.71 18.4 6.98 2.83 13.85 6.36 21.36 7.5-2.61-2.97-6.75-3.41-10.17-4.99-14.96-6.13-29.8-13.79-41.03-25.68-5.73-5.88-11.45-12.43-13.46-20.6 6.97 10.44 15.61 19.98 26.32 26.67 11.97 7.26 24.45 14.48 38.29 17.38-1.32-3.25-5.41-3.24-8.15-4.66-15.84-6.06-31.34-14.26-43.09-26.72-5.52-5.68-11.27-11.81-13.23-19.71 3.86 5.67 8.38 10.83 13.4 15.51 8.09 8.33 18.19 14.3 28.45 19.54 7.42 3.21 14.69 7.27 22.82 8.31-1.42-2.24-4.04-2.93-6.35-3.83-17.71-6.71-34.98-15.9-47.88-30.05-4.52-5.09-9.34-10.46-10.59-17.39 9.9 15 24.34 26.82 40.55 34.45 7.68 3.89 15.5 7.84 24.03 9.44-.32-2.24-2.66-2.7-4.39-3.44-17.28-6.51-34.47-14.85-47.39-28.37-5.74-5.58-10.86-12.18-12.8-20.09 3.61 4.97 7.04 10.12 11.55 14.37 10.32 11.04 23.83 18.35 37.39 24.65 5.08 2.14 10.21 4.34 15.7 5.19-.5-1.51-1.71-2.44-3.17-2.88-12.77-4.8-25.54-10.16-36.57-18.31-10.68-7.95-21.09-17.84-24.88-31.01 8.75 13.37 20.51 25.03 34.88 32.23 6.72 3.85 13.66 7.33 20.96 9.97 3 .99 6.07 2.62 9.33 1.91-3.35-3.05-8.02-3.62-11.98-5.55-16.36-6.48-31.9-15.91-43.65-29.17-4.53-4.93-7.37-11.06-10.07-17.1.99.09 2.22.25 2.37 1.55 1.77 4.04 4.57 7.46 7.44 10.77 10.58 12.54 25.23 20.57 39.95 27.25 5.21 2.08 10.36 4.76 16.04 5.16-.64-1.28-1.67-2.26-3.06-2.61-14.24-4.89-28.07-11.43-40.03-20.66-9.43-7.59-18.63-16.83-21.94-28.82 7.06 11.5 16.98 21.12 28.16 28.61 8.59 5.11 17.57 9.6 26.93 13.15 3.28 1.11 6.62 3.54 10.21 2.31-2.27-2.46-5.75-2.78-8.71-3.96-7.69-3.04-15.35-6.26-22.37-10.66-15.14-8.53-28.71-21.12-35.35-37.46 7.49 10.62 16.37 20.39 27.14 27.75 11.78 7.79 24.9 13.26 38.19 17.91 1.07-3.03-3.12-3.28-4.98-4.24-19.06-6.47-37.23-16.96-50.46-32.35-3.76-4.49-7.43-9.3-9.1-14.99 4.53 6.69 10.46 12.22 16.16 17.88 13.1 12.28 29.87 19.59 46.6 25.48 1.08.56 1.88-.72 2.72-1.12-6.12-2.56-12.44-4.63-18.51-7.3-12.81-6.02-25.01-13.72-34.86-23.98-4.93-5.42-9.93-11.18-12.13-18.32 4.35 5.43 8.43 11.09 13.71 15.69 13.51 13.24 31.09 21.31 48.78 27.35 1.12.44 2.14.24 3.07-.6-3.88-2.48-8.47-3.35-12.64-5.18-9.35-3.81-18.3-8.6-26.68-14.23-11.48-8.06-22.17-18.3-26.96-31.81 4.31 5.02 7.68 10.81 12.52 15.38 10.46 9.79 22.55 17.94 35.85 23.36 5.6 2.19 11.11 4.99 17.19 5.53-1.11-1.38-2.54-2.42-4.23-2.94-10.78-3.88-21.26-8.71-30.97-14.8-13.01-8.3-25.14-19.59-30.37-34.47 5.61 7.55 11.18 15.29 18.56 21.24 13.57 11.43 30.06 18.8 46.86 24.04-.22-.48-.66-1.44-.87-1.92-3.62-2.03-7.75-2.94-11.5-4.71-15-6.64-29.86-14.64-41.23-26.7-4.94-5.94-9.9-12.29-11.77-19.95 3.82 5.11 7.25 10.55 11.86 15.01 11.02 12.14 25.79 20.08 40.76 26.28 4.14 1.75 8.34 3.59 12.87 4.01-1.98-2.8-5.61-3.3-8.53-4.63-16.82-6.32-32.74-15.65-45.23-28.68-4.53-5.37-9.49-10.93-10.86-18.05 4.85 6.43 9.72 12.9 15.62 18.42 9.95 9.52 22.65 15.43 35.14 20.87 4.51 1.88 8.94 4.13 13.82 4.89-1.15-1.25-2.5-2.3-4.1-2.88-14.92-6.03-30.38-12.21-42.23-23.47-6.62-5.16-11.76-11.98-15.81-19.28-.81-1.3-.82-2.87-.97-4.33 6.11 8.18 13.06 15.88 21.41 21.83 14.28 11.11 31.26 18.08 48.31 23.72 22.8 7.3 46.89 9.67 70.74 9.37 20.24-.49 40.4-3.65 59.86-9.27 20.86-6.36 41.33-15.6 57.64-30.36 7.12-6.36 12.71-14.28 17.05-22.75" style="fill:#e8732e;fill-rule:nonzero"/><path d="M118.658 121.022c1.05-.75 2.19-1.5 3.56-1.36 5.67-.15 11.29.98 16.97.86 72.03-.13 144.05.17 216.08-.04 8.39-.01 16.76-1.28 25.16-.44-.54.98-1.07 1.96-1.6 2.95h-.39c-51.4-.05-102.8.03-154.2 0-34.53.13-69.06-.24-103.58.13a9.8 9.8 0 0 1-2-2.1m4.09 4.93c4.83-.41 9.68-.28 14.53-.21 71.97.13 143.94.01 215.91.05 7.54.04 15.12-.52 22.64.29-.86 1.01-1.7 2.03-2.56 3.04-75.34-.42-150.69-.19-226.03-.19-6.61 0-13.22-.37-19.82.09 1.99 3.2 6.68 1.34 9.87 1.89 12.94 1.18 25.94.61 38.92.73 60.66.08 121.32.01 181.98.01 4.15-.03 8.29 0 12.43.24-3.63 3.34-7.46 6.48-11.58 9.2-4.16-1.44-8.55-.19-12.82-.33-60.99.01-121.98.07-182.98-.05-7.87-.12-15.94-1.99-23.67.29-6.33-4.12-11.93-9.32-16.82-15.05m11.75 8.89.43 1.69c3.41.54 6.87.2 10.31.27 57.35.16 114.69.09 172.04.11 15.8-.13 31.62.19 47.4-.3l-.03-1.67c-53.79-.1-107.59-.11-161.39-.1-22.92.15-45.85-.3-68.76 0m7.36 8.08c21.14-.46 42.29.05 63.43-.1 50.43.13 100.86-.18 151.29.07-2.31 1.43-4.65 2.81-6.97 4.21l-.19-.06c-4.23-1.66-8.8-.96-13.21-1-55.66-.1-111.31-.02-166.97-.05-6.23.06-12.47-.24-18.68.41 1.5 1.55 3.51 2.39 5.69 2.28 53.32.13 106.65.03 159.97.03 10.11-.03 20.22-.13 30.33.23-9.87 5.75-20.67 9.59-31.47 13.19-2.89.82-5.76 2-8.78 2.09-1.99-.61-3.99-1.35-6.09-1.28-33.99.22-67.98.12-101.96.11-2.12-.13-4.07.72-5.88 1.69-17.97-4.19-35.13-11.65-50.51-21.82m19.67 9.02c1.15 2.91 5.19 2.3 7.78 2.77 41.3.11 82.6-.07 123.9.03 14.44-.19 28.94.59 43.31-1.28l.5-1.53c-58.5.07-116.99-.12-175.49.01m15 5.98.4 1.34c3.66 1.23 7.55 1.34 11.35.8 13.63-.44 27.28.09 40.92-.07 30.53-.21 61.08.34 91.6-.41l.01-1.7c-48.09.06-96.19-.06-144.28.04m108.67 7.82c6.19.52 12.3-.96 18.49-.7-15.14 4.03-30.76 6.06-46.42 6.2-19.93.89-40.12-.21-59.5-5.19 29.14-.44 58.29-.16 87.43-.31" style="fill:#e8732e;fill-rule:nonzero"/></g><g id="_-de8147ff"><path d="m209.008 14.762 2.01-.12c14.4.47 28.81-.03 43.22.12 10.75-.17 21.5.43 32.25-.01 3.33.2 6.59 1.02 9.85 1.73-23.69 1-47.42.07-71.13.5-5.65-.08-11.47.75-16.92-1.14zm-43.2 12.8a26.5 26.5 0 0 1 7.09-2.72c8.13-.05 16.2 1.48 24.36.89 43.71.3 87.42-.15 131.13.1 2.54.37 4.88 1.53 7.15 2.68-6.12.75-12.18-.43-18.28-.71-30.35.16-60.7.06-91.05.1-20.13-.16-40.27.22-60.4-.34m-11.34 5.16c1.34-.76 2.63-1.83 4.21-2.06 10.49.63 21.01.15 31.51.33 50.08-.07 100.16.26 150.24-.14 1.92.36 3.46 1.69 5.04 2.77-61.41.35-122.82-.01-184.22.19-2.32.02-4.55-.58-6.78-1.09m-11.52 6.9c1.3-.96 2.49-2.2 4.04-2.76 46.08.02 92.17.19 138.25.04 22.08-.15 44.17.3 66.25-.12 1.31.89 2.63 1.77 3.96 2.66-28.42.69-56.85.01-85.27.31-42.41-.07-84.82-.04-127.23-.13m-7 5.04c1.22-1.02 2.31-2.33 3.85-2.9 8.16.4 16.34.28 24.51.23 6.65-.19 13.24 1.06 19.9.78 55.99.13 111.99-.06 167.98.11 2.55.49 6.73-1.13 7.93 1.86-21.96.28-43.92.07-65.89.09-52.76 0-105.52.19-158.28-.17m-4.33 3.05.32.02c32.43.52 64.89.14 97.33.3 45.79-.14 91.59.16 137.38-.16q1.365 1.305 2.76 2.61c-26.05.54-52.13.26-78.19.35-52.33.08-104.66-.15-156.98-.03-1.56-.14-3.06-.61-4.55-1.01.48-.52 1.44-1.56 1.93-2.08m-8.6 8.98c.94-1.04 1.91-2.07 2.88-3.1 9.11.55 18.26.24 27.38.28 57.64 0 115.28.06 172.91.03 15.44-.12 30.9.42 46.32-.27l2.05 2.26c-4.99 1.46-10.2.69-15.31.79-78.74.13-157.49.06-236.23.01m-10.3 16.98 1.08-2.97c15.79.59 31.6.13 47.4.24 57.68.05 115.36-.02 173.04.01 16.81.18 33.64-.25 50.44.3l.88 1.44c-2.36.72-4.82 1.14-7.29 1.04-88.51-.12-177.03.14-265.55-.06m-2.11 6c.36-1.38.74-2.75 1.12-4.12.68.82 1.52 1.27 2.55 1.35 85.97.01 171.95-.19 257.93.03 4.86.05 9.75.26 14.6-.29l.44 2.17c-1.98.42-3.98.8-5.99.87-90.21-.04-180.43.04-270.65-.01m-1.32 14.5c37.96-.53 75.92-.06 113.88-.31 55.5.2 111 0 166.49.18v2.76c-93.09-.07-186.18.21-279.27-.12.03 1.13.05 2.25.08 3.38 92.89-.1 185.78-.04 278.67-.03-.08.71-.23 2.12-.31 2.82-91.19-.22-182.39.12-273.58-.17-1.58.06-3.13.23-4.69.4-.87-2.89-1.21-5.9-1.27-8.91m273.93 11.76c1.82.08 3.52-.67 5.03-1.64-.41 1.64-.96 3.24-1.57 4.83-4.12-.51-8.27-.49-12.4-.43-87.36.01-174.72-.01-262.08.02-.23-.66-.67-1.98-.9-2.65 36.62-.25 73.25-.09 109.87-.09 54.02-.05 108.03-.05 162.05-.04m-274.18 27.41c-.03-8.36-1.04-16.74-.42-25.09 1.11 4.33 3.48 8.19 5.14 12.28.15 1.46.16 3.03.97 4.33 4.05 7.3 9.19 14.12 15.81 19.28 11.85 11.26 27.31 17.44 42.23 23.47 1.6.58 2.95 1.63 4.1 2.88-4.88-.76-9.31-3.01-13.82-4.89-12.49-5.44-25.19-11.35-35.14-20.87-5.9-5.52-10.77-11.99-15.62-18.42 1.37 7.12 6.33 12.68 10.86 18.05 12.49 13.03 28.41 22.36 45.23 28.68 2.92 1.33 6.55 1.83 8.53 4.63-4.53-.42-8.73-2.26-12.87-4.01-14.97-6.2-29.74-14.14-40.76-26.28-4.61-4.46-8.04-9.9-11.86-15.01 1.87 7.66 6.83 14.01 11.77 19.95 11.37 12.06 26.23 20.06 41.23 26.7 3.75 1.77 7.88 2.68 11.5 4.71.21.48.65 1.44.87 1.92-16.8-5.24-33.29-12.61-46.86-24.04-7.38-5.95-12.95-13.69-18.56-21.24 5.23 14.88 17.36 26.17 30.37 34.47 9.71 6.09 20.19 10.92 30.97 14.8 1.69.52 3.12 1.56 4.23 2.94-6.08-.54-11.59-3.34-17.19-5.53-13.3-5.42-25.39-13.57-35.85-23.36-4.84-4.57-8.21-10.36-12.52-15.38 4.79 13.51 15.48 23.75 26.96 31.81 8.38 5.63 17.33 10.42 26.68 14.23 4.17 1.83 8.76 2.7 12.64 5.18-.93.84-1.95 1.04-3.07.6-17.69-6.04-35.27-14.11-48.78-27.35-5.28-4.6-9.36-10.26-13.71-15.69 2.2 7.14 7.2 12.9 12.13 18.32 9.85 10.26 22.05 17.96 34.86 23.98 6.07 2.67 12.39 4.74 18.51 7.3-.84.4-1.64 1.68-2.72 1.12-16.73-5.89-33.5-13.2-46.6-25.48-5.7-5.66-11.63-11.19-16.16-17.88 1.67 5.69 5.34 10.5 9.1 14.99 13.23 15.39 31.4 25.88 50.46 32.35 1.86.96 6.05 1.21 4.98 4.24-13.29-4.65-26.41-10.12-38.19-17.91-10.77-7.36-19.65-17.13-27.14-27.75 6.64 16.34 20.21 28.93 35.35 37.46 7.02 4.4 14.68 7.62 22.37 10.66 2.96 1.18 6.44 1.5 8.71 3.96-3.59 1.23-6.93-1.2-10.21-2.31-9.36-3.55-18.34-8.04-26.93-13.15-11.18-7.49-21.1-17.11-28.16-28.61 3.31 11.99 12.51 21.23 21.94 28.82 11.96 9.23 25.79 15.77 40.03 20.66 1.39.35 2.42 1.33 3.06 2.61-5.68-.4-10.83-3.08-16.04-5.16-14.72-6.68-29.37-14.71-39.95-27.25-2.87-3.31-5.67-6.73-7.44-10.77-.15-1.3-1.38-1.46-2.37-1.55 2.7 6.04 5.54 12.17 10.07 17.1 11.75 13.26 27.29 22.69 43.65 29.17 3.96 1.93 8.63 2.5 11.98 5.55-3.26.71-6.33-.92-9.33-1.91-7.3-2.64-14.24-6.12-20.96-9.97-14.37-7.2-26.13-18.86-34.88-32.23 3.79 13.17 14.2 23.06 24.88 31.01 11.03 8.15 23.8 13.51 36.57 18.31 1.46.44 2.67 1.37 3.17 2.88-5.49-.85-10.62-3.05-15.7-5.19-13.56-6.3-27.07-13.61-37.39-24.65-4.51-4.25-7.94-9.4-11.55-14.37 1.94 7.91 7.06 14.51 12.8 20.09 12.92 13.52 30.11 21.86 47.39 28.37 1.73.74 4.07 1.2 4.39 3.44-8.53-1.6-16.35-5.55-24.03-9.44-16.21-7.63-30.65-19.45-40.55-34.45 1.25 6.93 6.07 12.3 10.59 17.39 12.9 14.15 30.17 23.34 47.88 30.05 2.31.9 4.93 1.59 6.35 3.83-8.13-1.04-15.4-5.1-22.82-8.31-10.26-5.24-20.36-11.21-28.45-19.54-5.02-4.68-9.54-9.84-13.4-15.51 1.96 7.9 7.71 14.03 13.23 19.71 11.75 12.46 27.25 20.66 43.09 26.72 2.74 1.42 6.83 1.41 8.15 4.66-13.84-2.9-26.32-10.12-38.29-17.38-10.71-6.69-19.35-16.23-26.32-26.67 2.01 8.17 7.73 14.72 13.46 20.6 11.23 11.89 26.07 19.55 41.03 25.68 3.42 1.58 7.56 2.02 10.17 4.99-7.51-1.14-14.38-4.67-21.36-7.5-10.11-5.19-20.19-10.8-28.71-18.4-5.87-5.23-9.77-12.15-14.55-18.3 1.69 7.77 6.99 13.98 12.08 19.82 10.73 12.03 25.35 19.69 40.01 25.88 4.37 2.1 9.85 2.49 13.21 6.28-7.84-1.48-15-5.18-22.41-7.99-10.31-3.74-18.67-11.07-27.43-17.43-5.95-4.23-10.19-10.38-13.26-16.93-.81-1.32-1.2-3.35-3.09-3.41-3.03-8.12-2.14-16.91-2.35-25.39.16-26.32-.05-52.64.03-78.96m279.73-20.27c0-1.03.63-1.91 1.01-2.83.44 16.37.06 32.76.08 49.14-.09 22.98.41 45.96.19 68.94.06 5.57-2.48 10.69-4.79 15.61l-.34-.01c-.38-.01-1.15-.04-1.53-.05-3.44 3.81-6.03 8.32-9.73 11.9-4.88 5.04-11.2 8.24-16.97 12.1-10.68 7.06-22.52 12.47-34.93 15.61.33-1.3 1.14-2.09 2.43-2.36 11.32-3.38 21.61-9.33 31.89-15 8.22-4.79 15.41-11.17 21.85-18.12 2.57-2.73 4.66-5.96 5.44-9.67-3.21 2.48-5.89 5.53-8.66 8.47-7.93 8.42-17.98 14.42-28.05 19.9-6.01 3.38-12.55 5.63-18.97 8.04-1.9.77-3.96.79-5.96.68 3.61-2.81 8.27-3.5 12.34-5.4 16.7-7.27 33.54-16.29 44.78-31.06 3.01-4.8 7.09-9.14 8.56-14.74-3.39 3.74-5.96 8.13-9.44 11.79-10.9 12.54-25.76 20.6-40.64 27.45-5.01 2.01-9.99 4.39-15.42 4.93 1.19-1.37 2.59-2.59 4.36-3.12 18.77-6.69 37.37-16.05 50.54-31.41 4.47-5.62 9.75-11.2 11.19-18.49-6 9.92-14.34 18.18-23.48 25.21-8.28 6.17-17.56 10.83-26.9 15.15-5.15 2.01-10.24 4.69-15.87 4.9 1.91-2.81 5.53-3.18 8.43-4.42 16.58-6.28 32.84-14.8 45.06-27.91 4.72-5.82 10.53-11.4 12.06-19.03-4.9 5.84-8.84 12.56-14.9 17.35-13.07 11.68-29.01 19.6-45.36 25.6-1.71.57-3.47.98-5.21 1.39q.24-2.04 2.01-2.73c19.4-6.53 38.66-15.87 52.53-31.34 4.94-5.64 10.13-11.68 11.83-19.18-3.67 4.66-6.66 9.87-11.01 13.96-13.83 14.9-32.58 23.92-51.45 30.64-1.53.67-3.13.6-4.36-.62 3.25-1.61 6.73-2.65 10.16-3.8 20.05-7.52 39.46-19.1 51.76-37.09 2.37-3.25 4.54-6.82 4.85-10.93-6.9 11.31-16.27 21.19-27.56 28.2-10.56 7.26-22.53 12.06-34.43 16.62-1.57.56-3.67 1.32-4.32-.86 12.87-4.65 25.74-9.68 37.15-17.39 8.33-5.06 15.44-11.88 21.56-19.41 3.29-4.27 6.45-8.85 7.66-14.19-7.82 11.87-18.2 22.15-30.5 29.34-10.8 6.5-22.36 11.97-34.41 15.62-.36-.28-1.09-.84-1.45-1.11 2.07-2.12 5.23-2.47 7.88-3.55 17.15-6.19 33.81-15.07 46.29-28.61 5.24-5.71 10.49-12.02 12.14-19.79-7.56 11.45-17.15 21.84-29 28.91-11.11 6.94-23.1 12.79-35.73 16.3-.41-.29-1.23-.87-1.64-1.15 2.4-1.3 4.92-2.34 7.52-3.18 15.08-5.17 29.36-12.93 41.43-23.39 7.67-6.92 14.65-15.3 17.5-25.42-4.41 6.45-9.06 12.78-14.66 18.25-14.19 13.37-32.29 21.84-50.71 27.66-.76-3 2.75-3.02 4.68-3.89 14.6-5.13 28.79-12.02 40.75-21.97 9.08-7.91 16.76-17.79 20.82-29.21-6.72 10.6-14.84 20.49-25.17 27.76-6.89 5.15-14.47 9.28-22.36 12.69-6.2 2.6-12.31 5.51-18.83 7.26-.05-.46-.13-1.38-.18-1.84 3.66-2.27 8.09-2.82 11.97-4.67 17-7.13 34.03-16.5 45.21-31.59 3.48-5.34 7.36-10.57 9.43-16.65-4.69 5.69-8.47 12.11-13.64 17.41-14.27 14.49-33.16 23.39-52.29 29.53-.25-.43-.76-1.28-1.01-1.7 16.7-5.59 33.06-13.13 46.6-24.55 8.36-7.79 16.29-16.73 20.27-27.61-3.64 3.74-6.24 8.31-9.65 12.23-11.31 13.4-26.65 22.81-42.84 29.21-4.87 1.81-9.57 4.43-14.84 4.79.95-1.31 2.09-2.54 3.72-2.96 13.44-4.58 26.43-10.7 37.99-19 10.68-8.65 20.93-19.02 25.59-32.24-4.55 5.1-7.71 11.31-12.81 15.95-11.1 12.13-25.78 20.22-40.89 26.26-3.89 1.52-7.73 3.64-11.95 3.94-.41-.22-1.21-.67-1.62-.9 10.18-4.27 20.75-7.75 30.29-13.4 14.4-7.58 26.48-19.4 34.44-33.58 1.36-2.25 2.1-4.79 2.39-7.39-6.86 12.77-17.42 23.29-29.33 31.39-7.72 4.54-15.31 9.53-23.88 12.35-4.56 1.51-8.82 4.23-13.73 4.44 2.05-2.78 5.59-3.48 8.58-4.8 17.92-7.13 35.76-16.57 47.95-31.97 3.94-5.29 8.22-10.75 9.7-17.32-3.37 3.72-5.68 8.24-9.03 11.97-10.92 12.98-25.43 22.55-41.01 29.03-4.45 1.72-8.77 4.23-13.68 4.29 3.76-2.97 8.43-4.29 12.72-6.27 11.86-5.02 23.43-11.24 32.78-20.23 6.99-6.16 12.06-14.08 17.01-21.87 1.5-2.11 1.88-4.66 1.75-7.19" style="fill:#de8147;fill-rule:nonzero"/><path d="M116.818 117.822c4.71-1.28 9.6-.76 14.41-.74 66.34-.22 132.68-.02 199.02-.11 17.4.18 34.8-.25 52.2.19-.52.96-1.02 1.93-1.51 2.9l-.51-.02c-8.4-.84-16.77.43-25.16.44-72.03.21-144.05-.09-216.08.04-5.68.12-11.3-1.01-16.97-.86-1.37-.14-2.51.61-3.56 1.36a99 99 0 0 0-1.84-3.2m3.84 5.3c34.52-.37 69.05 0 103.58-.13 51.4.03 102.8-.05 154.2 0-.78 1.03-1.54 2.07-2.29 3.12l-.32-.03c-7.52-.81-15.1-.25-22.64-.29-71.97-.04-143.94.08-215.91-.05-4.85-.07-9.7-.2-14.53.21l-.32.02q-.9-1.425-1.77-2.85m6.76 5.9c6.6-.46 13.21-.09 19.82-.09 75.34 0 150.69-.23 226.03.19-.8.92-1.6 1.85-2.39 2.78l-.26-.01c-4.14-.24-8.28-.27-12.43-.24-60.66 0-121.32.07-181.98-.01-12.98-.12-25.98.45-38.92-.73-3.19-.55-7.88 1.31-9.87-1.89m7.08 5.82c22.91-.3 45.84.15 68.76 0 53.8-.01 107.6 0 161.39.1l.03 1.67c-15.78.49-31.6.17-47.4.3-57.35-.02-114.69.05-172.04-.11-3.44-.07-6.9.27-10.31-.27zm5.07 6.16c7.73-2.28 15.8-.41 23.67-.29 61 .12 121.99.06 182.98.05 4.27.14 8.66-1.11 12.82.33q-1.14 1.08-2.46 1.8c-50.43-.25-100.86.06-151.29-.07-21.14.15-42.29-.36-63.43.1-.81-.59-1.57-1.23-2.29-1.92m10.99 5.4c6.21-.65 12.45-.35 18.68-.41 55.66.03 111.31-.05 166.97.05 4.41.04 8.98-.66 13.21 1-.89.78-1.85 1.41-2.87 1.9-10.11-.36-20.22-.26-30.33-.23-53.32 0-106.65.1-159.97-.03-2.18.11-4.19-.73-5.69-2.28m10.97 5.54c58.5-.13 116.99.06 175.49-.01l-.5 1.53c-14.37 1.87-28.87 1.09-43.31 1.28-41.3-.1-82.6.08-123.9-.03-2.59-.47-6.63.14-7.78-2.77m15 5.98c48.09-.1 96.19.02 144.28-.04l-.01 1.7c-30.52.75-61.07.2-91.6.41-13.64.16-27.29-.37-40.92.07-3.8.54-7.69.43-11.35-.8zm15.84 6.82c1.81-.97 3.76-1.82 5.88-1.69 33.98.01 67.97.11 101.96-.11 2.1-.07 4.1.67 6.09 1.28-.66.2-1.96.62-2.61.82-6.19-.26-12.3 1.22-18.49.7-29.14.15-58.29-.13-87.43.31-1.89.03-3.64-.77-5.4-1.31" style="fill:#de8147;fill-rule:nonzero"/></g><path id="_-c0c1c1ff" d="M120.768 61.002c.63-.11 1.9-.31 2.54-.42 84.94.22 169.88-.13 254.82.13-.49.11-1.48.34-1.97.45-85.12-.25-170.27.06-255.39-.16m-4.75 4.77.43.04c5.23.57 10.5.95 15.77.78 75.01.02 150.03.07 225.04-.02 8.26-.06 16.54.26 24.78-.55.3.09.9.29 1.2.38l-.98.17c-5.63.84-11.33.43-16.99.49-54.67.07-109.34-.01-164 .03-28.47-.19-56.95.31-85.41-.28zm-6.53 18.02c10.59-.49 21.19-.04 31.79-.16 82.52.08 165.05-.09 247.58.04l.62.01-.04 1.35c-1.93-1.02-4.14-.96-6.25-.96-90.92.01-181.84-.05-272.77.04zm.07 5.57c4.88-.84 9.81.05 14.71.15 88.38.21 176.78.01 265.16.07l.61.43c-51.26.19-102.53 0-153.79.09-42.52-.19-85.04.34-127.55-.24zm228.7 23.26c15.6-.09 31.24.24 46.81-.36l.82.38-.77.07c-10.59.79-21.22.23-31.83.32-74.01.08-148.01-.01-222.01.06-5.62.02-11.29-.43-16.85.62l-.99.13c.19-.17.59-.52.78-.7 5.3-.97 10.7-.47 16.05-.5 69.33-.01 138.66.02 207.99-.02" style="fill:#c0c1c1;fill-rule:nonzero"/></svg>