<svg xmlns="http://www.w3.org/2000/svg" width="1664" height="832pt" viewBox="0 0 1248 832"><g fill="#2dc5d2"><path d="M643.91 59.69c4.42-2.05 9.42-1.38 14.15-1.45 6.88-.39 13.23 2.64 19.55 4.9 21.68 7.43 43.29 15.16 65.43 21.15 10.17 1.98 20.13 4.91 30.03 7.94 3.39 1.02 7.01 1.54 10.12 3.33 4.79 3.47 8.31 8.43 10.84 13.73 6.15 11.4 10.99 23.45 17.08 34.89 4 7.38 7.09 15.2 10.27 22.95 3.15 7.21 2.52 15.27 2.22 22.93-4.18 2.44-7.94 5.5-12.08 7.98-5.06 3.29-10.52 5.9-15.53 9.25a4.22 4.22 0 0 0-2.11 3.63c-.34 5.77.19 11.6-.79 17.32-5.31 36.11-21.21 71.63-48.68 96.28-12.45 10.83-26.72 20.38-42.94 24.25-.23 7.47-.41 14.96-.05 22.42 2.27.22 4.19 1.39 5.86 2.89 7.11 2.3 13.07 7.07 19.97 9.88 4.62 1.88 8.76 4.74 13.26 6.88 20.08 8.88 38.76 20.71 59.25 28.67.89.49 1.77 1.02 2.63 1.6 4.15 1.41 8.18 3.25 11.85 5.67 3.51 2.51 5.45 6.48 8.12 9.75 7.67 9.28 16.09 17.91 23.6 27.31 1.32-.23 2.34-.9 3.06-2 8.27-12.31 15.28-25.43 21.41-38.91 3.48-8.12 6.16-16.54 8.97-24.91 2.1-6.66 4.76-13.38 4.42-20.49-4.25-2.34-8.99-4.25-12.11-8.13-2.9-3.46-5.48-7.77-5.02-12.47.67-3.65 3.44-6.85 6.87-8.22 2.6-.54 5.28-.27 7.93-.28 2.16 2.49 3.68 5.89 2.04 9.09-2.36.77-4.83.99-7.28.96.12 3.02.77 5.97 1.56 8.89.97.17 1.96.34 2.95.52-.44-2.04-.95-4.07-1.23-6.13 1.92-1.39 4.38-1.69 6.56-2.56.41-1.1.85-2.19 1.31-3.26.28-4.07-1.39-8.61-5.41-10.22-2.89-.41-5.81-.2-8.7-.23 1.12-7.12 8.07-11.37 14.41-13.37 5.18-1.13 10.99-1.19 15.71 1.56 6.31 3.21 10.54 10.21 10.17 17.31.51 8.32-3.17 16.67-9.21 22.32-3.73 3.52-8.75 4.81-13.36 6.7-4.14 16.99-9.1 33.86-16.68 49.68-5.28 12.74-12.9 24.27-20.12 35.96-1.04 1.57-1.9 3.29-1.85 5.23 4.12 3.57 6.86 8.6 11.74 11.34 6.14 4.58 13.58 6.79 20.02 10.85 2.65 1.55 5.36 3.02 8.24 4.14 7 2.65 13.02 7.21 18.84 11.82 5.4 4.32 12.91 5.05 17.87 10.04 2.77 2.58 5.5 5.88 5.39 9.91.06 6.72.09 13.46-.11 20.19-4.43 4.8-9.87 8.44-15.25 12.07-4.07 2.68-7.8 5.92-12.31 7.86-.68 8.86.93 17.96-1.78 26.6-3.72 11.29-6.19 22.95-10.28 34.13-.12.53-.37 1.59-.49 2.11-.34 1.04-.66 2.09-.97 3.14-2.11 7.73-10.46 10.54-15.52 15.99-5.63 2.15-11.19-1.56-15.71-4.62-3.86 1.89-7.69 3.86-11.08 6.53-4.59 3.47-10.93 5.6-13.23 11.33-1.76 4.94-4.39 9.56-5.44 14.73-2.11 2.28-4.22 4.64-7.02 6.08-.31-1.32-.6-2.63-.87-3.94 4.86-2.26 5.34-8.05 6.65-12.57 3.12-10.4 7.19-20.48 9.69-31.05.77-3.83 2.73-7.42 2.69-11.4.2-14.74.25-29.48.2-44.22-6.42 1.18-11.7 5.49-17.05 8.96.14 15.06.06 30.12.01 45.18-1.08 10.58-4.68 20.63-7.84 30.73-.2 1.03-.38 2.07-.56 3.12-.3 1.02-.58 2.05-.83 3.1-1.67 3.97-5.67 6.05-9.11 8.27-5.55 2.9-10.71 6.5-15.67 10.31-4.35 3.87-9.15 7.25-14.37 9.82-5.64 2.73-10.53 6.69-15.77 10.06-5.03 3.53-10.61 6.15-15.87 9.31-1.55 1.03-3.47.68-5.21.79.12-2.91.68-5.77 1.89-8.42 2.19-8.76 4.79-17.41 7.04-26.15.15-14.56-.03-29.12.03-43.68-6.34.68-10.57 6.27-15.62 9.6-.26 5.41-2.09 10.62-2.1 16.06 0 10.01.02 20.01.12 30.01-.15 9.78-4.78 18.67-6.83 28.08-1.47 7.31-4.6 14.2-5.64 21.62 1.02-.09 2.05-.17 3.09-.25 4.87-4.37 11-6.94 16.09-11.03 5.84-4.68 12.49-8.18 18.62-12.45 10.32-7.01 22-12.23 30.97-21.07 4.05-1.57 7.49-4.26 11.26-6.37 7.85-4.17 14.12-10.81 22.37-14.31.73.73 1.45 1.47 2.18 2.24-3.84 3.34-8.85 5.07-12.19 9.02-1.39 5.4-1.03 10.97-1.15 16.49-1.06 9.49-2.6 18.97-3 28.51 3.83 3.8 9.42 7.48 9.22 13.52.08 2.16-.09 4.32-.2 6.49-4.86.33-9.75.48-14.59-.03-6.25-1.43-11.81-4.94-16.51-9.21-.34-13.02.18-26.04-.06-39.06-3.78 1.31-6.66 4.19-9.98 6.28-9.64 6.35-19.36 12.57-29.03 18.88-8.92 5.36-16.91 12.21-26.21 16.96-1.52.83-2.67 2.15-3.89 3.34-4.48-.12-8.62-2.21-11.9-5.16-1.18-.02-2.36-.01-3.52.02-3.81 3.31-8.68 5.32-11.99 9.21-1.52 2.84-1.08 6.19-1.12 9.29.04 8.4.07 16.81-.23 25.21-5.88 3.68-12.28 10.29-19.81 7.42-3.27-.73-4.59-4-5.47-6.86-.53-.34-1.6-1.02-2.14-1.37-2.97 2.1-7.05 3.22-10.36 1.21-3.37-2.03-7.19-3.03-10.82-4.44-2.56 3.72-8.19 3.01-11.5.69-2.96-2.01-6.61-2.55-9.62-4.45-3.6-2.22-7.32-4.22-11.26-5.74-5.77-2.33-10.82-6.09-16.58-8.4-6.4-2.7-12.32-6.37-18.5-9.49-4.12-2.15-8.42-4.14-11.88-7.31-2.01-1.78-2.35-4.76-4.38-6.51-3.17-3.19-7.71-4.12-11.45-6.38-5.5-3.32-11.51-5.63-17.08-8.83-9.51-3.38-18.16-8.67-27.24-12.98-3.86-.85-7.89.08-11.81-.38-.06 11.67-.02 23.34.01 35.02-3.15 3.3-7.63 4.62-11.85 5.94-5.42 1.86-11.25 1.48-16.87 1.21-1.57.1-2.45-1.4-3.61-2.15-.6-5.11 2.45-9.26 5.57-12.91l2.58-.32c-1.38-6.6-1.71-13.35-2.82-19.96-.21-7.63-1.27-15.2-2.25-22.75-4.97-2.55-9.78-5.43-14.97-7.51-6.02-2.3-11.22-6.21-17.04-8.92-2.78-1.22-5.02-3.31-6.8-5.72.61-4.82-2.88-9.36-7.65-10.13-2.64-2.44-5.88-4.16-8.41-6.7-3.34-4.58-3-10.57-4.6-15.8-2.68-12.9-5.98-25.66-8.26-38.65-1.22-7.61-3.19-15.14-3.38-22.88-.57-3.28-4.45-3.58-7.07-4.01-2.43-3.02-6.44-3.57-9.49-5.69-3.97-2.4-7.88-5.73-9.03-10.42-.54-6.01-.29-12.07-.16-18.1-.02-4.02 3.03-7.08 5.44-9.97 1.97-2.51 4.85-3.9 7.48-5.56 4.47-3.89 8.39-8.35 12.05-12.99 10.04-7.31 20.44-14.17 30.39-21.62 4.82-3.37 10.39-5.57 14.64-9.75-.03-.37-.09-1.11-.13-1.48-8.49-9.53-14.38-21.06-19.74-32.56-8.73-20.32-14.59-41.93-17.18-63.9-1.69-10.45-.97-21.07-.99-31.6-4.83-3.13-10.23-6.6-11.76-12.53-.73-4.64-.62-9.4-.22-14.07 1.28-7.26 6.39-13.56 12.77-17.07 4.8-1.11 9.9-.85 14.78-.33 7.29 2.06 11.71 9.98 10.69 17.33-3.51-.85-7.09-1.77-10.73-1.37-2.88-.18-4.69 2.37-6.57 4.11-.02 2.27-.22 4.56.16 6.82 2.53 3.81 7.72 3.76 11.71 5.09.01-1.22.04-2.44.06-3.66-3.18-.06-6.27-.82-8.94-2.58 0-1.47-.01-2.94-.01-4.4.37-.61 1.1-1.83 1.47-2.44 3.79-.26 7.6-.17 11.41-.01 1.81 1.69 3.91 3.2 5.2 5.38.38 2.98.45 6.3-1.39 8.87-4.9 7.14-13.52 10.68-21.83 11.9-1.83 11.11-.02 22.43 1.28 33.52 1.27 11.29 4.18 22.3 7.24 33.22 5.93 20.41 14.75 40.28 27.84 57.12 2.78-2.18 2.99-6.05 4.25-9.12 2.86-7.49 4.07-15.51 7.29-22.88 4.33-9.52 10.22-18.29 17.19-26.07 3.61-4.79 8.22-8.69 13.25-11.91 3.05-1.87 5.39-4.67 8.51-6.43 1.67-3.51 4.56-6.2 7.67-8.43 6.08-4.34 12.4-8.32 18.62-12.45 21.14-14.51 42.09-29.21 63.09-43.93 5.96-3.59 11.18-8.17 16.87-12.14.1-4.72-.08-9.45.21-14.16.02-1.93.93-3.88 2.67-4.83 3.64-2.36 6.95-5.21 10.78-7.29 1.87-1.2 4.35-2.22 4.75-4.67-11.63-10.24-25.35-17.67-37.14-27.68-9.66-8.47-19.11-17.67-25.01-29.25-1.6-2.77-2.59-5.85-4.1-8.66-2.02-1.76-4.75-2.26-7.15-3.28-14.17-6.05-27.97-12.93-42.01-19.3-3.48-1.82-7.76-3.16-9.8-6.77-.39-5.06-.24-10.15-.02-15.21.81-7.36 4.4-13.98 7.15-20.75 7.86-17.21 14.39-35.07 23.69-51.6 2.77-5.04 7.69-8.45 12.95-10.53 12.14-4.75 23.89-10.4 35.99-15.24 16.71-6.45 33.15-13.6 49.22-21.52 8.96-4.57 18.12-8.74 27.39-12.64m-11.1 9.42c-12.21 6.46-24.97 11.79-37.46 17.67-15.41 5.98-30.29 13.26-45.8 18.99-6.17 2.47-12.54 4.95-17.69 9.27-.72 1.7-.6 4.03.95 5.27 5.15 5.16 12.45 7.02 18.94 9.9 5.16 1.61 10.16 3.67 15.29 5.39 9.67 3.26 18.72 8.06 28.3 11.55 8.81 3.81 18.06 6.4 26.96 9.97 8.73 3.2 17.28 7.51 26.71 8.17 3.67.08 7.34-.08 11.02.01 8.42.35 16.51-2.84 23.76-6.84 11.98-6.03 24.43-11.11 36.17-17.63 10.46-6 21.5-10.97 31.73-17.39 8.62-5.4 19.03-8.84 25.3-17.3 1.93-1.95 1.29-4.77 1.34-7.22-9.5-4.59-20.1-5.98-30.14-8.94-25.15-7.6-50.45-14.78-75.02-24.15-5.03-1.62-10.11-3.3-15.44-3.45-2.1-.68-4.28-.64-6.4-.13-6.49 1.31-12.71 3.71-18.52 6.86m150.13 32.02c-.4 2.82-.31 5.98-2.3 8.25-2.88 3.35-7.02 5.2-10.48 7.84-6.08 4.6-12.99 7.88-19.64 11.55-16.69 9.97-34.2 18.45-51.43 27.44-7.71 3.88-15.82 6.85-23.54 10.7.22 12.35-.02 24.71-.09 37.07-1.55 15.27-.63 30.67-.78 45.99 1.08 7.12 1.2 14.31 1.04 21.49 3-2.15 6.19-4.06 9.63-5.43 13.76-5.99 26-14.75 39.03-22.09 7.22-4.37 14.54-8.58 21.63-13.18 16-9.3 31.96-18.7 48.02-27.9 8.67-5.46 17.29-10.99 26.26-15.95.32-5.63-1.33-11.16-3.25-16.39-7.94-18.7-16.95-36.9-25.48-55.33-2.49-4.89-4.25-10.46-8.62-14.06m-270.22 41.11c-5.21 11.08-9.59 22.53-14.35 33.81-4.32 9.38-7.71 19.56-6.79 30.04 4.15.7 7.78 2.94 11.66 4.46 10 4.15 19.8 8.76 29.91 12.62 4.34 2.34 9.2 3.45 13.52 5.81 5.97 2.66 11.86 5.49 17.9 8.01 16.56 5.84 31.91 14.65 48.5 20.44 7.56 2.4 14.49 6.32 21.55 9.85 3.37 1.62 7.05 2.47 10.39 4.16 1.52-.09 3.57.65 4.37-1.15.35-6.06.26-12.2-.72-18.21-.52-4.35.01-8.75-.59-13.09-1.15-6.71-.2-13.56-1.46-20.26.07-7.62-1.4-15.12-1.24-22.74-.91-6.3-.79-12.68-1.82-18.95-.44-2.72.37-6.31-2.24-8.14-5.37-3.17-11.55-4.43-17.35-6.56-13.19-4.57-26.36-9.24-39.1-14.97-17.38-7.08-35.21-13.08-52.27-20.94-3.95-1.9-4.25-6.56-4.3-10.39-8.59 6.23-11.34 17.02-15.57 26.2m133.8 27.28c1.29 5.2.81 10.6 1.72 15.85.57 6.17.03 12.42 1.07 18.56.25 14.43 1.81 28.77 3.2 43.12.62 8.39-1.02 17.03 1.23 25.23 5.68 1.77 11.65 2.51 17.59 1.92.36-5.66-.25-11.33.15-16.99.19-3.08.78-6.13.73-9.22-.14-26.55-.03-53.11.29-79.67-8.57 1.67-17.29 1.51-25.98 1.2m122.17 54.51c-10.28 6.84-21.2 12.65-31.68 19.16-15.06 9.74-30.51 18.84-45.62 28.49-5.49 3.94-11.98 6.03-18.14 8.66-4.13.57-8 2.51-12.22 2.44-5.33.02-10.84-.26-15.83-2.27-8.94-4.31-17.92-8.59-27.24-11.99-12.12-4.93-23.44-11.57-35.58-16.43-10.22-4.19-20.22-8.87-30.17-13.64 1.24 2.77 2.47 5.58 4.34 8 6.45 8.74 13.28 17.37 21.83 24.16 12.43 10.35 27.17 17.89 38.28 29.83 1.22.05 2.45.11 3.68.16 3.29 1.13 6.63 2.28 9.46 4.36 4.01 2.94 8.72 4.67 13.03 7.1 2.16.98 4.96 2.57 7.21 1 6.38-4.05 12.99-7.84 18.74-12.78 6.57-.82 11.84 3.6 17.59 5.88 3.2 1.15 5.49 3.78 8.19 5.72.37 7.71.13 15.42.11 23.13-.5 4.33 3.91 6.49 6.01 9.64 5.64-1.13 10.57-4.23 15.71-6.64 8.64-4.18 16.38-9.95 23.69-16.12 6.36-6.25 13.06-12.29 18.17-19.67 16.22-21.65 25.96-47.65 30.24-74.23 1.01-5.77.9-11.67 2.01-17.42-6.85 5.14-14.73 8.67-21.81 13.46m-107.4 86.28c-3.92 2.99-8.27 5.33-12.3 8.16-.79.01-2.35.02-3.13.02-3.01-2.28-6.44-3.85-9.93-5.23-5.53-2.79-11.04-5.8-16.9-7.76-5.4.73-8.91 5.46-13.67 7.63.29 2.78 3.28 3.72 5.35 4.97 2.88 1.3 5.48 3.09 8.22 4.66 2.92 1.3 5.91 2.48 8.64 4.18-.06 1.68-.09 3.37-.13 5.05-6.29 3.65-11.38 8.99-17.22 13.29 3.89 2.96 7.95 5.89 12.73 7.24 7.3-4.82 14.87-9.23 22.01-14.29 1.71.01 3.42.05 5.15.15 5.84 4.66 13.07 7.08 19.64 10.53 2.62 1.03 5.75 3.62 8.38 1.26 4.16-3.01 9.45-4.82 12.55-9.08-4.27-1.74-8.44-3.73-12.32-6.23-4.08-2.6-8.69-4.15-12.84-6.6-.05-.93-.16-2.77-.21-3.7 6.17-5.22 13.5-8.93 19.56-14.35-4.38-1.74-8.57-3.99-13.1-5.3-3.87.86-7.32 3.08-10.48 5.4m12.89 17.57c5.07 3.97 10.9 7.27 17.17 8.84.12-6.5.12-13 .01-19.5-5.94 3.13-12.55 5.6-17.18 10.66m-75.56-6.67c-.39 5.59-.16 11.2-.29 16.81-.5 4.04-1.12 8.11-.62 12.2 3-2.16 5.01-5.37 7.99-7.57 4.72-4.03 10.54-6.48 15.19-10.61-7.41-3.65-14.93-7.05-22.27-10.83m-19.87 28.65c-21 14.65-42.33 28.81-63.16 43.7-6.8 4.92-14.1 9.11-20.79 14.15-.57 3.59-3.92 5.52-6.39 7.76-3.25 2.36-6 5.33-9.25 7.69-6.13 4-11.24 9.44-15.27 15.53-9.96 13.43-14.98 29.85-17.73 46.16-1.07 5.67-3.77 10.88-4.58 16.61-2.52 8.88-4.22 17.97-7.05 26.75-1.07 5.45-2.07 11.08-5.01 15.91-.49 1.35-2.11 1.1-3.2 1.51-.3-.49-.9-1.46-1.2-1.95-4.47-.55-8.11-3.27-12.16-4.95-3.58-1.51-6.99-3.39-10.62-4.78-4.85-2.83-9.98-5.89-15.85-4.68-2.43 3.18-4.85 6.36-7.11 9.66-1.62 2.06-.92 4.83-1.03 7.24 5.24 2.21 9.63 6.1 15.12 7.79 4.1 2.45 8.44 4.52 12.29 7.39 5.26 1.78 9.92 4.89 14.98 7.14 10.06 4.21 18.98 10.63 28.86 15.18 6.84 3.66 14.43 5.87 20.88 10.31 3.85 2.71 8.41 4.06 12.52 6.31 7.32 4.17 15.45 6.69 22.41 11.51 4.89 2.12 9.13 5.57 14.28 7.09 3.09 3.17 7.62 3.98 11.25 6.36 4.88 3.03 10.33 4.96 15.38 7.67 11.79 6.43 23.78 12.57 36.07 17.98 4.93 3.25 10.28 6.03 15.86 7.99 1.54 1.31 3.19 2.53 5.07 3.35 7.97 3.78 15.54 8.35 23.59 11.97 6.08 2.46 12.33 4.73 17.78 8.45 4.17 2.81 9.08 4.17 13.33 6.84 1.67 1.15 3.73 1.17 5.68 1.46.09-3.73.11-7.47-.34-11.18-1.25-5.02-.66-10.51-2.72-15.3-4.76-3.37-10.58-4.93-15.44-8.18-7.34-4.77-16.34-6.89-22.62-13.24-.29-5.91 1.44-11.66 2.83-17.34 5.48-16.83 8.55-34.32 13.65-51.26 1.01-4.75 2.07-9.5 4.02-13.98 2.67-9.29 7.09-18.46 14.37-25.02 4.04-4.08 9.36-6.59 14.34-9.33-.3-2.2-.76-4.36-1.36-6.49 4.92-6.13 12.3-9.37 19.19-12.74 9.8-4.36 18.07-11.34 27.29-16.72 3.36-1.91 6.41-4.29 9.74-6.24 9.39-5.37 17.61-12.49 26.69-18.32 10.12-7.4 21.04-13.6 30.92-21.33 5.67-4.68 12.13-8.21 18.25-12.25.1-1.76.19-3.52.28-5.27-3.72-1.85-7.02-4.51-10.99-5.84-9.96-3.46-19.2-8.63-28.42-13.67-5.95-4.03-12.94-6.06-19.04-9.81-3.94-2.56-8.64-3.62-12.31-6.63-6.85-3.5-13.66-7.3-21.04-9.58-3.7-1.28-7.04-3.37-10.15-5.71-.05 1.17-.09 2.34-.13 3.51 5.06 1.61 9.53 4.5 13.96 7.36 4.26 2.06 8.26 4.65 12.64 6.48.14.53.42 1.59.56 2.11 8.8 4.83 17.69 9.58 25.96 15.33.6.06 1.8.17 2.41.22 6.69 4.36 13.32 8.93 20.83 11.82 3.87.62 2.26 5.05 2.5 7.78-1.18.78-2.33 1.58-3.47 2.38-1.74-.02-3.46-.06-5.17-.14-.9-.18-1.97-1.21-2.78-.26-2.93 1.67-4.58 4.71-4.85 8.01-9.42 7.55-19.74 13.83-29.8 20.45-8.78 6.64-18.34 12.14-27.1 18.79-4.79 3.55-9.92 6.67-15.43 8.96-2.41.21-4.83.03-7.23.01-3.23 3.05-4.37 8.16-8.8 9.88-2.71-.38-5.06-2.04-7.6-2.99-13.85-5.79-26.77-13.56-40.55-19.49-2.26-1.02-4.36-2.38-6.68-3.24-2.69-.5-5.45.4-8.11-.2-2.78-1.66-5.65-3.14-8.65-4.36-10.81-5.9-21.68-11.75-32.95-16.68-2.47-1.27-2.81-4.26-4.21-6.39-2.89-2.56-6.82-3.37-10.05-5.38-4.83-2.9-9.75-5.63-14.82-8.07-7.41-3.44-14.25-7.94-21.56-11.58-2.54-1.16-4.3-3.38-6.11-5.39-.04-.52-.13-1.55-.17-2.06 3.6-3.06 8.52-3.16 12.75-4.81 2.46-1.45 2.07-5.14 4.43-6.73 8.14-5.88 16.41-11.59 24.58-17.43 12.45-7.52 23.26-17.36 35.76-24.79 1.21-.98 3.46-1.66 3.26-3.57.12-4.93.01-9.86-.05-14.79-5.68 2.2-10.46 6.19-15.46 9.59m46.88 11.02c-.02 16.67-.16 33.34.07 50 1.43 7.66.18 15.46.79 23.19 6.05-4.05 12.69-7.38 17.98-12.46-.25-24.75.41-49.52-.2-74.26-5.95 4.88-13.1 8.1-18.64 13.53m24.02-12.52c-.21 24.36-.51 48.72-.13 73.07 6.65 5.2 15.15 7.23 21.74 12.51 1.23-1.73 2.33-3.66 2.08-5.87.03-19.37-.01-38.74-.05-58.11.06-3.58-.51-7.11-.93-10.64-3.86-1.93-7.33-4.59-11.44-6-3.96-1.26-6.93-4.84-11.27-4.96m33.69 7.83c-2.11 1.42-5.55 2.54-4.92 5.73-.35 23.71.04 47.42-.14 71.13 5.45-.94 9.17-5.41 13.63-8.29 1.92-1.57 5.36-2.59 4.65-5.72-.05-22.94-.01-45.88-.11-68.82-5.09-.06-8.89 3.7-13.11 5.97m-80.57-3.65c-.04 22.16-.07 44.34-.02 66.51.11 2.22.51 4.41.81 6.62 4.43 3.42 9.68 5.5 14.28 8.66 1.16.05 2.34.09 3.52.14.19-24.49.38-48.98-.08-73.47-5.04-2-9.69-4.83-14.41-7.48-1.22-.82-2.71-.81-4.1-.98m-24.21 24.63c-12.08 8.67-23.91 17.81-37.13 24.72q-.09 2.13-.15 4.26c5.29 4.15 11.77 6.2 17.52 9.58 8.06 4.68 16.61 8.46 24.66 13.16 5.09 2.81 10.65 4.67 15.73 7.53 3.87 2.13 7.56 4.63 11.68 6.28 6.59 2.53 12.33 6.81 19 9.17 7.24 3.62 14.13 7.91 21.61 11.07 6.6 2.71 12.93 8.01 20.5 6.53 7.55-1.57 12.98-7.42 19.32-11.34 7.02-5.4 15.23-9.09 21.98-14.88 4.1-3.67 8.89-6.39 13.51-9.33 4.14-1.66 7.35-4.83 11.22-6.96 4.95-3.74 9.3-8.18 14.6-11.45-.03-1.04-.03-2.08-.03-3.11-13.1-5.38-25.03-13.17-38.07-18.67-4.58-2.21-8.63-5.8-13.86-6.36-.27 11.92.11 23.85-.11 35.77-7.78 4.71-14.74 10.68-22.53 15.41-1.94-.07-3.99.31-5.82-.43-7.94-3.67-15.48-8.11-22.99-12.55-1.15-.01-2.28-.01-3.41-.01-6.85 4.48-13.75 8.9-20.86 12.97-3.86 2.42-7.64-1.46-11.29-2.47-5.23-2.69-12.37-4.15-14.72-10.21-.74-9.42.32-18.9-.4-28.33-.71-.02-2.13-.05-2.84-.07-.71-1.45-1.8-2.78-1.99-4.41-.56-8.33.1-16.68-.11-25.01-5.4 2.33-9.87 6.31-15.02 9.14m-57.1 35.5c.04 1.83.11 3.67.19 5.51.9.09 1.8.19 2.7.29-.02-1.96-.02-3.92-.01-5.87-.97.02-1.93.04-2.88.07m10.05 1.86c-.03 2.95-.66 7.03 2.76 8.42 8.7 3.15 16.22 8.8 24.82 12.19 10.24 6.1 21.19 10.81 31.63 16.51 6.95 2.99 13.1 7.54 20.22 10.17 8.64 4.17 16.86 9.18 25.38 13.62 3.4 1.53 6.78 3.12 10.03 4.96 3.55 1.98 7.6 2.9 11.06 5.06 2.83 1.7 5.74 3.26 8.6 4.91.74-.49 1.48-.97 2.23-1.43.13-3.15.03-6.4-1.6-9.19-5.6-1.25-10.69-3.95-15.8-6.46-17-8.57-34.3-16.58-50.67-26.35-1.46-.79-3.06-1.21-4.63-1.66a234 234 0 0 0-1.46-1.83c-1.13-.03-2.25-.05-3.36-.07-.37-.42-1.13-1.26-1.5-1.68-4.03-.12-7-3.1-10.38-4.87-14.18-7.67-28.86-14.35-42.79-22.45-1.52.03-3.04.08-4.54.15m212.54 17.55c-16.5 12.41-34.46 22.79-51.04 35.02-5.65 2.82-10.27 7.4-16.22 9.66-2.12.66-3.8 2.07-5.23 3.71.04 2.73.05 5.47.08 8.21.83.86 1.66 1.73 2.5 2.61 3.5-3.26 7.27-6.19 11.13-9 9.83-8.59 21.84-14.03 32.31-21.68 4-2.28 7.28-5.63 11.55-7.46 5.98-4.83 12.83-8.47 18.78-13.33 1.33-.56 2.68-1.11 4.02-1.67 2.77-3.19 6.6-5.08 10.19-7.17.5-1.96 1.01-3.93 1.51-5.89-1.51-.78-3.05-1.48-4.61-2.11-5.49 2.16-10.03 5.99-14.97 9.1m28-6.64c-.66.1-1.97.3-2.62.39.74.86 1.49 1.71 2.25 2.57 1.24-.44 2.49-.9 3.76-1.34-1.11-.78-1.88-1.88-2.44-3.08-.33.48-.65.97-.95 1.46m37.9 11.09c-.87.85-1.73 1.7-2.59 2.56-.55 4.11 1.11 7.95 1.99 11.88 1.45 9.2 6.17 17.42 8.4 26.41 1.15 5.27 2.71 10.49 4.8 15.47.54-.16 1.61-.49 2.15-.65 4.8-5.08 9.56-10.26 13.59-15.98 1.82-2.53 4.51-4.8 4.44-8.19-4.08-2.83-6.78-7.08-10.3-10.49-4.44-4.29-7.37-9.88-11.87-14.12-2.49-2.29-4.93-4.62-7.18-7.14-.86.06-2.57.18-3.43.25m-54.02 2.92c-1.4 1.56-3 3.05-5.18 3.28-4.66 2.58-8.76 6.06-13.52 8.5-4.36 2.19-7.76 5.95-12.39 7.62-2.78 3.4-6.94 5.04-10.47 7.48-4.92 3.08-8.92 7.46-14.19 9.99-2.3 1.02-3.45 3.36-4.76 5.35-.7-.02-2.12-.08-2.82-.1-.02.61-.04 1.84-.05 2.45.27-.35.8-1.05 1.07-1.4 5.34-1.42 9.29-5.45 14.02-8.04 5.05-2.83 9.39-6.68 14.31-9.71 5.49-3.37 10.99-6.78 15.99-10.88 5.76-5.19 13.37-7.78 18.83-13.37.83-.23 2.48-.69 3.31-.91-1.4-.12-2.76-.2-4.15-.26m14.06 22.89c-17.53 13-36.08 24.49-54.14 36.71-5.84 4.25-12.68 7.16-17.62 12.57 1.73 3.47 4.08 6.63 5.3 10.36 4.35 11.81 8.21 23.78 12.21 35.71 6.08 13.54 8.5 28.4 14.53 41.95 1.18 6.46 4.72 12.61 3.14 19.38-9.9 5.71-18.97 12.69-28.29 19.28-13.26 8.56-26.76 16.83-39.5 26.12-.83 5.95 1.7 11.67 1.88 17.59.08 2.98.61 5.92 1.27 8.84 4.75-2 8.56-5.58 12.97-8.18 5.56-3.88 11.69-6.86 17.08-10.99 7.25-5.52 15.48-9.55 22.74-15.05 4.6-3.16 8.5-7.37 13.62-9.74 8.7-4.12 15.88-10.68 24.01-15.72 6.8-3.25 12.4-8.41 18.73-12.42 3.54-2.44 7.44-4.35 10.68-7.2 2.41-2.03 5.53-2.95 8-4.9 9.77-7.11 20.51-12.74 30.36-19.72 8.65-5.47 16.8-11.69 25.51-17.07 7.11-3.67 12.92-9.29 19.69-13.5 8.34-5.37 16.3-11.32 25.01-16.11 4.62-3.78 9.56-7.17 14.14-11.01 2.12-1.66 4.86-2.22 7.04-3.77 1.79-1.49.71-3.81.17-5.62-5.62-4.47-11.64-8.37-17.54-12.42-4 2.8-7.93 5.69-11.69 8.81-9.19 5.28-17.91 11.41-26.15 18.07-7.79 4.54-15.79 8.81-22.97 14.31-.86-.02-2.57-.07-3.43-.09-2.28-5.74-3.65-11.79-6-17.51-2.71-8.55-6.45-16.76-8.65-25.47-.43.02-1.29.05-1.71.06-5.78 5.32-11.85 10.31-18.22 14.9-.98.02-2.93.07-3.91.09.26-1.71-.56-3.97 1.24-5.06 7.02-5.69 13.56-11.96 20.07-18.22-6.58-15.36-10.71-31.59-16.52-47.22-.74-2.12-1.43-4.24-1.98-6.41l-2.1-.12c-9.96 5.8-19.33 12.47-28.97 18.77m55.45 38.4c3.22 8.21 5.79 16.65 8.39 25.08 5.33-.29 8.33-5.41 12.94-7.38 2.39-.91 4.12-2.82 5.72-4.74.02-8.24-.41-16.49.04-24.73 1.32-1.08 2.62-2.19 3.93-3.31.01-.78.02-1.56.04-2.34-1.21-1.12-2.4-2.26-3.55-3.42-1.06-2.16-2.75-3.89-4.43-5.55-7.58 8.9-14.68 18.23-23.08 26.39m33.38-11.76c-.06.66-.11 1.32-.14 2 5.45 3.02 10.98 5.98 16.07 9.61-.14 1.45.03 2.99-.52 4.38-3.28 2.96-7.26 5.01-10.7 7.79.05 1.8.09 3.61.13 5.43-5.25 3.28-9.89 7.4-14.51 11.48-2.78.07-5.45-.55-7.98-1.64-1.25-.83-2.52.09-3.7.53-.35 4.49-.05 9.02 1.32 13.33 7.26-3.09 11.88-9.96 18.99-13.27 6.84-4.04 13.7-8.13 19.89-13.13 4.73-3.97 10.17-6.98 14.86-11-.07-.85-.13-1.7-.17-2.54-5.24-1.72-9.74-5.01-14.63-7.45-4.63-2.88-9.89-4.39-14.69-6.86-1.44.35-2.83.87-4.22 1.34m-424.22 5.56c-4 2.7-7.23 6.38-11.36 8.89-7.89 5.1-16.26 9.68-23.26 15.98-.76.13-1.51.27-2.26.42 1.41 1.92 2.65 4.15 4.82 5.33 5.84 3.31 12.03 5.93 17.99 9.02 2.06 1.14 4.42 1.36 6.73 1.53.9-3.56 2.68-6.99 2.25-10.77-2.45-1.14-4.8-2.46-7.15-3.79.03-1.21-.07-2.42.2-3.6 2.43-3.52 5.47-6.55 8.58-9.46 2.71-2.46 4-5.95 5.17-9.31.18.51.53 1.53.71 2.04.17-2.1.32-4.2.47-6.3-.97 0-1.93.01-2.89.02m421.82 1.57c-.08 5.27-.06 10.55-.02 15.83 5.01-.93 8.3-5.13 12.16-8.06-.05-.75-.14-2.23-.19-2.97-3.96-1.74-7.34-5.04-11.95-4.8m-425.78 18.38c-1.13.76-2.26 1.52-3.4 2.28-.4 2.7 1.54 4.18 4.1 4.11.32-2.17.78-4.32 1.31-6.44-.5.01-1.51.04-2.01.05m253.2 5.31c-9.56 6.21-16.79 15.23-23.95 23.95-8.33 14.5-12.74 30.85-16.54 47.04-2.81 14.47-8.57 28.25-10.15 42.99 1-.13 2.01-.25 3.02-.38 2.45-2.08 5.5-3.63 8.81-2.9 6.82 1.68 12.11 7.38 19.27 8.05 2.07-2.12 4.56-3.72 7.09-5.23 6.36-4.19 12.62-8.66 17.8-14.28.74-5.64.14-11.36.34-17.03-.08-28.16.11-56.32-.36-84.48-2.05.02-3.82.96-5.33 2.27m167.7-.17c-1.78 1.42-3.65 2.72-5.53 4 3.05.21 5.86-.93 8.46-2.4l.24-1.86c-1.07.08-2.13.16-3.17.26m71.2 1.67c-.07 1.62-.13 3.24-.17 4.88-6.37 8.22-16.8 11.07-25.11 16.74.01.7.03 1.41.07 2.13 2.55.96 5.04 2.09 7.46 3.37 8.57-3.48 15.5-9.74 23.47-14.3 2.77-1.55 1.89-5.08 2.09-7.7-2.27-2.15-4.53-4.71-7.81-5.12m-225.05 25.72c-.14 18.34 0 36.67.12 55 .09 4.53-.54 9.11.31 13.6 1.71-.06 3.43-.1 5.15-.14 3.09-1.88 5.72-4.36 8.48-6.66 2.01-1.83 4.87-1.17 7.34-1.32 1.42 1.26 2.87 2.49 4.34 3.71.51.08 1.54.22 2.05.29-4.5-5.55-4.11-13.22-6.87-19.55-1.7-3.68-2.4-7.71-3.91-11.45-5.71-13.96-9.3-28.73-15.82-42.38-2 2.53-.99 5.94-1.19 8.9m229.05-7.46c-5.88 5-13.09 7.99-19.17 12.72.02 3.41.04 6.83.07 10.25.92-.1 1.86-.2 2.81-.28 6.38-3.5 12.43-7.69 17.88-12.5.3-1.28.6-2.55.92-3.82.16-2.23.28-4.47.38-6.69-.97.1-1.94.21-2.89.32m-560.07 9.42c-.91 3.94 2.59 6.95 5.75 8.49 6.74 3.01 12.78 7.47 19.78 9.91 3.74.7 7.12-1.92 9.81-4.2-4.97-2.68-10.08-5.11-15.03-7.83-4.4-2.46-9.59-3.54-13.32-7.12-.42-2.05-.94-4.06-1.43-6.07-2.08 2.03-4.76 3.87-5.56 6.82m525.13-1.45c-.39 4.55-.48 9.13-.02 13.69 1.5.06 3 .12 4.53.2.69.59 1.4 1.19 2.12 1.79 1.6.38 3.2.81 4.8 1.23.8-3.93 2.95-9.63-1.1-12.39-3.1-2.14-6.48-4.28-10.33-4.52m-9.96 7.34c-5.23 3.87-10.96 6.98-16.18 10.87-4.95 2.99-10.13 5.77-14.24 9.91.34 16.09-.09 32.18.06 48.28 1.85-.42 3.65-1.1 5.2-2.23 9.44-6.53 19.55-12.21 27.93-20.15 2.88-2.66 2.8-6.98 2.88-10.59-.14-12.87.04-25.75-.22-38.61-1.93.56-3.83 1.28-5.43 2.52m-515.09 4.65c.27 4.09-1.56 9.35 2.14 12.36 4.78 4.35 11.24 6 16.62 9.46 5.14 2.56 9.78 6.51 15.61 7.36 3.4 2.19 7.43 3.39 10.32 6.34 2.59 1.04 5.1 2.29 7.49 3.77 5.61 3.44 12.22 4.73 17.92 8 5.09 3.63 10.62 6.71 16.42 9.03 1.27-4.21 1.19-8.62 1.02-12.97-3.72-1.7-7.74-2.68-11.33-4.64-7.44-4.77-15.48-8.47-23.28-12.57-6.88-2.42-12.87-6.58-19.41-9.71-4.13-1.13-7.35-4.1-11.3-5.59-6.98-2.81-13.56-6.54-19.81-10.71-.81-.05-1.61-.09-2.41-.13m525.87 6.95c-.45 9.83.63 19.74-.92 29.5.12 5.44-2.48 10.35-3.69 15.54-3.46 10.79-6.95 21.68-8.5 32.93 3.18-1.99 6.58-3.84 8.79-6.99.43-2.95 1.36-5.78 2.41-8.55 1.34-3.46 1.68-7.27 3.5-10.55 1.38-5.71 3.05-11.34 4.93-16.91 1.31-4.78 1.68-9.76 3.06-14.52.3-6.35.29-12.73.19-19.08-3.21-.79-6.46-1.44-9.77-1.37m-492.28 3.14c.09.59.27 1.79.36 2.39 2.42 1.41 4.97 2.56 7.4 3.95 11.6 5.08 22.04 12.49 33.78 17.32 3.49 1.35 6.89 3.01 9.92 5.24.95.07 1.91.15 2.87.24-.02-1.04-.04-2.07-.05-3.1-5.52-.82-8.81-5.64-13.77-7.63-7.97-3.68-15.41-8.8-24.06-10.79-3.29-3.47-8.14-4.44-11.86-7.29-1.33-1.03-3.09-.47-4.59-.33m-7.86 20.49c1.17 14.29 4.94 28.15 7.67 42.17 2.42 10.06 4.04 20.31 6.51 30.37 2.68 3.36 6.6 5.25 10.04 7.69.96.13 1.94.27 2.92.42-.23-10.57.07-21.16-.45-31.72-1.1-5.85-.34-11.85-1.4-17.7-.8-6.17-.18-12.37.63-18.49-4.22-1.61-7.7-4.69-12-6.09-4.87-1.7-9.19-4.61-13.92-6.65m69.56 5.41c-.28 1.86-1.4 3.09-3.25 3.51-2.11 4.98-1.13 10.51-1.33 15.77 4.73-.07 8.15-3.93 12.78-4.55.74.83 1.48 1.66 2.24 2.5.02 8.12 1.36 16.16 1.22 24.29 2.07 11.5-.37 23.36 2.63 34.76.42 3.14.66 6.35 1.64 9.39.76 2.29 3.2 3.18 5.38 3.49-.06-4.94-1.1-9.79-1.12-14.73-.06-3.37-2.1-6.12-3.62-8.94-.33-1.71-.21-3.46-.22-5.17.99-1.23 2.58-2.18 2.97-3.78.64-8.07-1.25-16.02-1.14-24.07-1.58-8.11-.71-16.38-.83-24.57-5.79-2.6-11.21-6.15-17.35-7.9m358.59.01c-8.34 5.79-17.36 10.59-25.52 16.64-2.29 1.41-2.22 4.44-2.42 6.8-.19 14.08.11 28.16-.06 42.23 4.91 3.34 10.38 5.72 15.62 8.5 1.78 1.08 3.9.88 5.91.92.31-2.24 1.03-4.39 2.05-6.4 1.34-5.36 2.21-10.85 3.93-16.11 2.49-7.43 3.46-15.3 3.24-23.11-.09-9.87-.15-19.73-.03-29.6-.92.04-1.82.08-2.72.13m-398 10.59c.01 4.98-1.23 9.86-1.05 14.84.18 6.4-.33 12.84.58 19.2.75 5.89-.07 11.88.93 17.75 1.24 8.06-.2 16.33 1.58 24.33 5.95 3.27 11.59 7.14 17.86 9.82 6.94 2.73 12.79 7.58 19.75 10.27 3.9 2.13 8.48 3.46 11.43 6.96 5.64.31 10.19 4.12 15.57 5.46.54.97 1.08 1.96 1.62 2.95 2.69-.53 5.33-1.4 8.1-1.37 4.82 2.86 9.75 5.8 15.15 7.43 9.67 5.01 19.68 9.34 29.31 14.45 4.68 2.54 9.97 3.84 14.44 6.77 3.01 2.81 4.29 6.92 6.8 10.14 7.7 3.37 15.11 7.35 22.55 11.25 3.63 1.74 7.58 3.01 10.6 5.79 11.83 4.98 23.48 10.54 34.34 17.4.28-5.22-1.02-10.35-1.03-15.56-1.73-9.48-.16-19.17-1.51-28.68-1.01-11.81.55-23.77-1.27-35.5-9.52-5.38-19.51-9.86-29.21-14.9-5.28-3.28-11.01-5.7-16.58-8.4-1.2-.52-2.5-.67-3.76-.9-.21 13.15-.08 26.3-.17 39.45.07 4.27-.72 8.47-1.17 12.71-5.48.65-10.26-2.84-14.1-6.33.15-5.23-.62-10.44-1.4-15.59-.65-4.27-5.41-5.19-8.47-7.2-5.65-2.87-8.14-8.99-11.24-14.12-1.12-2.03-2.91-4.91-.83-6.91 2.83-3.13 4.61-7.33 3.92-11.61-1.78-10.19.42-20.66-2.07-30.78-5.76-.44-9.95 5.81-15.78 4.19-5.41-2.8-10.68-5.93-15.77-9.27-1.9-1.15-4.16-1.42-6.26-1.96-1.32 5.91-.7 12.04-1.92 17.98.41 7.76-.98 15.4-1.26 23.13-1.89.05-3.77.1-5.65.13-2.02-1.52-4.26-2.74-6.77-3.17-.33.64-1.01 1.93-1.35 2.57-.07 4.54-.09 9.08-.17 13.62l-3.96-.09c-3.27-3.86-10.19-3.69-11.75-9.07-.54-10.11-2.59-20.11-2.25-30.26.31-7.38-1.13-14.64-1.23-21.99-1.14-5.25-.24-10.72-1.81-15.89-3.29.9-6.1 2.85-8.99 4.57-1.77 1.18-4.18 1.23-5.97.06-3.83-2.32-8.6-2.8-11.89-6.01-6.49-1.02-11.87-5.26-17.89-7.66m65.9 3.18c-.11 3.69-.23 7.38-.12 11.07 3.5-2.36 6.07-6.39 5.04-10.72-1.65-.12-3.29-.23-4.92-.35m384.83 5.12c-6.15 4.58-12.68 8.63-18.82 13.21-2.63 2.26-5.62 4.57-6.5 8.11-2.55 6.21-4.96 12.48-6.86 18.93.54-.07 1.63-.2 2.18-.26 3.5-2.5 7.06-4.92 10.42-7.6 6.83-4.82 14.44-8.7 20.35-14.72 2.36-2.26 2.89-5.62 3.9-8.58 1.23-4.57 3.85-8.76 3.9-13.61-3.37.37-5.94 2.62-8.57 4.52m-169.92 4.1c-.21 2.03 1.06 4.79-1.06 6.13-4.26 3.2-8.13 7.23-13.32 8.9-3.42.66-6.91-.05-10.35.02-3.69 3.66-8.55 5.73-12.52 9.03-4.14.55-7.79-1.69-11.46-3.2-3.26-1.4-6.52-2.83-9.4-4.92-4.4-.03-7.66 3.46-11.82 4.4-.03 1.08-.05 2.16-.06 3.26 6.01 2.99 11.79 6.43 17.81 9.45 4.49 2.15 8.91 5.28 14.12 5.08 4.94-5.29 12.2-7.16 17.84-11.46 7.58-5.56 14.79-11.71 23.13-16.14 6.31-3.27 12.11-7.46 17.15-12.47a12.73 12.73 0 0 0-7.35-3.24c-4.95-.84-8.5 3.39-12.71 5.16m-208.22 3.05c3.31 1.37 6.5 3.03 9.9 4.21 3.92 2.12 8.02 3.93 11.77 6.37 3.7 2.06 7.42 4.72 11.85 4.55-.11-1.28-.21-2.54-.31-3.81-6.6-3.83-13.92-6.14-20.55-9.89-4.08-1.86-7.88-4.64-12.49-4.98-.07 1.18-.12 2.36-.17 3.55m275.79 6.33c-5.92 3.16-10.76 7.87-16.38 11.49-1.65 6.42-.93 13.12-.87 19.66 1.28 6.49.76 13.11.69 19.68.95-.09 1.91-.17 2.88-.23 7.78-5.63 16.23-10.34 23.61-16.53 1.5-1.17 2.52-2.97 2.35-4.91.27-11.9.01-23.81-.05-35.71-4.53 1.21-8.22 4.26-12.23 6.55m-277.7-3.73.2 2.06c4.6 2.88 9.39 5.48 14.18 8.05 2.84 1.49 5.43 3.5 8.53 4.46 3.68 1.06 6.51 4.2 10.55 4.13l-.16-2.15c-4.7-2.8-9.31-6.07-14.64-7.52-4.83-2.05-9.42-4.6-14.07-7.01-1.54-.66-3.07-1.34-4.59-2.02m-5.8 3.86c.22 4.68-1.19 9.81 1.3 14.1 3.2-2.61 5.35-6.34 4.95-10.57-1.78-1.68-3.64-3.48-6.25-3.53m45.79 14.81c4.81-.67 8.81-3.79 13.59-4.65-1.65-.87-3.27-1.73-4.87-2.65-4.57-1.41-9.17 2.59-8.72 7.3m-41.25 1.55c-2.15 3.75-5.32 6.76-7.72 10.34.01.87.02 2.62.03 3.5 4.13 2.04 9.01 5.12 13.61 2.83 2.8-7.62 2.85-16.02 2.67-24.07-4.37.06-6.55 4.18-8.59 7.4m375.47-2.42c-.04 1.05-.08 2.1-.09 3.16.65.33 1.95.99 2.61 1.31 1.14.12 2.29.25 3.45.41.72-2.97 1.05-6.01.95-9.06-2.42 1.21-4.7 2.65-6.92 4.18m-319.2-1.91c.08 4.63.24 9.28.18 13.92-.27 6.39 1.36 12.66.96 19.05 2.05-.21 3.81-1.18 5.24-2.63-.42-9.58.24-19.17-.28-28.74-2.02-.62-4.06-1.17-6.1-1.6m10.05 5.05c.31 7 1.42 13.93.9 20.96.82-.13 2.48-.4 3.3-.53 1.5-1.67.84-4.24 1.27-6.29.36-1.06.73-2.12 1.11-3.16 1.43-.71 2.64-1.75 3.72-2.91-.1-1.4-.2-2.79-.28-4.18-3.22-1.68-6.11-4.3-10.02-3.89m13 11.34c-.94 3.79 3.07 5.06 5.99 5.35 1.86 1.16 3.72 2.36 5.6 3.52 1.01.27 2.03.55 3.05.84 11.03 6.56 22.28 12.79 34.1 17.83 1.51.69 3.24.55 4.87.76-.18-.7-.55-2.11-.73-2.81-8.31-3.96-16.62-7.97-24.6-12.55-8.09-4.37-16.59-8-24.42-12.81-.97-.03-2.9-.09-3.86-.13m139.55 11.63c-4.92 3.89-10.52 6.73-15.69 10.25 2.91 2.76 6.16 5.12 9.4 7.48-.15 5.14.16 10.25.84 15.34-3.09 3.7-6.17 7.51-10.08 10.4-1.62 1.43-4.13 2.8-3.74 5.37.52 3.99.46 8.16 1.82 12 12.22-6.4 23.41-14.55 34.05-23.28-.12-15.73.43-31.47-.16-47.18-5.84 2.54-11.27 5.93-16.44 9.62m-144.32-4.56c.53 3.61 1.14 7.22 2.1 10.75 19.34 10.92 39.77 19.68 59.14 30.56 10.74 5.15 20.83 12.25 32.82 14.19 6.78 1.53 13.7-.21 20.09-2.48 5.13-2.77 9.29-6.98 14.07-10.29 2.24-1.79 5.17-3.13 6.32-5.93.42-3 .17-6.05.16-9.07-8.67 3.1-15.39 10.09-24.16 13.06-8.67 4.01-19.4 3.5-27.66-1.33-4.12-1.9-8.31-3.66-12.24-5.93-4.85-2.37-8.94-6.22-14.26-7.57-8.32-3.5-16.03-8.25-24.13-12.22-5.55-3.44-11.93-5.13-17.5-8.54-4.85-1.93-9.19-6.07-14.75-5.2m203.03 11.16c-3.96 3.7-8.82 6.27-13.86 8.18-1.22 1.89-2.26 3.94-2.48 6.22-.81 5.34-2.15 10.57-3.43 15.82-1.02 3.61-2.42 7.17-2.49 10.98 1.32-.41 2.7-.79 3.8-1.69 7.31-5.63 16.08-9.08 23.1-15.13 4.82-4.07 10.24-7.36 15.93-10.06 4.01-1.78 7.21-4.9 11.07-6.96.09-.5.28-1.5.37-1.99 2.58-1.42 5.2-2.77 7.89-3.96.01-.74.02-1.49.05-2.22-7.6-3.08-14.72-7.62-22.48-10.15-6.26 2.88-11.95 6.87-17.47 10.96M486.3 664.28l.21 3.09c1.97 3.6 4.91 6.65 9.09 7.51-.02-1.31-.02-2.6-.04-3.89-2.62-1.9-4.9-4.21-7.22-6.45-.51-.07-1.53-.2-2.04-.26m59.26 21.71c-.07 1.4-.12 2.81-.16 4.23 3.73 1.48 7.51 5.66 11.76 3.85 4.5-3.85 8.47-8.63 10.54-14.25-3.3-2.36-3.77-6.43-4.61-10.08-1.25-.04-2.5-.07-3.73-.09-5.38 4.76-9.06 11.02-13.8 16.34m85.85-3.58q.12 1.455.27 2.94c1.32.07 2.65.14 3.99.23-.05-1-.09-1.99-.12-2.98-1.4-.07-2.77-.13-4.14-.19m37.37 12.64c-1.83.87-3.93.49-5.87.58-5.56-3.2-11.39-5.91-17.3-8.38-1.84-.93-3.93-.82-5.93-.82-1.42 1.09-2.87 2.16-4.31 3.23l.2 1.55c3.38 2.44 7.38 3.78 10.9 5.98 4.09 2.64 8.8 4.13 13.52 5.16 6.48.27 13.69 1.09 19.23-3.06 5.59-5.02 12.86-7.42 19.29-11.15 0-.78.02-1.55.05-2.31-3-1.2-5.96-3.58-9.31-3.08-6.91 3.95-13.23 8.92-20.47 12.3m-107.4 1.22c-2.05 3.02.41 6.46 1.32 9.44 3.19 6.83 3.81 14.39 4.81 21.75 1.63.5 3.28.93 4.96 1.32.07-13.61-.01-27.21.06-40.82.05-1.8-.21-3.62-1.28-5.1-4.47 3.5-7.02 8.64-9.87 13.41m-13.96-1.17c.05.57.16 1.71.21 2.28 3.5 3.36 5.86 8.59 11.09 9.51.15-3.12-1-6-3.22-8.17-2.95-.58-5.54-2.12-8.08-3.62m254.12 5.42c-3.35 3.24-8.61 4.68-10.9 8.86-.31 12.74-.31 25.5-.2 38.25 6.54 5.63 15.06 9.21 23.78 8.68.02-1.11.06-2.2.11-3.29-2.12-4.58-5.51-8.49-9.99-10.87-.29-6.73.12-13.45 1.04-20.11-.17-8.41 2.38-16.6 2.14-24.97-2.12.9-4.3 1.82-5.98 3.45m-337.07 7.57c-.12 10.35 1.97 20.57 3.1 30.83.24 3.2 1.46 6.47.62 9.67-2.61 2.88-5.58 5.52-7.34 9.07.39.85.78 1.71 1.16 2.59 7.85.04 15.39-2.78 22.34-6.21.24-12.03-.02-24.06 0-36.09-6.88-2.76-13.18-6.72-19.88-9.86m169.05 9.8c-.31 4.74 1.07 9.38.86 14.11.11 2.39-.44 5.01.84 7.19 2.04-6.66-1.12-13.67 1.07-20.28-.32-1.38-.7-2.74-1.11-4.07-1.35.56-1.9 1.58-1.66 3.05m69.29 10.12c-4.46 3.04-9.79 4.97-13.01 9.54-1.88 7.6-5.92 14.53-7.39 22.22 6.8-4.73 14.14-8.67 20.96-13.34 3.33-3.21 7.49-5.27 11.1-8.08 2.9-2.22 2.65-6.2 3.78-9.34 1.2-4.83 4.56-8.99 4.58-14.11-7.32 3.33-13.15 9.04-20.02 13.11m-64.14-10.38c.19 14.09-.42 28.22-.16 42.34-.42 8.48 2.07 16.75 1.87 25.23 4.4 2.89 8.85 5.8 13.81 7.66.85-1.88 2.12-3.68 2.25-5.79.55-8.45 5.02-15.99 6.28-24.26.38-.22 1.15-.66 1.54-.88-.04-5.95 3.59-10.93 4.84-16.58 1.68-7.07 1.94-14.61.08-21.66-6.82.45-13.41-1.41-20.1-2.34-3.02-1.86-5.88-4.25-9.42-5.02-.25.33-.75.98-.99 1.3m35.67 5.94c-.37 6.13.63 12.29-.19 18.4-1.5 5.81-3.08 11.62-4.97 17.33-1.48 4.64-3.66 9.08-4.37 13.95-.99 6.16-4.84 11.44-5.66 17.63 3.41-.08 6.2-2.13 9.07-3.7 1.06-5.07 3.5-9.67 5-14.6 3.25-10.91 5.82-22.05 10.05-32.64.92-6.61.37-13.34.47-19.99-3.4.42-6.47 1.96-9.4 3.62m39.21 19.99a81 81 0 0 0-5.58 4.37q2.145 2.355 4.41 4.62c1.03-.01 2.08 0 3.13.02.05-3.12.11-6.24.17-9.35-.53.09-1.6.26-2.13.34m-30.09 21.76c-.67.53-1.34 1.06-2 1.6-.47 9.22.32 18.45.12 27.67.88-.05 1.76-.09 2.66-.12 1.97-9.06.86-18.33.99-27.5.1-1.37-.35-2.64-1.09-3.76zm-9.16 20.25c-2.28 2.47-4.86 4.67-7.76 6.39-.08 1.78-.13 3.58-.17 5.38 3.64.7 7.31 1.3 11.04 1.29.31-5.84-.01-11.68.39-17.51-3.01-.52-3.49 2.12-3.5 4.45"/><path d="M630.86 86.38c3.84-.46 7.72.07 10.9 2.39-.23 4.14-3.33 7.13-5.27 10.55-2.65 4.51-5.1 9.16-8.38 13.26 1.93-.11 3.88-.36 5.66-1.19 5.78-2.48 11.7-4.6 17.39-7.28 6.85-3 14.25-6.32 21.89-4.4 2.48.42 2.08 4.08-.24 4.43-11.24 4.41-22.75 8.2-33.8 13.11-4.95 2.23-10.2 3.71-15.23 5.75-1.81.8-3.81.52-5.7.47-1.81-1.02-3.78-1.68-5.76-2.21.06-.81.19-2.43.25-3.24 6.32-10.41 12.48-20.93 18.29-31.64m46.85 18c4.29-.44 8.82.13 12.06 3.24-1.03 4-2.08 8.02-2.56 12.14 7-1.14 13.92-2.85 20.91-4.07 3.43-.74 6.58.91 9.68 2.12.25 4.03-4.34 3.53-7.02 4.27-8.6 2.41-17.46 3.59-26.1 5.78-.75 2.65-1.31 5.35-1.84 8.05-1.17 3.63-1.21 7.63-2.91 11.05-3.38 1.94-7.22-.79-10.56-1.77-.18-4.73 1.61-9.25 1.35-13.99-8.01 1.42-15.62 5.05-23.83 5.38-1.32-1.1-2.77-2.07-4.48-2.41.02-.85.05-2.54.07-3.39.7-.24 2.12-.72 2.82-.95 9.24-2.4 18.62-4.22 27.85-6.66 1.3-6.32 2.99-12.54 4.56-18.79m-230.78 29.41 2.4-.6c.36 4.81 1.45 9.63 3.69 13.93 1.99 3.74 6.32 5.76 10.47 5.62.09.61.25 1.84.34 2.45-9.85 2.44-14.28 13.12-14.51 22.4-.89 0-1.78 0-2.66.01-.48-6.54-1.35-14.09-6.72-18.57-2.59-2.39-6.46-2.04-9.24-4.07 3.33-1.92 7.67-1.9 10.37-4.9 4.19-4.32 4.83-10.63 5.86-16.27m-6.39 20.73c-.14 1.77 2.09 2.64 3.01 3.96 2.23 1.62 2.55 4.63 4.48 6.46 2.79-3.59 5.03-7.68 8.71-10.53-4.57-2.05-6.96-6.48-8.72-10.91-1.26 4.42-4.34 7.84-7.48 11.02m-54.53 25.23c5.59-1.58 11.3.59 15.37 4.48 1.61.08 3.23.16 4.85.23 1.7 1.49 3.3 3.14 4.29 5.2 4.73 8.87 8.54 18.19 12.79 27.3 3.62 7.99 8.46 15.41 11.34 23.74 2.3 5.07 4.01 10.74 2.65 16.31-1.26 2.96-2.89 5.96-5.44 8.01-4.52 2.86-9.7 4.38-14.6 6.43-9.96 4.24-20.1 8.01-30.22 11.85-7.62 2.77-15.01 6.26-22.92 8.19-8.28.84-17.01-3.58-20.71-11.16-5.23-10.31-11.34-20.16-16.07-30.72-2.95-6.35-6.52-12.39-9.49-18.72-.69-3.75-1.11-8.22 1.4-11.43 4.97-7.07 9.41-14.54 15.23-20.97 3.44-3.56 8.43-4.78 12.96-6.33 12.89-4.02 25.69-8.34 38.57-12.41m-.33 4.27c-13.94 4.94-28.18 8.95-42.16 13.79-2.75.83-5.02 2.62-7.09 4.55.02 2.57-.45 5.35.8 7.74 5.13 10.47 10.3 20.93 15.63 31.31 1.97 3.9 3.6 8.05 6.35 11.5 3.13 3.67 8.52 4.46 12.97 3.07 8.5-2.67 16.67-6.24 25.11-9.07 5.75-2.18 11.88-3.52 17.24-6.64 4.08-2.18 6.05-7.76 3.83-11.91-3.35-7.56-7.03-14.97-10.47-22.5-3.16-6.59-5.58-13.76-10.31-19.42-2.76-3.71-7.9-3.57-11.9-2.42m-61.03 34.9c-2.68 3.42-3.21 8.05-1.94 12.13 6.54 12.21 12.29 24.83 19.12 36.89 2.91 5.17 5.08 10.87 9.09 15.34 1.25 1.77 3.5 1.29 5.36 1.29.08-3.98 1.67-7.67 2.53-11.5 1.07-4.11 1.49-8.54 4.01-12.11-2.57-1.53-5.35-3-7.04-5.57-4.87-7.39-8.25-15.61-12.4-23.4-3.68-7.47-8.01-14.6-11.21-22.3-3.88 1.65-5.09 6.12-7.52 9.23m98.84 11.4c.21 3.25.11 6.5-.08 9.75 4.6.76 4.66 7.9 9.49 7.72-2.73-5.71-4.75-11.72-7.54-17.39zm-15.93 17.82c-11.13 4.45-22.5 8.25-33.76 12.35-2.63.96-5.4 1.42-8.13 1.97-.63 8.39-4.51 16.13-5.7 24.43 6.13.52 11.75-2.12 17.28-4.36 16.75-7.15 34.14-12.76 50.74-20.26 2.63-.99 4.74-3.61 3.5-6.48-2.8-5.04-6.89-9.22-10.23-13.89-4.69 1.81-9.01 4.43-13.7 6.24"/><path d="M386.72 195.37c1.95.03 3.91.08 5.88.14.37 3.72-.42 7.36-1.52 10.89-2.02 8.96-4.53 17.81-5.93 26.9-.71 3.3-.99 7.08-3.83 9.34-.86-.03-2.59-.11-3.45-.14-6.6-4.81-13.71-8.87-20.47-13.45.23-1.86-.82-4.52 1.49-5.36l3.06-.24c5.07 3.1 9.81 6.82 15.19 9.37 1.4-7.69 3.43-15.25 5.33-22.82 1.32-4.91 2.28-9.93 4.25-14.63m491.22 13.87c4.7-3.9 11.37-5.01 17.01-2.56 13.02 5.17 26.18 9.99 39.39 14.64 3.55 1.24 7.15 2.88 9.68 5.77 5.93 7.08 10.42 15.17 15.48 22.86.25 3.96.81 8.07-.3 11.95-2.57 5.3-6.02 10.12-8.74 15.34-5.02 10.02-11.17 19.4-16.68 29.14-2.96 5.79-8.02 11.13-14.7 12.13-4.29.3-8.9.86-12.84-1.23-19.71-8.73-39.84-16.58-59.13-26.22-4.54-1.95-6.9-6.59-8.47-10.99-.9-4.63 1.08-9.08 2.55-13.36 2.44-7.12 6.7-13.39 10.35-19.92 6.02-11.1 11.09-22.71 17.54-33.58 1.74-3.24 5.47-4.01 8.86-3.97m4.23 2.02c-3.35 2.68-5.12 6.77-7.07 10.48-4.77 10.3-10.39 20.17-15.85 30.11-1.83 4.33-1.68 10.57 2.91 13.16 6.83 3.9 14.4 6.25 21.53 9.53 6.22 2.92 12.66 5.34 19.05 7.89 2.96 1.3 6.23 1.13 9.4 1.08 5.64-2.34 8.25-8.12 11.16-13.05 6.05-9.71 11.11-19.98 16.85-29.88 1.41-2.57 3.3-5.7 1.63-8.62-1.36-3.83-5.42-5.26-8.86-6.62-13.63-5.51-27.65-9.99-41.21-15.65-3.2-.59-6.92-.68-9.54 1.57m49.73 52.92c-3.72 6.46-7.06 13.21-11.71 19.07-2.26 2.92-5.74 4.39-9.06 5.73 1.07.75 2.14 1.51 3.23 2.28 1.08 7.33 3.5 14.36 5.19 21.55.92-.05 2.76-.15 3.68-.21 5.37-4.14 7.65-10.75 11.21-16.29 7.18-11.67 13.49-23.85 20.52-35.61 1.39-3.12 1.17-6.99-.42-10-2.35-4.56-5.14-8.87-7.6-13.36-4.74 9.1-9.82 18.01-15.04 26.84m-88.8 8.32c.59.03 1.78.08 2.37.11 2.41-2.97 3.89-7.41 7.98-8.41-.13-3.75-.06-7.5.06-11.25-5.07 5.6-6.65 13.18-10.41 19.55m11.99-6.24c-2.79 5.16-7.38 8.98-10.78 13.7.25 1.51-.27 3.48 1.11 4.58 2.94 2.69 6.66 4.35 10.2 6.12 13.15 6.07 26.72 11.19 39.76 17.49 6.26 2.63 12.43 6.34 19.5 5.79-1.08-8.38-4.37-16.32-5.25-24.72-6.32-.97-12.04-3.92-17.88-6.31-8.62-3.67-17.32-7.14-25.84-11.01-3.74-1.64-6.96-4.26-10.82-5.64"/><path d="M877.74 235.78c1.56-.09 3.13-.18 4.72-.26.61.64 1.23 1.29 1.86 1.93 1.15 5.16 1.02 10.45 1.63 15.68 4.58-.68 8.2-3.74 12.32-5.59 7.42-3.45 14.52-7.53 21.87-11.11 1.55-.89 3.35-.85 5.09-.92.72.95 1.47 1.9 2.23 2.83.62 3.56-2.81 5.15-5.49 6.31-10.08 4.32-19.34 10.23-29.24 14.91-3.61 1.74-7.05 4.44-11.29 4.04l-1.73-2.09c-1.16-8.52-2.79-17.1-1.97-25.73m-380.3 28.19c1.4-5.68 1.18-11.72 3.52-17.17 2.93 4.49.94 10.18 1.61 15.22 1 8.76 2.24 18.29 8.32 25.16 3.98 4.6 10.3 5.48 15.95 6.51l-.48 2.51c-5.51 2.5-11.82 4.31-15.65 9.38-8.45 11.54-10.6 26.23-11.18 40.16-.76-.04-2.27-.13-3.03-.17.4-10.47-.82-21.06-4.38-30.95-2.46-5.88-5.8-11.94-11.58-15.12-3.21-1.92-6.99-2.33-10.56-3.18l1.4-2.76c2.34-.29 4.66-.77 6.97-1.27 3.7-1.66 7.56-3.52 9.94-6.95 4.54-6.36 7.31-13.82 9.15-21.37m1.71 6.08c-1.69 10.24-7.76 20.61-17.54 24.91l-.04 1.26c.58.12 1.73.36 2.3.48 5.48 5.07 9.95 11.17 12.41 18.27.63 3.15 1.4 6.29 2.72 9.23 1.17-11.26 7.48-22.53 17.62-28.02-.03-.32-.1-.97-.13-1.29-7.91-2.31-13.13-10.06-15.22-17.7-.87-2.33-.29-5.24-2.12-7.14m294.43 21.23c.71-.01 2.14-.02 2.86-.03.31 8 1.4 16.13 4.02 23.72 1.98 6.07 6.33 11.8 12.63 13.73 2.34.87 6.45.88 5.5 4.53-6.36.85-12.67 3.47-16.57 8.77-5.99 7.98-6.89 18.47-7.38 28.1-2.61.43-2.8-2.34-2.99-4.04-.86-9.57-2.7-19.52-8.42-27.48-2.68-3.33-6.57-5.8-10.84-6.36.03-1.15.07-2.3.13-3.44 5.32-.36 10.44-3.35 13.14-7.99 5.37-8.83 7.72-19.26 7.92-29.51m-12.46 38.77c.6 2.41 2.88 3.73 4.3 5.63 3.65 4.78 6.44 10.31 7.56 16.26 2.09-7.52 6.66-14.68 13.48-18.67 1.03-.52 4.58-1.57 2.13-2.71-7.85-4.23-12.32-12.62-13.61-21.21-2.73 7.86-6.47 16.21-13.86 20.7m-495.79-10.64c5.61.34 10.42 3.56 15.45 5.72 9.62 4.92 19.87 9.53 27.3 17.62-10.78-4.73-20.86-10.88-31.26-16.36-3.87-2.23-8.54-3.43-11.49-6.98m690.54 14.31c3.02-1.04 6.01-2.59 9.34-2.22-10.69 5.56-21.77 10.39-32.23 16.39-7.28 3.75-14.08 8.38-21.52 11.84.09-.43.26-1.29.35-1.72 13.53-9.94 28.39-18.2 44.06-24.29m-696.66 2.99c7.61.04 15.1 1.92 22.32 4.18 2 1.37 4.13 2.55 6.41 3.4-3.92-1.12-8.06-1.16-11.94-2.45-5.66-1.39-11.72-2.04-16.79-5.13m698.11 11.04c5.51-1.83 11-4.42 16.93-4.21-6.39 3.29-13.15 5.72-19.71 8.61-6.98 2.95-13.78 6.3-20.63 9.53-1.88 1.06-4.09.95-6.15 1 9.17-6.21 19.39-10.65 29.56-14.93m-692 43.75c5.04-2.89 11.32-1.74 15.67 1.89 2.12.14 4.33-.12 6.39.49 2.89 1.57 4.71 4.42 6.52 7.06 7.35 10.5 13.14 22.02 20.75 32.35 5.57 7.26 10.24 15.24 13.75 23.69 2.1 4.75.36 10.12-2.27 14.28-1.6 2.64-4.47 4-7.01 5.56-8.07 4.69-16.15 9.37-24.53 13.49-11.81 5.98-23.15 12.87-35.09 18.6-8.57 2.72-18.74-.11-24.02-7.61-8.28-11.75-16.64-23.45-24.35-35.59-3.05-5-7.24-9.37-9.4-14.86-.73-4.13-.86-8.7 1.52-12.35 4.78-8.64 7.76-19.06 15.94-25.22 14.91-8.2 30.97-14.07 46.13-21.78m3.2 3.3c-8.94 3.33-17.02 8.56-25.91 12.01-5.44 2.05-10.61 4.7-15.91 7.07-2.97 1.43-6.27 2.82-8.03 5.78-1.4 2-1.6 4.83-.22 6.89 6.23 10.07 12.61 20.06 19.39 29.78 3.51 4.99 6.14 10.76 10.93 14.73 3.01 2.58 7.46 3.13 11.08 1.6 4.86-1.92 9.25-4.81 13.89-7.18 6.07-3.37 12.58-5.88 18.63-9.29 4.92-2.81 10.53-4.93 13.96-9.7.21-1.45.45-2.89.7-4.33q-.405-1.77-.78-3.54c-6.36-10.84-13.86-20.95-20.34-31.71-2.32-3.79-4.18-8.13-7.97-10.71-2.64-2.07-6.3-2.08-9.42-1.4m-55.87 34.41c-2.15 3.84-3.93 7.87-5.93 11.78-1.93 3.53-1.95 8.16.58 11.41 10.59 15.77 21.2 31.52 32.18 47.01 2.11 2.81 5.04 5.34 8.77 5.25 1.64-8.9 1.7-18.03 3.78-26.84-3.22-1.44-6.61-3-8.7-5.98-9.7-12.88-18.23-26.59-27.03-40.1-1.02-1.07-1.67-3.47-3.65-2.53m98.62 9.8c.93 3.14 1.31 6.4 1.05 9.67.93.36 1.86.71 2.8 1.07 2.73 2.62 4.74 6.43 8.65 7.44-2.65-6.17-6.72-11.57-9.73-17.54-.69-.16-2.07-.48-2.77-.64m-4.92 14.26c-3.71 2.29-7.47 4.52-11.31 6.6-12.67 6.7-25.13 14.13-38.75 18.75-.38 9.14-3.19 18.02-3.12 27.19 2.79-.21 5.51-.96 7.94-2.35 18.56-10.21 37.26-20.18 55.83-30.35 2.86-1.97 7.21-4.14 6.65-8.25-3.21-4.22-7.33-7.64-10.95-11.49-1.54-2.01-4.48-1.32-6.29-.1m582.15-60.38c1.32-1.18 2.36-3.21 4.37-3.19 6.07-.28 12.17-.44 18.25-.06.18.9.38 1.83.59 2.75-.79.64-1.58 1.28-2.35 1.93-6.84.78-14.68 2.52-20.86-1.43m72.65-3.08c4.78-1.17 9.92-.65 14.4 1.4 12.63 5.13 25.37 10.01 38.16 14.77 7.72 2.6 11.86 10.07 16.1 16.46 2.47 4.2 5.64 8.01 7.62 12.5 1.48 3.47 1.32 7.54-.46 10.88-9.42 16.53-18.35 33.36-28.46 49.5-3.9 5.55-10.88 8.54-17.58 8.26-4.94.08-9.13-2.89-13.57-4.62-17.89-8.14-36.1-15.62-53.65-24.49-6.72-2.94-9.71-11.36-7.81-18.18 1.77-5.88 3.92-11.74 7.37-16.86 7.15-10.59 11.94-22.52 18.42-33.5 2.75-4.34 4.42-9.62 9.02-12.47 4.01.55 7.11-1.96 10.44-3.65m-8.33 15.75c-5.02 11.2-11.82 21.48-17.47 32.35-1.53 2.51-.28 5.38.35 7.95 1.99 2.01 4.17 3.91 6.83 4.99 12.4 5.39 24.82 10.75 37.38 15.76 5.38 2.03 12.64 1.77 15.95-3.63 6.82-11.4 13.84-22.73 19.82-34.62 1.91-3.89 5.05-7.85 3.73-12.46-1.11-2.14-3.05-3.77-5.18-4.8-10.97-4.92-22.3-8.95-33.49-13.34-5.83-1.82-11.44-5.78-17.83-4.16-5.39 1.73-7.57 7.44-10.09 11.96m71.3 15.52a45 45 0 0 1-4.35 9.27c-6.54 10.72-12.23 21.92-18.55 32.76-2.76 4.4-6.76 8.64-12.12 9.49-8.03 1.38-14.89-3.87-22.09-6.41-11.85-5.4-24.69-9.09-35.28-16.89-.12.89-.24 1.78-.34 2.68-3.34 4.1-7.51 7.54-10.35 12.02-1.66 2.96 2.18 5.1 4.24 6.5 11.3 6.08 23.31 10.73 34.98 16.08 10.87 4.19 20.84 11.12 32.47 13.1-1.24-8.29-4.85-16.2-4.6-24.7 4.54-.9 4.38 4 5.06 7.03.68 5.3 3.1 10.22 3.51 15.57 1.26-.04 2.54-.07 3.83-.09 6.42-6.27 10-14.68 14.65-22.22 6.22-10.81 12.66-21.52 18.47-32.57 1.56-2.69-.09-5.69-1.33-8.13-2.61-4.57-5.02-9.28-8.2-13.49m-95.5 17.39c-3.14 6.78-6.97 13.26-9.32 20.39 3.97-3.66 6.38-8.88 11.17-11.63-.91-3.01-.54-6.08.25-9.05-.52.07-1.57.22-2.1.29"/><path d="M288.67 407.37c1.92.05 3.85.11 5.77.19.8 7.86-1.01 15.61-1.2 23.44-1.09 5.83-.65 11.78-1.56 17.63-.39 2.79.04 6.34-2.63 8.14-1.89 1.43-4.12-.15-5.87-1.02-7.09-3.84-15.1-6.13-21.61-10.95.01-.63.04-1.89.05-2.52 1.3-.94 2.34-3.13 4.24-2.52 6.13 1.76 11.41 5.68 17.6 7.28.95-5.63 1.01-11.33 1.37-17 1.33-7.53.82-15.52 3.84-22.67m617.75 2.79c6.29 1.53 11.91 4.94 17.08 8.75.02.92.06 2.77.09 3.69-1.53-.06-3.05-.1-4.55-.15-4.33-2.6-8.48-5.48-12.71-8.23.02-1.35.04-2.71.09-4.06m69.04 9.28c1.95.01 3.91.03 5.87.07 2.02 5.84.98 12.11 1.43 18.15 3.13-.38 5.65-2.4 8.37-3.81 8.62-4.57 17.67-8.26 26.27-12.87 2.19-1.22 4.77-.6 7.16-.58 0 1.91.01 3.84 0 5.77-10.55 4.32-20.19 10.5-30.55 15.21-5.39 2.11-10.18 6.57-16.39 5.25-1.49-3.36-1.09-7.08-1.61-10.63-.89-5.47-.72-11.04-.55-16.56m-81.34 9.95c1.37-.03 2.78-.05 4.17-.07 2.9 5.14 6.83 10.3 6.51 16.51-.78-.11-2.33-.32-3.11-.43-3.73-4.62-5.84-10.39-7.57-16.01m-408.4 37.32c5.87-7.93 14.93-14.72 25.24-14.3 6.76-.45 13.8 2.24 18.33 7.31 6.88 8.79 7.48 21 4.75 31.47-1.07.05-2.13.1-3.19.16-.71-.87-1.41-1.72-2.12-2.56-.49-7.16 1.74-15.28-2.77-21.54-3.17-5.01-8.83-8.65-14.93-7.94-9.29-.82-17.09 5.42-22.55 12.25-1.35-.06-2.69-.12-4.03-.17.19-1.61.14-3.38 1.27-4.68m112.39 17.98c8.78-2.65 19.08-1.13 25.83 5.39 9.56 8.79 11.18 23.27 8.26 35.34-2.08.68-3.95-.24-5.61-1.41.1-5.24.4-10.51-.25-15.72-1.62-7.15-6.07-14.22-13.33-16.63-12.6-4.28-25.46 3.87-32.76 13.78-1.22-.06-2.42-.13-3.62-.18-.19-2.19.16-4.39 1.67-6.08 5.01-6.54 11.56-12.56 19.81-14.49m-136.14 6.4c2.73-3.01 7.15-3.6 11.01-3.4 7.58 1.05 14.96 4.63 19.4 11.06 1.78 2.35 1.11 5.45 1.07 8.18-1.35 1.14-2.7 2.28-4.07 3.4-1.18.31-2.35.63-3.52.96-10.09.39-20.95-4.87-25.41-14.21.2-2.05.01-4.36 1.52-5.99m2.86.69c-.45 1.08-.9 2.16-1.36 3.25 1.95 5.46 6.85 9.12 11.98 11.4 4.31 1.89 9.14 1.16 13.69.94.44-1.51.89-3 1.36-4.48-1.7-3.8-4.46-7.17-8.25-9.03-5.32-2.55-11.71-4.85-17.42-2.08m37.62 12.65c1.27.04 2.54.08 3.82.13 6.72 6.68 15.19 11.29 24.05 14.49 12.53 5.33 26.16 7.3 39.62 8.5 8.62-.19 17.39.89 25.88-1.04 2.13 1.6 2.04 4.04.99 6.29-4.79 18.07-15 35.74-31.52 45.38-6.91 4.34-15.06 6.75-23.25 6.34-10.42-.2-19.91-6.22-26.37-14.1-7.83-10.05-11.33-22.87-12.09-35.42-.6-8.16 1.61-16.15 1.15-24.3-.74-.69-1.47-1.36-2.19-2.04-.04-1.41-.06-2.82-.09-4.23m8.76 12.49c-1.17 4.26-.86 8.7-.96 13.07.05 6.35-.33 12.88 1.72 19.01 1.81 5.43 3.76 10.88 6.84 15.75 1.05-.06 2.12-.12 3.19-.19 2.36-3.79 6.23-6.17 9.97-8.42 7.9-4.59 17.02-6.54 26.03-7.44 8.26-.53 16.25 1.92 24.08 4.16 3.19-5.8 6.72-11.77 6.91-18.58-22.96.99-46.43-2.19-67.37-12.02-3.54-1.67-6.49-4.54-10.41-5.34M339.91 538c.84-1.19 1.66-2.39 2.45-3.6.26 2.89.27 5.81-.22 8.68-.93 4.91-.13 9.93-.9 14.86-3.22-6.1-1.86-13.36-1.33-19.94m265.79 1.73c5.38-5.31 13.55-3.09 20.28-3.06.99.37 1.99.75 3.01 1.12 4.39 1.59 9.06 3.84 11.21 8.27 1.28 4.12.53 9.51-4.03 11.2-7.09 2.51-15.1 1.49-21.99-1.24-3.59-1.53-7.38-3.4-9.49-6.83-1.98-2.86-1.78-7.19 1.01-9.46m1.91 2.23c-.13 2.09-.18 4.19-.19 6.3 3.02 2.76 6.52 4.94 10.51 5.99 5.5 1.25 11.24 1.69 16.73.09.96-.7 1.94-1.39 2.93-2.06q-.015-2.955-.06-5.88c-7.62-7.67-20.42-9.39-29.92-4.44m-279.9 4.08c.68-2.57.93-5.4 2.81-7.45.22 6.34-.21 12.69-.12 19.04-.39-.1-1.19-.29-1.58-.38-.27-1.79-.61-3.56-1.09-5.28-.09-1.98-.08-3.96-.02-5.93m675.99-7.3c1.53 1.36 1.96 3.23 1.79 5.25-.49 17.8-4.49 35.9-13.97 51.17-.12-1.73-.05-3.48.6-5.1 6.36-16.43 10.21-33.77 11.58-51.32m-690.29 64.45c5.29-2.69 11.73-1.56 16.22 2.16 3.86-.33 8.24.16 10.22 3.99 6.33 9.14 11.97 18.73 18.11 28 5.55 8.47 11.88 16.48 16.23 25.69 2.27 4.26 1.9 9.35 1.13 13.96-1.42 4.9-5.99 7.94-10.14 10.43-8.79 4.96-17.58 9.91-26.64 14.35-10.61 5.34-20.67 11.81-31.62 16.45-5.78 1.13-12.25.66-17.24-2.77-5-3.46-7.84-9.02-11.43-13.77-7.42-10.1-14.15-20.67-21.1-31.09-1.79-2.86-4.24-5.35-5.48-8.5-.48-3.92-.93-8.24 1.17-11.79 4.05-7.37 7.09-15.33 12.2-22.07 3.05-4.11 8.13-5.68 12.48-7.98 12-5.61 23.99-11.25 35.89-17.06m-.97 4.98c-9.18 5.14-18.92 9.09-28.4 13.63-5.98 2.85-12.95 4.94-16.65 10.91.03 1.44.07 2.89.11 4.35 7.33 11.63 15.38 22.77 22.99 34.22 2.92 3.85 5.2 8.55 9.54 11.02 4.1.86 8.72.86 12.33-1.53 9.09-5.39 18.94-9.32 28.17-14.45 4.15-2.37 8.82-4.07 12.22-7.55 2.72-2.54 1.74-6.54 1.8-9.84-6.87-10.24-13.77-20.47-20.38-30.88-2.77-4.25-4.97-9.61-10.06-11.52-3.93-.67-8.23-.62-11.67 1.64m-49.97 32.22c-2.01 4.11-3.8 8.33-5.92 12.4-1.68 3.09-1.76 7.18.51 10.01 6.97 10.03 13.64 20.28 20.69 30.26 4.74 6.71 8.85 14.05 15.05 19.57 1.04.07 3.12.22 4.17.29 1.32-8.44 1.87-17.11 5.01-25.15-5.51-1.26-9.42-5.62-12.43-10.11-8.46-12.34-16.96-24.65-25.05-37.22-.51-.01-1.52-.04-2.03-.05m97.04 9.64c.09 2.73.12 5.47.08 8.21 4.34 1.86 7.07 5.84 10.32 9.06-.59-6.32-5.37-11.03-7.83-16.67zm-3.7 12.28c-6.91 5.31-14.9 8.93-22.56 13.01-9.43 4.82-18.63 10.51-28.92 13.3 1.17 8.86-2.24 17.37-2.19 26.17 2.23-.34 4.46-.88 6.44-2 17-8.93 33.87-18.08 50.81-27.1 3.93-2.19 8.12-4.1 11.34-7.32-.26-1.97.6-4.42-1.15-5.87-3.35-3.46-6.96-6.67-10.28-10.15-1.17-.02-2.33-.04-3.49-.04"/><path d="M317.23 618.44c1.45.03 2.91.05 4.38.08l1.88 1.73c-1.4 14.15-2.13 28.35-3.13 42.55.06 2.99-3.76 5.69-6.47 3.98-7.09-3.05-13.81-6.86-20.84-10.01-1.91-.67-2.63-2.53-2.63-4.4 1.41-.92 2.53-3.11 4.47-2.58 6.04 2.04 11.21 6.36 17.63 7.29.37-9.06 1.83-18.03 2.31-27.09.83-3.84.05-8.17 2.4-11.55m630.94.36c6.51-1.82 12.35 2.18 17.94 4.87 10.04 5.13 20.39 9.58 30.62 14.3 3.52 1.69 7.36 3.35 9.69 6.68 4.33 6.05 7.17 12.98 10.95 19.37 2.99 4.89 3.44 11.63.66 16.68-10.35 14.78-19.74 30.22-30.39 44.79-3.66 5.44-10.16 8.54-16.68 8.18-5.56.49-10.16-3.09-14.9-5.37-12.71-7.05-25.74-13.49-38.35-20.7-5.31-2.93-10.68-5.81-15.55-9.43-5.19-3.87-5.73-11.21-4.26-17.03 2.91-8.97 9.34-16.06 14.19-23.96 5.9-9.13 11.37-18.53 17.35-27.61 2.37-3.31 4.87-7.79 9.48-7.89 3.39.21 6.11-2.02 9.25-2.88m.27 3.92c-6.14 2.55-8.81 9.19-12.08 14.5-5.41 8.54-11.13 16.89-16.62 25.39-1.37 2.14-2.67 4.68-1.87 7.3.93 4.2 4.77 6.76 8.34 8.61 11.67 6.4 23.6 12.29 35.44 18.37 3.3 1.83 7.53 2.27 10.94.47 4.15-1.91 6.21-6.24 8.72-9.79 7.01-10.33 14.54-20.33 20.94-31.06 1.19-2.22 2.98-4.88 1.62-7.43-1.43-4.05-5.76-5.52-9.24-7.3-10.12-5.02-20.4-9.68-30.59-14.52-5.11-1.86-9.8-6.21-15.6-4.54m-17.29 13.29c-4.63 7.59-9.71 14.89-14.3 22.5-2.27 3.47-5.42 6.3-7.36 9.99-2.45 4.55-4.98 9.06-7.25 13.71 4.17-.86 5.56-5.53 9.26-7.2.81.82 1.63 1.66 2.45 2.51-3.32 4.47-7.81 7.86-11.47 12.03-.03 1.01-.06 2.02-.07 3.05 5.33 5.63 12.74 8.48 19.34 12.3 12.16 6.56 24.4 12.99 36.43 19.78 4.22 2.08 8.32 5.18 13.26 4.91-1.67-8.05-3.72-16.14-3.31-24.43l3.35.12c1.57 7.71 2.61 15.53 4.16 23.26.92-.07 1.84-.13 2.78-.18 4.52-3.42 7.64-8.2 10.77-12.83 8.29-11.8 15.94-24.05 24.38-35.76 1.45-2.35 3.46-5.19 2.18-8.05-2.2-5.68-4.6-11.36-7.76-16.57-6.33 11.49-14.53 21.82-21.64 32.83-2.6 3.79-4.93 7.87-8.32 11.05-4.87 4.75-12.84 4.86-18.63 1.83-7.16-3.41-14.12-7.2-21.15-10.84-7.27-4.09-14.87-7.63-21.63-12.55-1.55-.81-1.52-2.72-2.07-4.14l-1.22.58c.03-2.24 0-4.46.24-6.68.44-5.51 4.83-9.39 7.19-14.12 6.21-9.26 11.68-19.01 18.31-27.99-3.51 2.93-5.47 7.13-7.92 10.89"/><path d="M938.71 650.16c.12-4.03 7.25-3.87 7.42.13.55 5.21-.02 10.48.23 15.73 5.44-1.16 10.32-3.91 15.4-6.06 6.34-2.95 13.16-4.66 19.51-7.59 1.84-.98 3.95-.86 5.98-.88.64 1.13 1.31 2.26 1.99 3.4-.39 1.04-.76 2.09-1.12 3.14-10.71 4.13-21.25 8.67-31.98 12.73-4.85 1.7-9.32 4.95-14.65 4.79-.6-.62-1.19-1.22-1.76-1.81-1.55-7.77-1.22-15.72-1.02-23.58"/></g></svg>